<svg version="1.1" viewBox="0.0 0.0 960.0 720.0" fill="none" stroke="none" stroke-linecap="square" stroke-miterlimit="10" xmlns:xlink="http://www.w3.org/1999/xlink" xmlns="http://www.w3.org/2000/svg"><clipPath id="g5c17980a54_0_3.0"><path d="m0 0l960.0 0l0 720.0l-960.0 0l0 -720.0z" clip-rule="nonzero"/></clipPath><g clip-path="url(#g5c17980a54_0_3.0)"><path fill="#ffffff" d="m0 0l960.0 0l0 720.0l-960.0 0z" fill-rule="evenodd"/><path fill="#000000" fill-opacity="0.0" d="m342.2651 313.14026l0 0c0 -32.030243 25.965637 -57.995895 57.99591 -57.995895l445.74045 0c15.38147 0 30.132935 6.1102448 41.009277 16.986588c10.876343 10.876343 16.986633 25.627838 16.986633 41.009308l0 231.97668c0 32.030273 -25.965637 57.99591 -57.99591 57.99591l-445.74045 0c-32.030273 0 -57.99591 -25.965637 -57.99591 -57.99591z" fill-rule="evenodd"/><path stroke="#595959" stroke-width="1.0" stroke-linejoin="round" stroke-linecap="butt" stroke-dasharray="4.0,3.0" d="m342.2651 313.14026l0 0c0 -32.030243 25.965637 -57.995895 57.99591 -57.995895l445.74045 0c15.38147 0 30.132935 6.1102448 41.009277 16.986588c10.876343 10.876343 16.986633 25.627838 16.986633 41.009308l0 231.97668c0 32.030273 -25.965637 57.99591 -57.99591 57.99591l-445.74045 0c-32.030273 0 -57.99591 -25.965637 -57.99591 -57.99591z" fill-rule="evenodd"/><path fill="#9fc5e8" d="m385.3832 397.10385l0 0c0 -14.6409 11.868805 -26.509705 26.509705 -26.509705l106.035675 0l0 0c7.0308228 0 13.773682 2.7929688 18.74524 7.7645264c4.9714966 4.971527 7.7644653 11.714386 7.7644653 18.745178l0 151.13803c0 14.64093 -11.868774 26.509766 -26.509705 26.509766l-106.035675 0c-14.6409 0 -26.509705 -11.868835 -26.509705 -26.509766z" fill-rule="evenodd"/><path stroke="#000000" stroke-width="1.0" stroke-linejoin="round" stroke-linecap="butt" d="m385.3832 397.10385l0 0c0 -14.6409 11.868805 -26.509705 26.509705 -26.509705l106.035675 0l0 0c7.0308228 0 13.773682 2.7929688 18.74524 7.7645264c4.9714966 4.971527 7.7644653 11.714386 7.7644653 18.745178l0 151.13803c0 14.64093 -11.868774 26.509766 -26.509705 26.509766l-106.035675 0c-14.6409 0 -26.509705 -11.868835 -26.509705 -26.509766z" fill-rule="evenodd"/><path fill="#000000" d="m425.1432 466.4629l0 -2.4375l2.109375 0l0 2.4375l-2.109375 0zm0 14.75l0 -12.453125l2.109375 0l0 12.453125l-2.109375 0zm5.3164062 4.765625l0 -17.21875l1.921875 0l0 1.625q0.6875 -0.953125 1.53125 -1.421875q0.859375 -0.484375 2.078125 -0.484375q1.59375 0 2.8125 0.828125q1.21875 0.8125 1.84375 2.3125q0.625 1.5 0.625 3.28125q0 1.90625 -0.6875 3.4375q-0.6875 1.53125 -2.0 2.34375q-1.296875 0.8125 -2.734375 0.8125q-1.0625 0 -1.90625 -0.4375q-0.828125 -0.453125 -1.375 -1.140625l0 6.0625l-2.109375 0zm1.921875 -10.921875q0 2.40625 0.96875 3.5625q0.96875 1.140625 2.359375 1.140625q1.40625 0 2.40625 -1.1875q1.0 -1.1875 1.0 -3.6875q0 -2.375 -0.984375 -3.5625q-0.96875 -1.1875 -2.328125 -1.1875q-1.359375 0 -2.390625 1.265625q-1.03125 1.25 -1.03125 3.65625zm16.035156 4.265625l0.3125 1.859375q-0.890625 0.203125 -1.59375 0.203125q-1.15625 0 -1.796875 -0.359375q-0.625 -0.375 -0.890625 -0.96875q-0.25 -0.59375 -0.25 -2.484375l0 -7.171875l-1.546875 0l0 -1.640625l1.546875 0l0 -3.078125l2.09375 -1.265625l0 4.34375l2.125 0l0 1.640625l-2.125 0l0 7.28125q0 0.90625 0.109375 1.171875q0.125 0.25 0.375 0.40625q0.25 0.140625 0.71875 0.140625q0.34375 0 0.921875 -0.078125zm10.183594 0.359375q-1.171875 0.984375 -2.265625 1.40625q-1.078125 0.40625 -2.3125 0.40625q-2.046875 0 -3.15625 -1.0q-1.09375 -1.0 -1.09375 -2.5625q0 -0.921875 0.40625 -1.671875q0.421875 -0.75 1.09375 -1.203125q0.671875 -0.46875 1.515625 -0.703125q0.625 -0.15625 1.875 -0.3125q2.5625 -0.3125 3.765625 -0.734375q0.015625 -0.421875 0.015625 -0.546875q0 -1.28125 -0.609375 -1.8125q-0.796875 -0.71875 -2.390625 -0.71875q-1.5 0 -2.203125 0.53125q-0.703125 0.515625 -1.046875 1.84375l-2.0625 -0.28125q0.28125 -1.328125 0.921875 -2.140625q0.640625 -0.8125 1.859375 -1.25q1.21875 -0.453125 2.828125 -0.453125q1.59375 0 2.59375 0.375q1.0 0.375 1.46875 0.953125q0.46875 0.5625 0.65625 1.4375q0.09375 0.53125 0.09375 1.9375l0 2.8125q0 2.9375 0.140625 3.71875q0.140625 0.78125 0.53125 1.5l-2.203125 0q-0.328125 -0.65625 -0.421875 -1.53125zm-0.171875 -4.71875q-1.15625 0.46875 -3.453125 0.796875q-1.296875 0.1875 -1.84375 0.421875q-0.53125 0.234375 -0.828125 0.6875q-0.28125 0.453125 -0.28125 1.0q0 0.84375 0.625 1.40625q0.640625 0.5625 1.875 0.5625q1.21875 0 2.171875 -0.53125q0.953125 -0.53125 1.390625 -1.453125q0.34375 -0.71875 0.34375 -2.109375l0 -0.78125zm7.3476562 6.25l-1.953125 0l0 -17.1875l2.109375 0l0 6.140625q1.328125 -1.6875 3.40625 -1.6875q1.140625 0 2.171875 0.46875q1.03125 0.46875 1.6875 1.3125q0.65625 0.828125 1.03125 2.015625q0.375 1.171875 0.375 2.53125q0 3.1875 -1.578125 4.9375q-1.578125 1.75 -3.796875 1.75q-2.203125 0 -3.453125 -1.84375l0 1.5625zm-0.03125 -6.3125q0 2.234375 0.609375 3.234375q1.0 1.625 2.703125 1.625q1.375 0 2.375 -1.203125q1.015625 -1.203125 1.015625 -3.578125q0 -2.4375 -0.96875 -3.59375q-0.953125 -1.171875 -2.328125 -1.171875q-1.390625 0 -2.40625 1.203125q-1.0 1.203125 -1.0 3.484375zm11.378906 6.3125l0 -17.1875l2.109375 0l0 17.1875l-2.109375 0zm13.910156 -4.015625l2.171875 0.28125q-0.515625 1.90625 -1.90625 2.96875q-1.390625 1.046875 -3.5625 1.046875q-2.734375 0 -4.34375 -1.671875q-1.59375 -1.6875 -1.59375 -4.734375q0 -3.140625 1.609375 -4.875q1.625 -1.734375 4.203125 -1.734375q2.5 0 4.078125 1.703125q1.59375 1.703125 1.59375 4.78125q0 0.1875 -0.015625 0.5625l-9.28125 0q0.109375 2.046875 1.15625 3.140625q1.046875 1.09375 2.609375 1.09375q1.15625 0 1.96875 -0.609375q0.828125 -0.609375 1.3125 -1.953125zm-6.9375 -3.40625l6.953125 0q-0.140625 -1.5625 -0.796875 -2.359375q-1.0 -1.21875 -2.609375 -1.21875q-1.453125 0 -2.453125 0.984375q-0.984375 0.96875 -1.09375 2.59375zm10.910156 3.703125l2.09375 -0.328125q0.171875 1.25 0.96875 1.921875q0.8125 0.671875 2.25 0.671875q1.453125 0 2.15625 -0.59375q0.703125 -0.59375 0.703125 -1.390625q0 -0.71875 -0.625 -1.125q-0.421875 -0.28125 -2.15625 -0.71875q-2.3125 -0.578125 -3.21875 -1.0q-0.890625 -0.4375 -1.359375 -1.1875q-0.453125 -0.765625 -0.453125 -1.671875q0 -0.828125 0.375 -1.53125q0.390625 -0.71875 1.046875 -1.1875q0.484375 -0.359375 1.328125 -0.609375q0.859375 -0.265625 1.828125 -0.265625q1.46875 0 2.578125 0.421875q1.109375 0.421875 1.625 1.15625q0.53125 0.71875 0.734375 1.921875l-2.0625 0.28125q-0.140625 -0.96875 -0.8125 -1.5q-0.671875 -0.546875 -1.90625 -0.546875q-1.453125 0 -2.078125 0.484375q-0.625 0.484375 -0.625 1.125q0 0.40625 0.265625 0.734375q0.25 0.34375 0.8125 0.5625q0.3125 0.125 1.859375 0.546875q2.234375 0.59375 3.109375 0.984375q0.890625 0.375 1.390625 1.109375q0.515625 0.71875 0.515625 1.796875q0 1.046875 -0.625 1.984375q-0.609375 0.9375 -1.765625 1.453125q-1.15625 0.5 -2.625 0.5q-2.421875 0 -3.703125 -1.0q-1.265625 -1.015625 -1.625 -3.0z" fill-rule="nonzero"/><path fill="#9fc5e8" d="m716.5958 295.9373l0 0c0 -7.491516 6.073059 -13.564575 13.564575 -13.564575l114.16217 0c3.5975342 0 7.0477295 1.4291077 9.591614 3.9729614c2.5438232 2.5438538 3.9729614 5.994049 3.9729614 9.591614l0 54.256653c0 7.491516 -6.073059 13.564606 -13.564575 13.564606l-114.16217 0c-7.491516 0 -13.564575 -6.0730896 -13.564575 -13.564606z" fill-rule="evenodd"/><path stroke="#000000" stroke-width="1.0" stroke-linejoin="round" stroke-linecap="butt" d="m716.5958 295.9373l0 0c0 -7.491516 6.073059 -13.564575 13.564575 -13.564575l114.16217 0c3.5975342 0 7.0477295 1.4291077 9.591614 3.9729614c2.5438232 2.5438538 3.9729614 5.994049 3.9729614 9.591614l0 54.256653c0 7.491516 -6.073059 13.564606 -13.564575 13.564606l-114.16217 0c-7.491516 0 -13.564575 -6.0730896 -13.564575 -13.564606z" fill-rule="evenodd"/><path fill="#9fc5e8" d="m716.5958 399.9373l0 0c0 -7.491516 6.073059 -13.564575 13.564575 -13.564575l114.16217 0c3.5975342 0 7.0477295 1.4291077 9.591614 3.9729614c2.5438232 2.5438538 3.9729614 5.994049 3.9729614 9.591614l0 54.256653c0 7.491516 -6.073059 13.564606 -13.564575 13.564606l-114.16217 0c-7.491516 0 -13.564575 -6.0730896 -13.564575 -13.564606z" fill-rule="evenodd"/><path stroke="#000000" stroke-width="1.0" stroke-linejoin="round" stroke-linecap="butt" d="m716.5958 399.9373l0 0c0 -7.491516 6.073059 -13.564575 13.564575 -13.564575l114.16217 0c3.5975342 0 7.0477295 1.4291077 9.591614 3.9729614c2.5438232 2.5438538 3.9729614 5.994049 3.9729614 9.591614l0 54.256653c0 7.491516 -6.073059 13.564606 -13.564575 13.564606l-114.16217 0c-7.491516 0 -13.564575 -6.0730896 -13.564575 -13.564606z" fill-rule="evenodd"/><path fill="#9fc5e8" d="m716.5958 503.9373l0 0c0 -7.491516 6.073059 -13.564575 13.564575 -13.564575l114.16217 0c3.5975342 0 7.0477295 1.4291077 9.591614 3.9729614c2.5438232 2.5438538 3.9729614 5.994049 3.9729614 9.591614l0 54.256683c0 7.491516 -6.073059 13.564575 -13.564575 13.564575l-114.16217 0c-7.491516 0 -13.564575 -6.073059 -13.564575 -13.564575z" fill-rule="evenodd"/><path stroke="#000000" stroke-width="1.0" stroke-linejoin="round" stroke-linecap="butt" d="m716.5958 503.9373l0 0c0 -7.491516 6.073059 -13.564575 13.564575 -13.564575l114.16217 0c3.5975342 0 7.0477295 1.4291077 9.591614 3.9729614c2.5438232 2.5438538 3.9729614 5.994049 3.9729614 9.591614l0 54.256683c0 7.491516 -6.073059 13.564575 -13.564575 13.564575l-114.16217 0c-7.491516 0 -13.564575 -6.073059 -13.564575 -13.564575z" fill-rule="evenodd"/><path fill="#000000" fill-opacity="0.0" d="m785.1076 282.3727l77.98425 0l0 22.11023l-77.98425 0z" fill-rule="evenodd"/><path fill="#000000" d="m795.6857 301.96783l0 -12.453125l1.90625 0l0 1.78125q1.375 -2.0625 3.953125 -2.0625q1.125 0 2.0625 0.40625q0.953125 0.40625 1.421875 1.0625q0.46875 0.65625 0.65625 1.5625q0.125 0.578125 0.125 2.046875l0 7.65625l-2.109375 0l0 -7.578125q0 -1.28125 -0.25 -1.921875q-0.25 -0.640625 -0.875 -1.015625q-0.625 -0.390625 -1.46875 -0.390625q-1.34375 0 -2.328125 0.859375q-0.984375 0.859375 -0.984375 3.25l0 6.796875l-2.109375 0zm12.566406 -6.21875q0 -3.46875 1.921875 -5.125q1.609375 -1.390625 3.921875 -1.390625q2.5625 0 4.1875 1.6875q1.625 1.6875 1.625 4.640625q0 2.40625 -0.71875 3.78125q-0.71875 1.375 -2.09375 2.140625q-1.375 0.765625 -3.0 0.765625q-2.625 0 -4.234375 -1.671875q-1.609375 -1.6875 -1.609375 -4.828125zm2.171875 0q0 2.390625 1.03125 3.578125q1.046875 1.1875 2.640625 1.1875q1.5625 0 2.609375 -1.1875q1.046875 -1.203125 1.046875 -3.65625q0 -2.3125 -1.0625 -3.5q-1.046875 -1.1875 -2.59375 -1.1875q-1.59375 0 -2.640625 1.1875q-1.03125 1.1875 -1.03125 3.578125zm20.035156 6.21875l0 -1.578125q-1.1875 1.859375 -3.484375 1.859375q-1.484375 0 -2.734375 -0.8125q-1.25 -0.828125 -1.9375 -2.296875q-0.671875 -1.46875 -0.671875 -3.390625q0 -1.859375 0.609375 -3.375q0.625 -1.515625 1.859375 -2.328125q1.25 -0.8125 2.78125 -0.8125q1.125 0 2.0 0.484375q0.890625 0.46875 1.4375 1.234375l0 -6.171875l2.09375 0l0 17.1875l-1.953125 0zm-6.671875 -6.21875q0 2.390625 1.0 3.578125q1.015625 1.1875 2.390625 1.1875q1.390625 0 2.34375 -1.125q0.96875 -1.140625 0.96875 -3.453125q0 -2.5625 -0.984375 -3.75q-0.984375 -1.203125 -2.421875 -1.203125q-1.40625 0 -2.359375 1.15625q-0.9375 1.140625 -0.9375 3.609375zm20.472656 2.203125l2.171875 0.28125q-0.515625 1.90625 -1.90625 2.96875q-1.390625 1.046875 -3.5625 1.046875q-2.734375 0 -4.34375 -1.671875q-1.59375 -1.6875 -1.59375 -4.734375q0 -3.140625 1.609375 -4.875q1.625 -1.734375 4.203125 -1.734375q2.5 0 4.078125 1.703125q1.59375 1.703125 1.59375 4.78125q0 0.1875 -0.015625 0.5625l-9.28125 0q0.109375 2.046875 1.15625 3.140625q1.046875 1.09375 2.609375 1.09375q1.15625 0 1.96875 -0.609375q0.828125 -0.609375 1.3125 -1.953125zm-6.9375 -3.40625l6.953125 0q-0.140625 -1.5625 -0.796875 -2.359375q-1.0 -1.21875 -2.609375 -1.21875q-1.453125 0 -2.453125 0.984375q-0.984375 0.96875 -1.09375 2.59375z" fill-rule="nonzero"/><path fill="#000000" fill-opacity="0.0" d="m785.1076 386.3727l77.98425 0l0 22.11023l-77.98425 0z" fill-rule="evenodd"/><path fill="#000000" d="m795.6857 405.96783l0 -12.453125l1.90625 0l0 1.78125q1.375 -2.0625 3.953125 -2.0625q1.125 0 2.0625 0.40625q0.953125 0.40625 1.421875 1.0625q0.46875 0.65625 0.65625 1.5625q0.125 0.578125 0.125 2.046875l0 7.65625l-2.109375 0l0 -7.578125q0 -1.28125 -0.25 -1.921875q-0.25 -0.640625 -0.875 -1.015625q-0.625 -0.390625 -1.46875 -0.390625q-1.34375 0 -2.328125 0.859375q-0.984375 0.859375 -0.984375 3.25l0 6.796875l-2.109375 0zm12.566406 -6.21875q0 -3.46875 1.921875 -5.125q1.609375 -1.390625 3.921875 -1.390625q2.5625 0 4.1875 1.6875q1.625 1.6875 1.625 4.640625q0 2.40625 -0.71875 3.78125q-0.71875 1.375 -2.09375 2.140625q-1.375 0.765625 -3.0 0.765625q-2.625 0 -4.234375 -1.671875q-1.609375 -1.6875 -1.609375 -4.828125zm2.171875 0q0 2.390625 1.03125 3.578125q1.046875 1.1875 2.640625 1.1875q1.5625 0 2.609375 -1.1875q1.046875 -1.203125 1.046875 -3.65625q0 -2.3125 -1.0625 -3.5q-1.046875 -1.1875 -2.59375 -1.1875q-1.59375 0 -2.640625 1.1875q-1.03125 1.1875 -1.03125 3.578125zm20.035156 6.21875l0 -1.578125q-1.1875 1.859375 -3.484375 1.859375q-1.484375 0 -2.734375 -0.8125q-1.25 -0.828125 -1.9375 -2.296875q-0.671875 -1.46875 -0.671875 -3.390625q0 -1.859375 0.609375 -3.375q0.625 -1.515625 1.859375 -2.328125q1.25 -0.8125 2.78125 -0.8125q1.125 0 2.0 0.484375q0.890625 0.46875 1.4375 1.234375l0 -6.171875l2.09375 0l0 17.1875l-1.953125 0zm-6.671875 -6.21875q0 2.390625 1.0 3.578125q1.015625 1.1875 2.390625 1.1875q1.390625 0 2.34375 -1.125q0.96875 -1.140625 0.96875 -3.453125q0 -2.5625 -0.984375 -3.75q-0.984375 -1.203125 -2.421875 -1.203125q-1.40625 0 -2.359375 1.15625q-0.9375 1.140625 -0.9375 3.609375zm20.472656 2.203125l2.171875 0.28125q-0.515625 1.90625 -1.90625 2.96875q-1.390625 1.046875 -3.5625 1.046875q-2.734375 0 -4.34375 -1.671875q-1.59375 -1.6875 -1.59375 -4.734375q0 -3.140625 1.609375 -4.875q1.625 -1.734375 4.203125 -1.734375q2.5 0 4.078125 1.703125q1.59375 1.703125 1.59375 4.78125q0 0.1875 -0.015625 0.5625l-9.28125 0q0.109375 2.046875 1.15625 3.140625q1.046875 1.09375 2.609375 1.09375q1.15625 0 1.96875 -0.609375q0.828125 -0.609375 1.3125 -1.953125zm-6.9375 -3.40625l6.953125 0q-0.140625 -1.5625 -0.796875 -2.359375q-1.0 -1.21875 -2.609375 -1.21875q-1.453125 0 -2.453125 0.984375q-0.984375 0.96875 -1.09375 2.59375z" fill-rule="nonzero"/><path fill="#000000" fill-opacity="0.0" d="m785.1076 490.3727l77.98425 0l0 22.110199l-77.98425 0z" fill-rule="evenodd"/><path fill="#000000" d="m795.6857 509.96783l0 -12.453125l1.90625 0l0 1.78125q1.375 -2.0625 3.953125 -2.0625q1.125 0 2.0625 0.40625q0.953125 0.40625 1.421875 1.0625q0.46875 0.65625 0.65625 1.5625q0.125 0.578125 0.125 2.046875l0 7.65625l-2.109375 0l0 -7.578125q0 -1.28125 -0.25 -1.921875q-0.25 -0.640625 -0.875 -1.015625q-0.625 -0.390625 -1.46875 -0.390625q-1.34375 0 -2.328125 0.859375q-0.984375 0.859375 -0.984375 3.25l0 6.796875l-2.109375 0zm12.566406 -6.21875q0 -3.46875 1.921875 -5.125q1.609375 -1.390625 3.921875 -1.390625q2.5625 0 4.1875 1.6875q1.625 1.6875 1.625 4.640625q0 2.40625 -0.71875 3.78125q-0.71875 1.375 -2.09375 2.140625q-1.375 0.765625 -3.0 0.765625q-2.625 0 -4.234375 -1.671875q-1.609375 -1.6875 -1.609375 -4.828125zm2.171875 0q0 2.390625 1.03125 3.578125q1.046875 1.1875 2.640625 1.1875q1.5625 0 2.609375 -1.1875q1.046875 -1.203125 1.046875 -3.65625q0 -2.3125 -1.0625 -3.5q-1.046875 -1.1875 -2.59375 -1.1875q-1.59375 0 -2.640625 1.1875q-1.03125 1.1875 -1.03125 3.578125zm20.035156 6.21875l0 -1.578125q-1.1875 1.859375 -3.484375 1.859375q-1.484375 0 -2.734375 -0.8125q-1.25 -0.828125 -1.9375 -2.296875q-0.671875 -1.46875 -0.671875 -3.390625q0 -1.859375 0.609375 -3.375q0.625 -1.515625 1.859375 -2.328125q1.25 -0.8125 2.78125 -0.8125q1.125 0 2.0 0.484375q0.890625 0.46875 1.4375 1.234375l0 -6.171875l2.09375 0l0 17.1875l-1.953125 0zm-6.671875 -6.21875q0 2.390625 1.0 3.578125q1.015625 1.1875 2.390625 1.1875q1.390625 0 2.34375 -1.125q0.96875 -1.140625 0.96875 -3.453125q0 -2.5625 -0.984375 -3.75q-0.984375 -1.203125 -2.421875 -1.203125q-1.40625 0 -2.359375 1.15625q-0.9375 1.140625 -0.9375 3.609375zm20.472656 2.203125l2.171875 0.28125q-0.515625 1.90625 -1.90625 2.96875q-1.390625 1.046875 -3.5625 1.046875q-2.734375 0 -4.34375 -1.671875q-1.59375 -1.6875 -1.59375 -4.734375q0 -3.140625 1.609375 -4.875q1.625 -1.734375 4.203125 -1.734375q2.5 0 4.078125 1.703125q1.59375 1.703125 1.59375 4.78125q0 0.1875 -0.015625 0.5625l-9.28125 0q0.109375 2.046875 1.15625 3.140625q1.046875 1.09375 2.609375 1.09375q1.15625 0 1.96875 -0.609375q0.828125 -0.609375 1.3125 -1.953125zm-6.9375 -3.40625l6.953125 0q-0.140625 -1.5625 -0.796875 -2.359375q-1.0 -1.21875 -2.609375 -1.21875q-1.453125 0 -2.453125 0.984375q-0.984375 0.96875 -1.09375 2.59375z" fill-rule="nonzero"/><path fill="#9fc5e8" d="m100.845146 531.20746l0 0c0 -3.786316 3.0694351 -6.855774 6.8557816 -6.855774l124.55615 0c1.8182678 0 3.5620575 0.7223511 4.847763 2.0080566c1.2857208 1.2857056 2.0080109 3.02948 2.0080109 4.8477173l0 27.422302c0 3.786377 -3.0694275 6.855774 -6.855774 6.855774l-124.55615 0c-3.7863464 0 -6.8557816 -3.069397 -6.8557816 -6.855774z" fill-rule="evenodd"/><path stroke="#000000" stroke-width="1.0" stroke-linejoin="round" stroke-linecap="butt" d="m100.845146 531.20746l0 0c0 -3.786316 3.0694351 -6.855774 6.8557816 -6.855774l124.55615 0c1.8182678 0 3.5620575 0.7223511 4.847763 2.0080566c1.2857208 1.2857056 2.0080109 3.02948 2.0080109 4.8477173l0 27.422302c0 3.786377 -3.0694275 6.855774 -6.855774 6.855774l-124.55615 0c-3.7863464 0 -6.8557816 -3.069397 -6.8557816 -6.855774z" fill-rule="evenodd"/><path fill="#000000" d="m155.1919 553.4586l-3.796875 -12.453125l2.171875 0l1.984375 7.1875l0.734375 2.671875q0.046875 -0.203125 0.640625 -2.5625l1.984375 -7.296875l2.171875 0l1.859375 7.21875l0.625 2.390625l0.71875 -2.40625l2.125 -7.203125l2.046875 0l-3.890625 12.453125l-2.1875 0l-1.984375 -7.453125l-0.46875 -2.125l-2.53125 9.578125l-2.203125 0zm15.019531 0l0 -12.453125l1.890625 0l0 1.890625q0.734375 -1.328125 1.34375 -1.75q0.625 -0.421875 1.359375 -0.421875q1.0625 0 2.171875 0.6875l-0.734375 1.953125q-0.765625 -0.453125 -1.546875 -0.453125q-0.6875 0 -1.25 0.421875q-0.546875 0.40625 -0.78125 1.140625q-0.34375 1.125 -0.34375 2.46875l0 6.515625l-2.109375 0zm8.0234375 0l0 -17.1875l2.109375 0l0 9.796875l5.0 -5.0625l2.71875 0l-4.75 4.625l5.234375 7.828125l-2.59375 0l-4.125 -6.359375l-1.484375 1.421875l0 4.9375l-2.109375 0z" fill-rule="nonzero"/><path fill="#000000" fill-opacity="0.0" d="m512.6089 545.3937c56.359924 0 84.53882 -52.204712 112.71991 -104.409424c28.181091 -52.204712 56.36444 -104.409454 112.72888 -104.409454" fill-rule="evenodd"/><path stroke="#ff0000" stroke-width="1.0" stroke-linejoin="round" stroke-linecap="butt" d="m512.6089 545.3937c56.359924 0 84.53882 -52.204712 112.71991 -104.409424c14.090515 -26.102356 28.18164 -52.204712 45.795654 -71.781494c8.807068 -9.788391 18.494812 -17.945374 29.503601 -23.655273c5.5043335 -2.85495 11.338989 -5.098114 17.558899 -6.627533c3.1099854 -0.76474 6.316223 -1.3510132 9.625732 -1.7461243c0.8273926 -0.0987854 1.6612549 -0.18560791 2.501648 -0.26028442c0.42016602 -0.037322998 0.84198 -0.071624756 1.2655029 -0.102874756l0.4812622 -0.033691406" fill-rule="evenodd"/><path fill="#ff0000" stroke="#ff0000" stroke-width="1.0" stroke-linecap="butt" d="m732.1167 338.42776l4.4799194 -1.8037109l-4.5911865 -1.4978943z" fill-rule="evenodd"/><path fill="#000000" fill-opacity="0.0" d="m512.6089 545.3937c56.359924 0 84.53882 -26.236206 112.71991 -52.472412c28.181091 -26.236237 56.36444 -52.472443 112.72888 -52.472443" fill-rule="evenodd"/><path stroke="#ff0000" stroke-width="1.0" stroke-linejoin="round" stroke-linecap="butt" d="m512.6089 545.3937c56.359924 0 84.53882 -26.236206 112.71991 -52.472412c14.090515 -13.118103 28.18164 -26.236237 45.795654 -36.0748c8.807068 -4.9193115 18.494812 -9.018707 29.503601 -11.888306c5.5043335 -1.4347839 11.338989 -2.5621338 17.558899 -3.33078c3.1099854 -0.38430786 6.316223 -0.67892456 9.625732 -0.87750244c0.8273926 -0.0496521 1.6612549 -0.09329224 2.501648 -0.13082886c0.42016602 -0.018737793 0.84198 -0.036010742 1.2655029 -0.051696777l0.47869873 -0.015930176" fill-rule="evenodd"/><path fill="#ff0000" stroke="#ff0000" stroke-width="1.0" stroke-linecap="butt" d="m732.0868 442.2029l4.5091553 -1.7290955l-4.565674 -1.573883z" fill-rule="evenodd"/><path fill="#000000" fill-opacity="0.0" d="m512.6089 545.3937c56.359924 0 84.53882 -0.11810303 112.71991 -0.23620605c28.181091 -0.11810303 56.36444 -0.23620605 112.72888 -0.23620605" fill-rule="evenodd"/><path stroke="#ff0000" stroke-width="1.0" stroke-linejoin="round" stroke-linecap="butt" d="m512.6089 545.3937c56.359924 0 84.53882 -0.11810303 112.71991 -0.23620605c14.090515 -0.059020996 28.18164 -0.11810303 45.795654 -0.16241455c8.807068 -0.022094727 18.494812 -0.04058838 29.503601 -0.053466797c5.5043335 -0.0064697266 11.338989 -0.0115356445 17.558899 -0.015014648l13.870728 -0.0037231445" fill-rule="evenodd"/><path fill="#ff0000" stroke="#ff0000" stroke-width="1.0" stroke-linecap="butt" d="m732.0581 546.5746l4.5376587 -1.6529541l-4.538574 -1.6505127z" fill-rule="evenodd"/><path fill="#ffffff" d="m417.2073 531.68256l0 0c0 -3.786377 3.0694275 -6.855774 6.855774 -6.855774l81.69003 0c1.8182678 0 3.5620422 0.72229004 4.847748 2.0079956c1.2857056 1.2857056 2.0080261 3.02948 2.0080261 4.8477783l0 27.422302c0 3.786316 -3.0694275 6.855774 -6.855774 6.855774l-81.69003 0c-3.7863464 0 -6.855774 -3.069458 -6.855774 -6.855774z" fill-rule="evenodd"/><path stroke="#000000" stroke-width="1.0" stroke-linejoin="round" stroke-linecap="butt" d="m417.2073 531.68256l0 0c0 -3.786377 3.0694275 -6.855774 6.855774 -6.855774l81.69003 0c1.8182678 0 3.5620422 0.72229004 4.847748 2.0079956c1.2857056 1.2857056 2.0080261 3.02948 2.0080261 4.8477783l0 27.422302c0 3.786316 -3.0694275 6.855774 -6.855774 6.855774l-81.69003 0c-3.7863464 0 -6.855774 -3.069458 -6.855774 -6.855774z" fill-rule="evenodd"/><path fill="#000000" d="m445.162 539.1837l0 -2.4375l2.109375 0l0 2.4375l-2.109375 0zm0 14.75l0 -12.453125l2.109375 0l0 12.453125l-2.109375 0zm5.3164062 4.765625l0 -17.21875l1.921875 0l0 1.625q0.6875 -0.953125 1.53125 -1.421875q0.859375 -0.484375 2.078125 -0.484375q1.59375 0 2.8125 0.828125q1.21875 0.8125 1.84375 2.3125q0.625 1.5 0.625 3.28125q0 1.90625 -0.6875 3.4375q-0.6875 1.53125 -2.0 2.34375q-1.296875 0.8125 -2.734375 0.8125q-1.0625 0 -1.90625 -0.4375q-0.828125 -0.453125 -1.375 -1.140625l0 6.0625l-2.109375 0zm1.921875 -10.921875q0 2.40625 0.96875 3.5625q0.96875 1.140625 2.359375 1.140625q1.40625 0 2.40625 -1.1875q1.0 -1.1875 1.0 -3.6875q0 -2.375 -0.984375 -3.5625q-0.96875 -1.1875 -2.328125 -1.1875q-1.359375 0 -2.390625 1.265625q-1.03125 1.25 -1.03125 3.65625zm14.894531 6.15625l-4.734375 -12.453125l2.21875 0l2.671875 7.453125q0.4375 1.21875 0.796875 2.515625q0.28125 -0.984375 0.78125 -2.375l2.765625 -7.59375l2.171875 0l-4.703125 12.453125l-1.96875 0zm7.6875 -3.71875l2.09375 -0.328125q0.171875 1.25 0.96875 1.921875q0.8125 0.671875 2.25 0.671875q1.453125 0 2.15625 -0.59375q0.703125 -0.59375 0.703125 -1.390625q0 -0.71875 -0.625 -1.125q-0.421875 -0.28125 -2.15625 -0.71875q-2.3125 -0.578125 -3.21875 -1.0q-0.890625 -0.4375 -1.359375 -1.1875q-0.453125 -0.765625 -0.453125 -1.671875q0 -0.828125 0.375 -1.53125q0.390625 -0.71875 1.046875 -1.1875q0.484375 -0.359375 1.328125 -0.609375q0.859375 -0.265625 1.828125 -0.265625q1.46875 0 2.578125 0.421875q1.109375 0.421875 1.625 1.15625q0.53125 0.71875 0.734375 1.921875l-2.0625 0.28125q-0.140625 -0.96875 -0.8125 -1.5q-0.671875 -0.546875 -1.90625 -0.546875q-1.453125 0 -2.078125 0.484375q-0.625 0.484375 -0.625 1.125q0 0.40625 0.265625 0.734375q0.25 0.34375 0.8125 0.5625q0.3125 0.125 1.859375 0.546875q2.234375 0.59375 3.109375 0.984375q0.890625 0.375 1.390625 1.109375q0.515625 0.71875 0.515625 1.796875q0 1.046875 -0.625 1.984375q-0.609375 0.9375 -1.765625 1.453125q-1.15625 0.5 -2.625 0.5q-2.421875 0 -3.703125 -1.0q-1.265625 -1.015625 -1.625 -3.0z" fill-rule="nonzero"/><path fill="#000000" fill-opacity="0.0" d="m544.4383 472.67288c48.402588 0 72.60431 -34.02362 96.805115 -68.04724c24.200806 -34.02362 48.400635 -68.04724 96.80121 -68.04724" fill-rule="evenodd"/><path stroke="#00c400" stroke-width="1.0" stroke-linejoin="round" stroke-linecap="butt" d="m544.4383 472.6729c48.402588 0 72.60431 -34.02362 96.805115 -68.04724c12.100403 -17.01184 24.2005 -34.02365 39.325684 -46.7825c7.562561 -6.379425 15.881348 -11.695618 25.334534 -15.416962c4.7266235 -1.8606873 9.736877 -3.3226013 15.077942 -4.3194275c2.6704712 -0.49838257 5.423767 -0.88049316 8.265625 -1.1380005c0.71051025 -0.06436157 1.4265137 -0.12094116 2.1481323 -0.1696167l0.65197754 -0.040222168" fill-rule="evenodd"/><path fill="#00c400" stroke="#00c400" stroke-width="1.0" stroke-linecap="butt" d="m732.09705 338.4099l4.486328 -1.7875366l-4.5857544 -1.5144348z" fill-rule="evenodd"/><path fill="#000000" fill-opacity="0.0" d="m544.4383 472.67288c48.402588 0 72.60431 -8.062988 96.805115 -16.125977c24.200806 -8.062988 48.400635 -16.125977 96.80121 -16.125977" fill-rule="evenodd"/><path stroke="#00c400" stroke-width="1.0" stroke-linejoin="round" stroke-linecap="butt" d="m544.4383 472.6729c48.402588 0 72.60431 -8.063019 96.805115 -16.126007c12.100403 -4.031494 24.2005 -8.062988 39.325684 -11.086609c7.562561 -1.5118103 15.881348 -2.771637 25.334534 -3.653534c4.7266235 -0.4409485 9.736877 -0.78741455 15.077942 -1.0236206c2.6704712 -0.11810303 5.423767 -0.2086792 8.265625 -0.26968384c0.71051025 -0.015258789 1.4265137 -0.028686523 2.1481323 -0.04019165l0.6494751 -0.008605957" fill-rule="evenodd"/><path fill="#00c400" stroke="#00c400" stroke-width="1.0" stroke-linecap="butt" d="m732.0568 442.11633l4.52594 -1.6847534l-4.549988 -1.6186218z" fill-rule="evenodd"/><path fill="#000000" fill-opacity="0.0" d="m544.4383 472.67288c48.402588 0 72.60431 18.062988 96.805115 36.125977c24.200806 18.063019 48.400635 36.126007 96.80121 36.126007" fill-rule="evenodd"/><path stroke="#00c400" stroke-width="1.0" stroke-linejoin="round" stroke-linecap="butt" d="m544.4383 472.6729c48.402588 0 72.60431 18.062988 96.805115 36.125977c12.100403 9.031494 24.2005 18.062988 39.325684 24.836609c7.562561 3.3868408 15.881348 6.2091675 25.334534 8.184814c4.7266235 0.98779297 9.736877 1.763916 15.077942 2.2931519c2.6704712 0.2645874 5.423767 0.46746826 8.265625 0.604126c0.71051025 0.034179688 1.4265137 0.064208984 2.1481323 0.09008789l0.6500244 0.021240234" fill-rule="evenodd"/><path fill="#00c400" stroke="#00c400" stroke-width="1.0" stroke-linecap="butt" d="m732.019 546.48047l4.563904 -1.5789795l-4.5111084 -1.72406z" fill-rule="evenodd"/><path fill="#000000" fill-opacity="0.0" d="m512.60895 409.93964c56.359924 0 84.53876 -18.346466 112.71985 -36.692932c28.181152 -18.346436 56.364502 -36.6929 112.72894 -36.6929" fill-rule="evenodd"/><path stroke="#0000ff" stroke-width="1.0" stroke-linejoin="round" stroke-linecap="butt" d="m512.60895 409.93964c56.359924 0 84.53876 -18.346466 112.71985 -36.692932c14.090576 -9.173218 28.181702 -18.346436 45.795715 -25.226349c8.807068 -3.439972 18.494751 -6.30661 29.50354 -8.313263c5.5043945 -1.0032959 11.33905 -1.791626 17.55896 -2.329132c3.1099854 -0.2687378 6.316284 -0.47479248 9.625732 -0.61361694c0.8274536 -0.034729004 1.6612549 -0.06524658 2.501648 -0.0914917c0.42016602 -0.013122559 0.84191895 -0.025177002 1.2655029 -0.03616333l0.47827148 -0.011138916" fill-rule="evenodd"/><path fill="#0000ff" stroke="#0000ff" stroke-width="1.0" stroke-linecap="butt" d="m732.07794 338.27716l4.5180054 -1.7058716l-4.557556 -1.5973511z" fill-rule="evenodd"/><path fill="#000000" fill-opacity="0.0" d="m512.60895 409.93964c56.359924 0 84.53876 7.62204 112.71985 15.24408c28.181152 7.6220703 56.364502 15.24411 112.72894 15.24411" fill-rule="evenodd"/><path stroke="#0000ff" stroke-width="1.0" stroke-linejoin="round" stroke-linecap="butt" d="m512.60895 409.93964c56.359924 0 84.53876 7.62204 112.71985 15.24408c14.090576 3.8110352 28.181702 7.6220703 45.795715 10.480316c8.807068 1.4291382 18.494751 2.6200867 29.50354 3.4537354c5.5043945 0.4168396 11.33905 0.74435425 17.55896 0.96765137c3.1099854 0.11166382 6.316284 0.19726562 9.625732 0.25491333c0.8274536 0.014434814 1.6612549 0.027130127 2.501648 0.038024902l1.7434082 0.018798828" fill-rule="evenodd"/><path fill="#0000ff" stroke="#0000ff" stroke-width="1.0" stroke-linecap="butt" d="m732.0494 442.04886l4.546509 -1.6285095l-4.529602 -1.6749268z" fill-rule="evenodd"/><path fill="#000000" fill-opacity="0.0" d="m512.60895 409.93964c56.359924 0 84.53876 33.748016 112.71985 67.49606c28.181152 33.748016 56.364502 67.49606 112.72894 67.49606" fill-rule="evenodd"/><path stroke="#0000ff" stroke-width="1.0" stroke-linejoin="round" stroke-linecap="butt" d="m512.60895 409.93964c56.359924 0 84.53876 33.748016 112.71985 67.49606c14.090576 16.874023 28.181702 33.748016 45.795715 46.403534c8.807068 6.327759 18.494751 11.600891 29.50354 15.292053c5.5043945 1.8456421 11.33905 3.2957153 17.55896 4.284424c3.1099854 0.49438477 6.316284 0.87335205 9.625732 1.1287842c0.8274536 0.06384277 1.6612549 0.11999512 2.501648 0.16827393c0.42016602 0.024169922 0.84191895 0.046325684 1.2655029 0.06652832l0.47930908 0.020507812" fill-rule="evenodd"/><path fill="#0000ff" stroke="#0000ff" stroke-width="1.0" stroke-linecap="butt" d="m732.0229 546.4512l4.573303 -1.5515747l-4.5006714 -1.7510986z" fill-rule="evenodd"/><path fill="#000000" fill-opacity="0.0" d="m239.11285 544.91864c44.524017 0 66.78421 -33.748047 89.048004 -67.49606c22.263763 -33.748047 44.531128 -67.49606 89.062225 -67.49606" fill-rule="evenodd"/><path stroke="#0000ff" stroke-width="1.0" stroke-linejoin="round" stroke-linecap="butt" d="m239.11285 544.91864c44.523987 0 66.78424 -33.748047 89.048004 -67.49606c11.131866 -16.874023 22.264679 -33.748047 36.180847 -46.403534c6.95813 -6.327759 14.612091 -11.600891 23.309692 -15.292084c4.348816 -1.8456116 8.958557 -3.2956848 13.872681 -4.284424c2.4570618 -0.49438477 4.990204 -0.87335205 7.604889 -1.1287537c0.6536865 -0.06387329 1.3124695 -0.11999512 1.9763794 -0.16827393l0.12142944 -0.008087158" fill-rule="evenodd"/><path fill="#0000ff" stroke="#0000ff" stroke-width="1.0" stroke-linecap="butt" d="m411.28485 411.78812l4.477234 -1.8102112l-4.5933533 -1.4912109z" fill-rule="evenodd"/><path fill="#000000" fill-opacity="0.0" d="m239.11285 544.91864c36.567657 0 54.851868 -18.062988 73.135315 -36.125977c18.283478 -18.063019 36.566223 -36.126007 73.132416 -36.126007" fill-rule="evenodd"/><path stroke="#00c400" stroke-width="1.0" stroke-linejoin="round" stroke-linecap="butt" d="m239.11285 544.91864c36.567688 0 54.851868 -18.062988 73.135315 -36.125977c9.141724 -9.031494 18.283295 -18.063019 29.710175 -24.83664c5.71344 -3.3868103 11.99823 -6.209137 19.140045 -8.184784c3.5708923 -0.9878235 7.3560486 -1.7639465 11.391205 -2.2931519c2.0175476 -0.2645874 4.097595 -0.46746826 6.244629 -0.6041565l0.6487427 -0.038635254" fill-rule="evenodd"/><path fill="#00c400" stroke="#00c400" stroke-width="1.0" stroke-linecap="butt" d="m379.42935 474.48636l4.4898987 -1.778595l-4.582733 -1.5235596z" fill-rule="evenodd"/><path fill="#000000" fill-opacity="0.0" d="m239.11285 544.91864c44.523254 0 66.78665 0.11810303 89.04651 0.23620605c22.259827 0.11810303 44.516113 0.23620605 89.03223 0.23620605" fill-rule="evenodd"/><path stroke="#ff0000" stroke-width="1.0" stroke-linejoin="round" stroke-linecap="butt" d="m239.11285 544.91864c44.523254 0 66.78665 0.11810303 89.04648 0.23620605c11.129944 0.05908203 22.258972 0.11810303 36.170074 0.16241455c6.9555054 0.022155762 14.606537 0.04058838 23.300964 0.053527832c4.3471985 0.0064086914 8.955261 0.0115356445 13.867615 0.015014648l9.6936035 0.0032348633" fill-rule="evenodd"/><path fill="#ff0000" stroke="#ff0000" stroke-width="1.0" stroke-linecap="butt" d="m411.19104 547.0408l4.538666 -1.6502075l-4.5375366 -1.6532593z" fill-rule="evenodd"/><path fill="#000000" fill-opacity="0.0" d="m454.74802 342.59842l87.93704 0l0 22.11023l-87.93704 0z" fill-rule="evenodd"/><path fill="#000000" d="m465.32614 362.19354l0 -12.453125l1.90625 0l0 1.78125q1.375 -2.0625 3.953125 -2.0625q1.125 0 2.0625 0.40625q0.953125 0.40625 1.421875 1.0625q0.46875 0.65625 0.65625 1.5625q0.125 0.578125 0.125 2.046875l0 7.65625l-2.109375 0l0 -7.578125q0 -1.28125 -0.25 -1.921875q-0.25 -0.640625 -0.875 -1.015625q-0.625 -0.390625 -1.46875 -0.390625q-1.34375 0 -2.328125 0.859375q-0.984375 0.859375 -0.984375 3.25l0 6.796875l-2.109375 0zm12.566406 -6.21875q0 -3.46875 1.921875 -5.125q1.609375 -1.390625 3.921875 -1.390625q2.5625 0 4.1875 1.6875q1.625 1.6875 1.625 4.640625q0 2.40625 -0.71875 3.78125q-0.71875 1.375 -2.09375 2.140625q-1.375 0.765625 -3.0 0.765625q-2.625 0 -4.234375 -1.671875q-1.609375 -1.6875 -1.609375 -4.828125zm2.171875 0q0 2.390625 1.03125 3.578125q1.046875 1.1875 2.640625 1.1875q1.5625 0 2.609375 -1.1875q1.046875 -1.203125 1.046875 -3.65625q0 -2.3125 -1.0625 -3.5q-1.046875 -1.1875 -2.59375 -1.1875q-1.59375 0 -2.640625 1.1875q-1.03125 1.1875 -1.03125 3.578125zm20.035156 6.21875l0 -1.578125q-1.1875 1.859375 -3.484375 1.859375q-1.484375 0 -2.734375 -0.8125q-1.25 -0.828125 -1.9375 -2.296875q-0.671875 -1.46875 -0.671875 -3.390625q0 -1.859375 0.609375 -3.375q0.625 -1.515625 1.859375 -2.328125q1.25 -0.8125 2.78125 -0.8125q1.125 0 2.0 0.484375q0.890625 0.46875 1.4375 1.234375l0 -6.171875l2.09375 0l0 17.1875l-1.953125 0zm-6.671875 -6.21875q0 2.390625 1.0 3.578125q1.015625 1.1875 2.390625 1.1875q1.390625 0 2.34375 -1.125q0.96875 -1.140625 0.96875 -3.453125q0 -2.5625 -0.984375 -3.75q-0.984375 -1.203125 -2.421875 -1.203125q-1.40625 0 -2.359375 1.15625q-0.9375 1.140625 -0.9375 3.609375zm20.472687 2.203125l2.171875 0.28125q-0.515625 1.90625 -1.90625 2.96875q-1.390625 1.046875 -3.5625305 1.046875q-2.734375 0 -4.34375 -1.671875q-1.59375 -1.6875 -1.59375 -4.734375q0 -3.140625 1.609375 -4.875q1.625 -1.734375 4.203125 -1.734375q2.5000305 0 4.0781555 1.703125q1.59375 1.703125 1.59375 4.78125q0 0.1875 -0.015625 0.5625l-9.2812805 0q0.109375 2.046875 1.15625 3.140625q1.046875 1.09375 2.609375 1.09375q1.15625 0 1.9687805 -0.609375q0.828125 -0.609375 1.3125 -1.953125zm-6.9375305 -3.40625l6.9531555 0q-0.140625 -1.5625 -0.796875 -2.359375q-1.0 -1.21875 -2.6094055 -1.21875q-1.453125 0 -2.453125 0.984375q-0.984375 0.96875 -1.09375 2.59375z" fill-rule="nonzero"/><path fill="#ffffff" d="m417.20734 396.2285l0 0c0 -3.7863464 3.069458 -6.855774 6.8558044 -6.855774l81.69 0c1.8182678 0 3.5620728 0.72229004 4.8477783 2.0079956c1.2857056 1.2857056 2.0080261 3.0295105 2.0080261 4.8477783l0 27.422302c0 3.7863464 -3.069458 6.855774 -6.8558044 6.855774l-81.69 0c-3.7863464 0 -6.8558044 -3.0694275 -6.8558044 -6.855774z" fill-rule="evenodd"/><path stroke="#000000" stroke-width="1.0" stroke-linejoin="round" stroke-linecap="butt" d="m417.20734 396.2285l0 0c0 -3.7863464 3.069458 -6.855774 6.8558044 -6.855774l81.69 0c1.8182678 0 3.5620728 0.72229004 4.8477783 2.0079956c1.2857056 1.2857056 2.0080261 3.0295105 2.0080261 4.8477783l0 27.422302c0 3.7863464 -3.069458 6.855774 -6.8558044 6.855774l-81.69 0c-3.7863464 0 -6.8558044 -3.0694275 -6.8558044 -6.855774z" fill-rule="evenodd"/><path fill="#000000" d="m437.79877 418.47964l0 -12.453125l1.90625 0l0 1.78125q1.375 -2.0625 3.953125 -2.0625q1.125 0 2.0625 0.40625q0.953125 0.40625 1.421875 1.0625q0.46875 0.65625 0.65625 1.5625q0.125 0.578125 0.125 2.046875l0 7.65625l-2.109375 0l0 -7.578125q0 -1.28125 -0.25 -1.921875q-0.25 -0.640625 -0.875 -1.015625q-0.625 -0.390625 -1.46875 -0.390625q-1.34375 0 -2.328125 0.859375q-0.984375 0.859375 -0.984375 3.25l0 6.796875l-2.109375 0zm12.972656 1.03125l2.046875 0.3125q0.125 0.9375 0.71875 1.375q0.78125 0.59375 2.140625 0.59375q1.46875 0 2.265625 -0.59375q0.796875 -0.578125 1.078125 -1.640625q0.15625 -0.640625 0.140625 -2.703125q-1.375 1.625 -3.4375 1.625q-2.5625 0 -3.96875 -1.84375q-1.40625 -1.859375 -1.40625 -4.453125q0 -1.78125 0.640625 -3.28125q0.640625 -1.515625 1.859375 -2.328125q1.234375 -0.828125 2.890625 -0.828125q2.203125 0 3.625 1.78125l0 -1.5l1.953125 0l0 10.765625q0 2.90625 -0.59375 4.109375q-0.59375 1.21875 -1.875 1.921875q-1.28125 0.703125 -3.15625 0.703125q-2.234375 0 -3.609375 -1.0q-1.359375 -1.0 -1.3125 -3.015625zm1.734375 -7.484375q0 2.453125 0.96875 3.578125q0.984375 1.125 2.453125 1.125q1.453125 0 2.4375 -1.109375q0.984375 -1.125 0.984375 -3.515625q0 -2.28125 -1.015625 -3.4375q-1.015625 -1.171875 -2.453125 -1.171875q-1.40625 0 -2.390625 1.140625q-0.984375 1.140625 -0.984375 3.390625zm12.003906 -8.296875l0 -2.4375l2.109375 0l0 2.4375l-2.109375 0zm0 14.75l0 -12.453125l2.109375 0l0 12.453125l-2.109375 0zm5.3164062 0l0 -12.453125l1.90625 0l0 1.78125q1.375 -2.0625 3.953125 -2.0625q1.125 0 2.0625 0.40625q0.953125 0.40625 1.421875 1.0625q0.46875 0.65625 0.65625 1.5625q0.125 0.578125 0.125 2.046875l0 7.65625l-2.109375 0l0 -7.578125q0 -1.28125 -0.25 -1.921875q-0.25 -0.640625 -0.875 -1.015625q-0.625 -0.390625 -1.46875 -0.390625q-1.34375 0 -2.328125 0.859375q-0.984375 0.859375 -0.984375 3.25l0 6.796875l-2.109375 0zm11.941406 0l4.546875 -6.46875l-4.203125 -5.984375l2.640625 0l1.90625 2.921875q0.546875 0.828125 0.875 1.390625q0.515625 -0.765625 0.9375 -1.359375l2.109375 -2.953125l2.515625 0l-4.296875 5.859375l4.625 6.59375l-2.59375 0l-2.546875 -3.875l-0.6875 -1.03125l-3.265625 4.90625l-2.5625 0z" fill-rule="nonzero"/><path fill="#000000" fill-opacity="0.0" d="m57.031498 484.34122l219.52756 0l0 22.11023l-219.52756 0z" fill-rule="evenodd"/><path fill="#000000" d="m67.79712 503.9363l0 -17.1875l6.4375 0q1.96875 0 3.15625 0.53125q1.1875 0.515625 1.859375 1.609375q0.6875 1.078125 0.6875 2.265625q0 1.09375 -0.609375 2.078125q-0.59375 0.96875 -1.796875 1.5625q1.5625 0.453125 2.390625 1.5625q0.84375 1.09375 0.84375 2.59375q0 1.203125 -0.515625 2.25q-0.5 1.03125 -1.25 1.59375q-0.75 0.5625 -1.890625 0.859375q-1.125 0.28125 -2.765625 0.28125l-6.546875 0zm2.265625 -9.96875l3.71875 0q1.515625 0 2.171875 -0.1875q0.859375 -0.265625 1.296875 -0.859375q0.4375 -0.59375 0.4375 -1.5q0 -0.859375 -0.40625 -1.5q-0.40625 -0.65625 -1.171875 -0.890625q-0.765625 -0.25 -2.609375 -0.25l-3.4375 0l0 5.1875zm0 7.9375l4.28125 0q1.09375 0 1.546875 -0.078125q0.78125 -0.140625 1.3125 -0.46875q0.53125 -0.328125 0.859375 -0.953125q0.34375 -0.625 0.34375 -1.453125q0 -0.953125 -0.5 -1.65625q-0.484375 -0.71875 -1.359375 -1.0q-0.875 -0.296875 -2.515625 -0.296875l-3.96875 0l0 5.90625zm22.085938 -1.984375l2.171875 0.28125q-0.515625 1.90625 -1.90625 2.96875q-1.390625 1.046875 -3.5625 1.046875q-2.734375 0 -4.34375 -1.671875q-1.59375 -1.6875 -1.59375 -4.734375q0 -3.140625 1.609375 -4.875q1.625 -1.734375 4.203125 -1.734375q2.5 0 4.078125 1.703125q1.59375 1.703125 1.59375 4.78125q0 0.1875 -0.015625 0.5625l-9.28125 0q0.109375 2.046875 1.15625 3.140625q1.046875 1.09375 2.609375 1.09375q1.15625 0 1.96875 -0.609375q0.828125 -0.609375 1.3125 -1.953125zm-6.9375 -3.40625l6.953125 0q-0.140625 -1.5625 -0.796875 -2.359375q-1.0 -1.21875 -2.609375 -1.21875q-1.453125 0 -2.453125 0.984375q-0.984375 0.96875 -1.09375 2.59375zm11.753906 7.421875l0 -12.453125l1.90625 0l0 1.78125q1.375 -2.0625 3.953125 -2.0625q1.125 0 2.0625 0.40625q0.953125 0.40625 1.421875 1.0625q0.46875 0.65625 0.65625 1.5625q0.125 0.578125 0.125 2.046875l0 7.65625l-2.109375 0l0 -7.578125q0 -1.28125 -0.25 -1.921875q-0.25 -0.640625 -0.875 -1.015625q-0.625 -0.390625 -1.46875 -0.390625q-1.34375 0 -2.328125 0.859375q-0.984375 0.859375 -0.984375 3.25l0 6.796875l-2.109375 0zm21.472656 -4.5625l2.078125 0.265625q-0.34375 2.15625 -1.75 3.375q-1.390625 1.203125 -3.4375 1.203125q-2.546875 0 -4.109375 -1.671875q-1.546875 -1.671875 -1.546875 -4.78125q0 -2.015625 0.671875 -3.53125q0.671875 -1.515625 2.03125 -2.265625q1.359375 -0.765625 2.96875 -0.765625q2.03125 0 3.3125 1.03125q1.296875 1.03125 1.65625 2.90625l-2.046875 0.328125q-0.296875 -1.265625 -1.046875 -1.890625q-0.734375 -0.640625 -1.796875 -0.640625q-1.59375 0 -2.59375 1.15625q-0.984375 1.140625 -0.984375 3.609375q0 2.5 0.953125 3.640625q0.96875 1.140625 2.515625 1.140625q1.234375 0 2.0625 -0.765625q0.84375 -0.765625 1.0625 -2.34375zm3.875 4.5625l0 -17.1875l2.109375 0l0 6.171875q1.484375 -1.71875 3.734375 -1.71875q1.375 0 2.390625 0.546875q1.03125 0.546875 1.46875 1.515625q0.4375 0.953125 0.4375 2.78125l0 7.890625l-2.109375 0l0 -7.890625q0 -1.578125 -0.6875 -2.296875q-0.6875 -0.71875 -1.9375 -0.71875q-0.9375 0 -1.765625 0.484375q-0.828125 0.484375 -1.1875 1.3125q-0.34375 0.828125 -0.34375 2.296875l0 6.8125l-2.109375 0zm13.347656 0l0 -12.453125l1.890625 0l0 1.75q0.59375 -0.90625 1.5625 -1.46875q0.96875 -0.5625 2.21875 -0.5625q1.375 0 2.25 0.578125q0.890625 0.578125 1.265625 1.609375q1.46875 -2.1875 3.84375 -2.1875q1.84375 0 2.84375 1.03125q1.0 1.03125 1.0 3.15625l0 8.546875l-2.109375 0l0 -7.84375q0 -1.265625 -0.203125 -1.8125q-0.203125 -0.5625 -0.75 -0.90625q-0.53125 -0.34375 -1.25 -0.34375q-1.3125 0 -2.1875 0.875q-0.859375 0.875 -0.859375 2.796875l0 7.234375l-2.109375 0l0 -8.09375q0 -1.40625 -0.515625 -2.109375q-0.515625 -0.703125 -1.6875 -0.703125q-0.890625 0 -1.65625 0.46875q-0.75 0.46875 -1.09375 1.375q-0.34375 0.90625 -0.34375 2.609375l0 6.453125l-2.109375 0zm28.117188 -1.53125q-1.171875 0.984375 -2.265625 1.40625q-1.078125 0.40625 -2.3125 0.40625q-2.046875 0 -3.15625 -1.0q-1.09375 -1.0 -1.09375 -2.5625q0 -0.921875 0.40625 -1.671875q0.421875 -0.75 1.09375 -1.203125q0.671875 -0.46875 1.515625 -0.703125q0.625 -0.15625 1.875 -0.3125q2.5625 -0.3125 3.765625 -0.734375q0.015625 -0.421875 0.015625 -0.546875q0 -1.28125 -0.609375 -1.8125q-0.796875 -0.71875 -2.390625 -0.71875q-1.5 0 -2.203125 0.53125q-0.703125 0.515625 -1.046875 1.84375l-2.0625 -0.28125q0.28125 -1.328125 0.921875 -2.140625q0.640625 -0.8125 1.859375 -1.25q1.21875 -0.453125 2.828125 -0.453125q1.59375 0 2.59375 0.375q1.0 0.375 1.46875 0.953125q0.46875 0.5625 0.65625 1.4375q0.09375 0.53125 0.09375 1.9375l0 2.8125q0 2.9375 0.140625 3.71875q0.140625 0.78125 0.53125 1.5l-2.203125 0q-0.328125 -0.65625 -0.421875 -1.53125zm-0.171875 -4.71875q-1.15625 0.46875 -3.453125 0.796875q-1.296875 0.1875 -1.84375 0.421875q-0.53125 0.234375 -0.828125 0.6875q-0.28125 0.453125 -0.28125 1.0q0 0.84375 0.625 1.40625q0.640625 0.5625 1.875 0.5625q1.21875 0 2.171875 -0.53125q0.953125 -0.53125 1.390625 -1.453125q0.34375 -0.71875 0.34375 -2.109375l0 -0.78125zm5.3789062 6.25l0 -12.453125l1.890625 0l0 1.890625q0.734375 -1.328125 1.34375 -1.75q0.625 -0.421875 1.359375 -0.421875q1.0625 0 2.171875 0.6875l-0.734375 1.953125q-0.765625 -0.453125 -1.546875 -0.453125q-0.6875 0 -1.25 0.421875q-0.546875 0.40625 -0.78125 1.140625q-0.34375 1.125 -0.34375 2.46875l0 6.515625l-2.109375 0zm8.0234375 0l0 -17.1875l2.109375 0l0 9.796875l5.0 -5.0625l2.71875 0l-4.75 4.625l5.234375 7.828125l-2.59375 0l-4.125 -6.359375l-1.484375 1.421875l0 4.9375l-2.109375 0zm26.777344 -4.5625l2.078125 0.265625q-0.34375 2.15625 -1.75 3.375q-1.390625 1.203125 -3.4375 1.203125q-2.546875 0 -4.109375 -1.671875q-1.546875 -1.671875 -1.546875 -4.78125q0 -2.015625 0.671875 -3.53125q0.671875 -1.515625 2.03125 -2.265625q1.359375 -0.765625 2.96875 -0.765625q2.03125 0 3.3125 1.03125q1.296875 1.03125 1.65625 2.90625l-2.046875 0.328125q-0.296875 -1.265625 -1.046875 -1.890625q-0.734375 -0.640625 -1.796875 -0.640625q-1.59375 0 -2.59375 1.15625q-0.984375 1.140625 -0.984375 3.609375q0 2.5 0.953125 3.640625q0.96875 1.140625 2.515625 1.140625q1.234375 0 2.0625 -0.765625q0.84375 -0.765625 1.0625 -2.34375zm3.828125 4.5625l0 -17.1875l2.109375 0l0 17.1875l-2.109375 0zm5.3945312 -14.75l0 -2.4375l2.109375 0l0 2.4375l-2.109375 0zm0 14.75l0 -12.453125l2.109375 0l0 12.453125l-2.109375 0zm13.847656 -4.015625l2.171875 0.28125q-0.515625 1.90625 -1.90625 2.96875q-1.390625 1.046875 -3.5625 1.046875q-2.734375 0 -4.34375 -1.671875q-1.59375 -1.6875 -1.59375 -4.734375q0 -3.140625 1.609375 -4.875q1.625 -1.734375 4.203125 -1.734375q2.5 0 4.078125 1.703125q1.59375 1.703125 1.59375 4.78125q0 0.1875 -0.015625 0.5625l-9.28125 0q0.109375 2.046875 1.15625 3.140625q1.046875 1.09375 2.609375 1.09375q1.15625 0 1.96875 -0.609375q0.828125 -0.609375 1.3125 -1.953125zm-6.9375 -3.40625l6.953125 0q-0.140625 -1.5625 -0.796875 -2.359375q-1.0 -1.21875 -2.609375 -1.21875q-1.453125 0 -2.453125 0.984375q-0.984375 0.96875 -1.09375 2.59375zm11.753906 7.421875l0 -12.453125l1.90625 0l0 1.78125q1.375 -2.0625 3.953125 -2.0625q1.125 0 2.0625 0.40625q0.953125 0.40625 1.421875 1.0625q0.46875 0.65625 0.65625 1.5625q0.125 0.578125 0.125 2.046875l0 7.65625l-2.109375 0l0 -7.578125q0 -1.28125 -0.25 -1.921875q-0.25 -0.640625 -0.875 -1.015625q-0.625 -0.390625 -1.46875 -0.390625q-1.34375 0 -2.328125 0.859375q-0.984375 0.859375 -0.984375 3.25l0 6.796875l-2.109375 0zm17.957031 -1.890625l0.3125 1.859375q-0.890625 0.203125 -1.59375 0.203125q-1.15625 0 -1.796875 -0.359375q-0.625 -0.375 -0.890625 -0.96875q-0.25 -0.59375 -0.25 -2.484375l0 -7.171875l-1.546875 0l0 -1.640625l1.546875 0l0 -3.078125l2.09375 -1.265625l0 4.34375l2.125 0l0 1.640625l-2.125 0l0 7.28125q0 0.90625 0.109375 1.171875q0.125 0.25 0.375 0.40625q0.25 0.140625 0.71875 0.140625q0.34375 0 0.921875 -0.078125z" fill-rule="nonzero"/><path fill="#000000" fill-opacity="0.0" d="m643.2152 613.7034l225.44885 0l0 22.11023l-225.44885 0z" fill-rule="evenodd"/><path fill="#000000" d="m653.98083 633.2985l0 -17.1875l2.265625 0l0 8.53125l8.53125 -8.53125l3.078125 0l-7.203125 6.96875l7.53125 10.21875l-3.0 0l-6.125 -8.703125l-2.8125 2.75l0 5.953125l-2.265625 0zm23.976562 0l0 -1.828125q-1.453125 2.109375 -3.9375 2.109375q-1.109375 0 -2.0625 -0.421875q-0.953125 -0.421875 -1.421875 -1.0625q-0.453125 -0.640625 -0.640625 -1.5625q-0.140625 -0.625 -0.140625 -1.96875l0 -7.71875l2.109375 0l0 6.90625q0 1.65625 0.140625 2.234375q0.1875 0.828125 0.828125 1.3125q0.65625 0.46875 1.609375 0.46875q0.9375 0 1.765625 -0.484375q0.84375 -0.5 1.1875 -1.328125q0.34375 -0.84375 0.34375 -2.4375l0 -6.671875l2.109375 0l0 12.453125l-1.890625 0zm7.1445312 0l-1.953125 0l0 -17.1875l2.109375 0l0 6.140625q1.328125 -1.6875 3.40625 -1.6875q1.140625 0 2.171875 0.46875q1.03125 0.46875 1.6875 1.3125q0.65625 0.828125 1.03125 2.015625q0.375 1.171875 0.375 2.53125q0 3.1875 -1.578125 4.9375q-1.578125 1.75 -3.796875 1.75q-2.203125 0 -3.453125 -1.84375l0 1.5625zm-0.03125 -6.3125q0 2.234375 0.609375 3.234375q1.0 1.625 2.703125 1.625q1.375 0 2.375 -1.203125q1.015625 -1.203125 1.015625 -3.578125q0 -2.4375 -0.96875 -3.59375q-0.953125 -1.171875 -2.328125 -1.171875q-1.390625 0 -2.40625 1.203125q-1.0 1.203125 -1.0 3.484375zm19.957031 2.296875l2.171875 0.28125q-0.515625 1.90625 -1.90625 2.96875q-1.390625 1.046875 -3.5625 1.046875q-2.734375 0 -4.34375 -1.671875q-1.59375 -1.6875 -1.59375 -4.734375q0 -3.140625 1.609375 -4.875q1.625 -1.734375 4.203125 -1.734375q2.5 0 4.078125 1.703125q1.59375 1.703125 1.59375 4.78125q0 0.1875 -0.015625 0.5625l-9.28125 0q0.109375 2.046875 1.15625 3.140625q1.046875 1.09375 2.609375 1.09375q1.15625 0 1.96875 -0.609375q0.828125 -0.609375 1.3125 -1.953125zm-6.9375 -3.40625l6.953125 0q-0.140625 -1.5625 -0.796875 -2.359375q-1.0 -1.21875 -2.609375 -1.21875q-1.453125 0 -2.453125 0.984375q-0.984375 0.96875 -1.09375 2.59375zm11.738281 7.421875l0 -12.453125l1.890625 0l0 1.890625q0.734375 -1.328125 1.34375 -1.75q0.625 -0.421875 1.359375 -0.421875q1.0625 0 2.171875 0.6875l-0.734375 1.953125q-0.765625 -0.453125 -1.546875 -0.453125q-0.6875 0 -1.25 0.421875q-0.546875 0.40625 -0.78125 1.140625q-0.34375 1.125 -0.34375 2.46875l0 6.515625l-2.109375 0zm8.0078125 0l0 -12.453125l1.90625 0l0 1.78125q1.375 -2.0625 3.953125 -2.0625q1.125 0 2.0625 0.40625q0.953125 0.40625 1.421875 1.0625q0.46875 0.65625 0.65625 1.5625q0.125 0.578125 0.125 2.046875l0 7.65625l-2.109375 0l0 -7.578125q0 -1.28125 -0.25 -1.921875q-0.25 -0.640625 -0.875 -1.015625q-0.625 -0.390625 -1.46875 -0.390625q-1.34375 0 -2.328125 0.859375q-0.984375 0.859375 -0.984375 3.25l0 6.796875l-2.109375 0zm21.878906 -4.015625l2.171875 0.28125q-0.515625 1.90625 -1.90625 2.96875q-1.390625 1.046875 -3.5625 1.046875q-2.734375 0 -4.34375 -1.671875q-1.59375 -1.6875 -1.59375 -4.734375q0 -3.140625 1.609375 -4.875q1.625 -1.734375 4.203125 -1.734375q2.5 0 4.078125 1.703125q1.59375 1.703125 1.59375 4.78125q0 0.1875 -0.015625 0.5625l-9.28125 0q0.109375 2.046875 1.15625 3.140625q1.046875 1.09375 2.609375 1.09375q1.15625 0 1.96875 -0.609375q0.828125 -0.609375 1.3125 -1.953125zm-6.9375 -3.40625l6.953125 0q-0.140625 -1.5625 -0.796875 -2.359375q-1.0 -1.21875 -2.609375 -1.21875q-1.453125 0 -2.453125 0.984375q-0.984375 0.96875 -1.09375 2.59375zm16.363281 5.53125l0.3125 1.859375q-0.890625 0.203125 -1.59375 0.203125q-1.15625 0 -1.796875 -0.359375q-0.625 -0.375 -0.890625 -0.96875q-0.25 -0.59375 -0.25 -2.484375l0 -7.171875l-1.546875 0l0 -1.640625l1.546875 0l0 -3.078125l2.09375 -1.265625l0 4.34375l2.125 0l0 1.640625l-2.125 0l0 7.28125q0 0.90625 0.109375 1.171875q0.125 0.25 0.375 0.40625q0.25 0.140625 0.71875 0.140625q0.34375 0 0.921875 -0.078125zm10.589844 -2.125l2.171875 0.28125q-0.515625 1.90625 -1.90625 2.96875q-1.390625 1.046875 -3.5625 1.046875q-2.734375 0 -4.34375 -1.671875q-1.59375 -1.6875 -1.59375 -4.734375q0 -3.140625 1.609375 -4.875q1.625 -1.734375 4.203125 -1.734375q2.5 0 4.078125 1.703125q1.59375 1.703125 1.59375 4.78125q0 0.1875 -0.015625 0.5625l-9.28125 0q0.109375 2.046875 1.15625 3.140625q1.046875 1.09375 2.609375 1.09375q1.15625 0 1.96875 -0.609375q0.828125 -0.609375 1.3125 -1.953125zm-6.9375 -3.40625l6.953125 0q-0.140625 -1.5625 -0.796875 -2.359375q-1.0 -1.21875 -2.609375 -1.21875q-1.453125 0 -2.453125 0.984375q-0.984375 0.96875 -1.09375 2.59375zm10.910156 3.703125l2.09375 -0.328125q0.171875 1.25 0.96875 1.921875q0.8125 0.671875 2.25 0.671875q1.453125 0 2.15625 -0.59375q0.703125 -0.59375 0.703125 -1.390625q0 -0.71875 -0.625 -1.125q-0.421875 -0.28125 -2.15625 -0.71875q-2.3125 -0.578125 -3.21875 -1.0q-0.890625 -0.4375 -1.359375 -1.1875q-0.453125 -0.765625 -0.453125 -1.671875q0 -0.828125 0.375 -1.53125q0.390625 -0.71875 1.046875 -1.1875q0.484375 -0.359375 1.328125 -0.609375q0.859375 -0.265625 1.828125 -0.265625q1.46875 0 2.578125 0.421875q1.109375 0.421875 1.625 1.15625q0.53125 0.71875 0.734375 1.921875l-2.0625 0.28125q-0.140625 -0.96875 -0.8125 -1.5q-0.671875 -0.546875 -1.90625 -0.546875q-1.453125 0 -2.078125 0.484375q-0.625 0.484375 -0.625 1.125q0 0.40625 0.265625 0.734375q0.25 0.34375 0.8125 0.5625q0.3125 0.125 1.859375 0.546875q2.234375 0.59375 3.109375 0.984375q0.890625 0.375 1.390625 1.109375q0.515625 0.71875 0.515625 1.796875q0 1.046875 -0.625 1.984375q-0.609375 0.9375 -1.765625 1.453125q-1.15625 0.5 -2.625 0.5q-2.421875 0 -3.703125 -1.0q-1.265625 -1.015625 -1.625 -3.0zm27.636719 -0.84375l2.078125 0.265625q-0.34375 2.15625 -1.75 3.375q-1.390625 1.203125 -3.4375 1.203125q-2.546875 0 -4.109375 -1.671875q-1.546875 -1.671875 -1.546875 -4.78125q0 -2.015625 0.671875 -3.53125q0.671875 -1.515625 2.03125 -2.265625q1.359375 -0.765625 2.96875 -0.765625q2.03125 0 3.3125 1.03125q1.296875 1.03125 1.65625 2.90625l-2.046875 0.328125q-0.296875 -1.265625 -1.046875 -1.890625q-0.734375 -0.640625 -1.796875 -0.640625q-1.59375 0 -2.59375 1.15625q-0.984375 1.140625 -0.984375 3.609375q0 2.5 0.953125 3.640625q0.96875 1.140625 2.515625 1.140625q1.234375 0 2.0625 -0.765625q0.84375 -0.765625 1.0625 -2.34375zm3.828125 4.5625l0 -17.1875l2.109375 0l0 17.1875l-2.109375 0zm13.535156 0l0 -1.828125q-1.453125 2.109375 -3.9375 2.109375q-1.109375 0 -2.0625 -0.421875q-0.953125 -0.421875 -1.421875 -1.0625q-0.453125 -0.640625 -0.640625 -1.5625q-0.140625 -0.625 -0.140625 -1.96875l0 -7.71875l2.109375 0l0 6.90625q0 1.65625 0.140625 2.234375q0.1875 0.828125 0.828125 1.3125q0.65625 0.46875 1.609375 0.46875q0.9375 0 1.765625 -0.484375q0.84375 -0.5 1.1875 -1.328125q0.34375 -0.84375 0.34375 -2.4375l0 -6.671875l2.109375 0l0 12.453125l-1.890625 0zm4.3476562 -3.71875l2.09375 -0.328125q0.171875 1.25 0.96875 1.921875q0.8125 0.671875 2.25 0.671875q1.453125 0 2.15625 -0.59375q0.703125 -0.59375 0.703125 -1.390625q0 -0.71875 -0.625 -1.125q-0.421875 -0.28125 -2.15625 -0.71875q-2.3125 -0.578125 -3.21875 -1.0q-0.890625 -0.4375 -1.359375 -1.1875q-0.453125 -0.765625 -0.453125 -1.671875q0 -0.828125 0.375 -1.53125q0.390625 -0.71875 1.046875 -1.1875q0.484375 -0.359375 1.328125 -0.609375q0.859375 -0.265625 1.828125 -0.265625q1.46875 0 2.578125 0.421875q1.109375 0.421875 1.625 1.15625q0.53125 0.71875 0.734375 1.921875l-2.0625 0.28125q-0.140625 -0.96875 -0.8125 -1.5q-0.671875 -0.546875 -1.90625 -0.546875q-1.453125 0 -2.078125 0.484375q-0.625 0.484375 -0.625 1.125q0 0.40625 0.265625 0.734375q0.25 0.34375 0.8125 0.5625q0.3125 0.125 1.859375 0.546875q2.234375 0.59375 3.109375 0.984375q0.890625 0.375 1.390625 1.109375q0.515625 0.71875 0.515625 1.796875q0 1.046875 -0.625 1.984375q-0.609375 0.9375 -1.765625 1.453125q-1.15625 0.5 -2.625 0.5q-2.421875 0 -3.703125 -1.0q-1.265625 -1.015625 -1.625 -3.0zm17.453125 1.828125l0.3125 1.859375q-0.890625 0.203125 -1.59375 0.203125q-1.15625 0 -1.796875 -0.359375q-0.625 -0.375 -0.890625 -0.96875q-0.25 -0.59375 -0.25 -2.484375l0 -7.171875l-1.546875 0l0 -1.640625l1.546875 0l0 -3.078125l2.09375 -1.265625l0 4.34375l2.125 0l0 1.640625l-2.125 0l0 7.28125q0 0.90625 0.109375 1.171875q0.125 0.25 0.375 0.40625q0.25 0.140625 0.71875 0.140625q0.34375 0 0.921875 -0.078125zm10.589844 -2.125l2.171875 0.28125q-0.515625 1.90625 -1.90625 2.96875q-1.390625 1.046875 -3.5625 1.046875q-2.734375 0 -4.34375 -1.671875q-1.59375 -1.6875 -1.59375 -4.734375q0 -3.140625 1.609375 -4.875q1.625 -1.734375 4.203125 -1.734375q2.5 0 4.078125 1.703125q1.59375 1.703125 1.59375 4.78125q0 0.1875 -0.015625 0.5625l-9.28125 0q0.109375 2.046875 1.15625 3.140625q1.046875 1.09375 2.609375 1.09375q1.15625 0 1.96875 -0.609375q0.828125 -0.609375 1.3125 -1.953125zm-6.9375 -3.40625l6.953125 0q-0.140625 -1.5625 -0.796875 -2.359375q-1.0 -1.21875 -2.609375 -1.21875q-1.453125 0 -2.453125 0.984375q-0.984375 0.96875 -1.09375 2.59375zm11.738281 7.421875l0 -12.453125l1.890625 0l0 1.890625q0.734375 -1.328125 1.34375 -1.75q0.625 -0.421875 1.359375 -0.421875q1.0625 0 2.171875 0.6875l-0.734375 1.953125q-0.765625 -0.453125 -1.546875 -0.453125q-0.6875 0 -1.25 0.421875q-0.546875 0.40625 -0.78125 1.140625q-0.34375 1.125 -0.34375 2.46875l0 6.515625l-2.109375 0z" fill-rule="nonzero"/><path fill="#ffffff" d="m748.0 311.81378l0 0c0 -3.763153 3.0506592 -6.8137817 6.8137817 -6.8137817l81.89996 0c1.8071289 0 3.5402832 0.717865 4.818115 1.995697c1.277832 1.277832 1.9957275 3.0109558 1.9957275 4.8180847l0 27.254333c0 3.763153 -3.0506592 6.8137817 -6.813843 6.8137817l-81.89996 0c-3.7631226 0 -6.8137817 -3.0506287 -6.8137817 -6.8137817z" fill-rule="evenodd"/><path stroke="#000000" stroke-width="1.0" stroke-linejoin="round" stroke-linecap="butt" d="m748.0 311.81378l0 0c0 -3.763153 3.0506592 -6.8137817 6.8137817 -6.8137817l81.89996 0c1.8071289 0 3.5402832 0.717865 4.818115 1.995697c1.277832 1.277832 1.9957275 3.0109558 1.9957275 4.8180847l0 27.254333c0 3.763153 -3.0506592 6.8137817 -6.813843 6.8137817l-81.89996 0c-3.7631226 0 -6.8137817 -3.0506287 -6.8137817 -6.8137817z" fill-rule="evenodd"/><path fill="#ffffff" d="m743.5 316.9319l0 0c0 -3.763153 3.0506592 -6.8137817 6.8137817 -6.8137817l81.89996 0c1.8071289 0 3.5402832 0.7178955 4.818115 1.9957275c1.277832 1.277832 1.9957275 3.0109253 1.9957275 4.818054l0 27.254333c0 3.763153 -3.0506592 6.8137817 -6.813843 6.8137817l-81.89996 0c-3.7631226 0 -6.8137817 -3.0506287 -6.8137817 -6.8137817z" fill-rule="evenodd"/><path stroke="#000000" stroke-width="1.0" stroke-linejoin="round" stroke-linecap="butt" d="m743.5 316.9319l0 0c0 -3.763153 3.0506592 -6.8137817 6.8137817 -6.8137817l81.89996 0c1.8071289 0 3.5402832 0.7178955 4.818115 1.9957275c1.277832 1.277832 1.9957275 3.0109253 1.9957275 4.818054l0 27.254333c0 3.763153 -3.0506592 6.8137817 -6.813843 6.8137817l-81.89996 0c-3.7631226 0 -6.8137817 -3.0506287 -6.8137817 -6.8137817z" fill-rule="evenodd"/><path fill="#ffffff" d="m738.04724 322.85556l0 0c0 -3.7863464 3.069458 -6.855774 6.855774 -6.855774l81.81598 0c1.8182983 0 3.5620728 0.72229004 4.8477783 2.0079956c1.2857056 1.2857056 2.0080566 3.0295105 2.0080566 4.8477783l0 27.422302c0 3.7863464 -3.069458 6.855774 -6.855835 6.855774l-81.81598 0c-3.786316 0 -6.855774 -3.0694275 -6.855774 -6.855774z" fill-rule="evenodd"/><path stroke="#000000" stroke-width="1.0" stroke-linejoin="round" stroke-linecap="butt" d="m738.04724 322.85556l0 0c0 -3.7863464 3.069458 -6.855774 6.855774 -6.855774l81.81598 0c1.8182983 0 3.5620728 0.72229004 4.8477783 2.0079956c1.2857056 1.2857056 2.0080566 3.0295105 2.0080566 4.8477783l0 27.422302c0 3.7863464 -3.069458 6.855774 -6.855835 6.855774l-81.81598 0c-3.786316 0 -6.855774 -3.0694275 -6.855774 -6.855774z" fill-rule="evenodd"/><path fill="#000000" d="m758.70166 345.10672l0 -12.453125l1.90625 0l0 1.78125q1.375 -2.0625 3.953125 -2.0625q1.125 0 2.0625 0.40625q0.953125 0.40625 1.421875 1.0625q0.46875 0.65625 0.65625 1.5625q0.125 0.578125 0.125 2.046875l0 7.65625l-2.109375 0l0 -7.578125q0 -1.28125 -0.25 -1.921875q-0.25 -0.640625 -0.875 -1.015625q-0.625 -0.390625 -1.46875 -0.390625q-1.34375 0 -2.328125 0.859375q-0.984375 0.859375 -0.984375 3.25l0 6.796875l-2.109375 0zm12.972656 1.03125l2.046875 0.3125q0.125 0.9375 0.71875 1.375q0.78125 0.59375 2.140625 0.59375q1.46875 0 2.265625 -0.59375q0.796875 -0.578125 1.078125 -1.640625q0.15625 -0.640625 0.140625 -2.703125q-1.375 1.625 -3.4375 1.625q-2.5625 0 -3.96875 -1.84375q-1.40625 -1.859375 -1.40625 -4.453125q0 -1.78125 0.640625 -3.28125q0.640625 -1.515625 1.859375 -2.328125q1.234375 -0.828125 2.890625 -0.828125q2.203125 0 3.625 1.78125l0 -1.5l1.953125 0l0 10.765625q0 2.90625 -0.59375 4.109375q-0.59375 1.21875 -1.875 1.921875q-1.28125 0.703125 -3.15625 0.703125q-2.234375 0 -3.609375 -1.0q-1.359375 -1.0 -1.3125 -3.015625zm1.734375 -7.484375q0 2.453125 0.96875 3.578125q0.984375 1.125 2.453125 1.125q1.453125 0 2.4375 -1.109375q0.984375 -1.125 0.984375 -3.515625q0 -2.28125 -1.015625 -3.4375q-1.015625 -1.171875 -2.453125 -1.171875q-1.40625 0 -2.390625 1.140625q-0.984375 1.140625 -0.984375 3.390625zm12.003906 -8.296875l0 -2.4375l2.109375 0l0 2.4375l-2.109375 0zm0 14.75l0 -12.453125l2.109375 0l0 12.453125l-2.109375 0zm5.3164062 0l0 -12.453125l1.90625 0l0 1.78125q1.375 -2.0625 3.953125 -2.0625q1.125 0 2.0625 0.40625q0.953125 0.40625 1.421875 1.0625q0.46875 0.65625 0.65625 1.5625q0.125 0.578125 0.125 2.046875l0 7.65625l-2.109375 0l0 -7.578125q0 -1.28125 -0.25 -1.921875q-0.25 -0.640625 -0.875 -1.015625q-0.625 -0.390625 -1.46875 -0.390625q-1.34375 0 -2.328125 0.859375q-0.984375 0.859375 -0.984375 3.25l0 6.796875l-2.109375 0zm11.941406 0l4.546875 -6.46875l-4.203125 -5.984375l2.640625 0l1.90625 2.921875q0.546875 0.828125 0.875 1.390625q0.515625 -0.765625 0.9375 -1.359375l2.109375 -2.953125l2.515625 0l-4.296875 5.859375l4.625 6.59375l-2.59375 0l-2.546875 -3.875l-0.6875 -1.03125l-3.265625 4.90625l-2.5625 0z" fill-rule="nonzero"/><path fill="#ffffff" d="m746.9724 417.00418l0 0c0 -3.763153 3.0506592 -6.8137817 6.813843 -6.8137817l81.89996 0c1.8071289 0 3.5402222 0.717865 4.818054 1.995697c1.277832 1.277832 1.9957275 3.0109558 1.9957275 4.8180847l0 27.254303c0 3.763153 -3.0506592 6.8138123 -6.8137817 6.8138123l-81.89996 0c-3.7631836 0 -6.813843 -3.0506592 -6.813843 -6.8138123z" fill-rule="evenodd"/><path stroke="#000000" stroke-width="1.0" stroke-linejoin="round" stroke-linecap="butt" d="m746.9724 417.00418l0 0c0 -3.763153 3.0506592 -6.8137817 6.813843 -6.8137817l81.89996 0c1.8071289 0 3.5402222 0.717865 4.818054 1.995697c1.277832 1.277832 1.9957275 3.0109558 1.9957275 4.8180847l0 27.254303c0 3.763153 -3.0506592 6.8138123 -6.8137817 6.8138123l-81.89996 0c-3.7631836 0 -6.813843 -3.0506592 -6.813843 -6.8138123z" fill-rule="evenodd"/><path fill="#ffffff" d="m742.4724 422.12228l0 0c0 -3.763153 3.0506592 -6.8137817 6.813843 -6.8137817l81.89996 0c1.8071289 0 3.5402222 0.7178955 4.818054 1.9957275c1.277832 1.277832 1.9957275 3.0109253 1.9957275 4.818054l0 27.254333c0 3.763153 -3.0506592 6.8137817 -6.8137817 6.8137817l-81.89996 0c-3.7631836 0 -6.813843 -3.0506287 -6.813843 -6.8137817z" fill-rule="evenodd"/><path stroke="#000000" stroke-width="1.0" stroke-linejoin="round" stroke-linecap="butt" d="m742.4724 422.12228l0 0c0 -3.763153 3.0506592 -6.8137817 6.813843 -6.8137817l81.89996 0c1.8071289 0 3.5402222 0.7178955 4.818054 1.9957275c1.277832 1.277832 1.9957275 3.0109253 1.9957275 4.818054l0 27.254333c0 3.763153 -3.0506592 6.8137817 -6.8137817 6.8137817l-81.89996 0c-3.7631836 0 -6.813843 -3.0506287 -6.813843 -6.8137817z" fill-rule="evenodd"/><path fill="#ffffff" d="m738.04724 426.72192l0 0c0 -3.7863464 3.069458 -6.855774 6.855774 -6.855774l81.81598 0c1.8182983 0 3.5620728 0.72229004 4.8477783 2.0079956c1.2857056 1.2857056 2.0080566 3.0295105 2.0080566 4.8477783l0 27.422302c0 3.7863464 -3.069458 6.855774 -6.855835 6.855774l-81.81598 0c-3.786316 0 -6.855774 -3.0694275 -6.855774 -6.855774z" fill-rule="evenodd"/><path stroke="#000000" stroke-width="1.0" stroke-linejoin="round" stroke-linecap="butt" d="m738.04724 426.72192l0 0c0 -3.7863464 3.069458 -6.855774 6.855774 -6.855774l81.81598 0c1.8182983 0 3.5620728 0.72229004 4.8477783 2.0079956c1.2857056 1.2857056 2.0080566 3.0295105 2.0080566 4.8477783l0 27.422302c0 3.7863464 -3.069458 6.855774 -6.855835 6.855774l-81.81598 0c-3.786316 0 -6.855774 -3.0694275 -6.855774 -6.855774z" fill-rule="evenodd"/><path fill="#000000" d="m758.70166 448.97308l0 -12.453125l1.90625 0l0 1.78125q1.375 -2.0625 3.953125 -2.0625q1.125 0 2.0625 0.40625q0.953125 0.40625 1.421875 1.0625q0.46875 0.65625 0.65625 1.5625q0.125 0.578125 0.125 2.046875l0 7.65625l-2.109375 0l0 -7.578125q0 -1.28125 -0.25 -1.921875q-0.25 -0.640625 -0.875 -1.015625q-0.625 -0.390625 -1.46875 -0.390625q-1.34375 0 -2.328125 0.859375q-0.984375 0.859375 -0.984375 3.25l0 6.796875l-2.109375 0zm12.972656 1.03125l2.046875 0.3125q0.125 0.9375 0.71875 1.375q0.78125 0.59375 2.140625 0.59375q1.46875 0 2.265625 -0.59375q0.796875 -0.578125 1.078125 -1.640625q0.15625 -0.640625 0.140625 -2.703125q-1.375 1.625 -3.4375 1.625q-2.5625 0 -3.96875 -1.84375q-1.40625 -1.859375 -1.40625 -4.453125q0 -1.78125 0.640625 -3.28125q0.640625 -1.515625 1.859375 -2.328125q1.234375 -0.828125 2.890625 -0.828125q2.203125 0 3.625 1.78125l0 -1.5l1.953125 0l0 10.765625q0 2.90625 -0.59375 4.109375q-0.59375 1.21875 -1.875 1.921875q-1.28125 0.703125 -3.15625 0.703125q-2.234375 0 -3.609375 -1.0q-1.359375 -1.0 -1.3125 -3.015625zm1.734375 -7.484375q0 2.453125 0.96875 3.578125q0.984375 1.125 2.453125 1.125q1.453125 0 2.4375 -1.109375q0.984375 -1.125 0.984375 -3.515625q0 -2.28125 -1.015625 -3.4375q-1.015625 -1.171875 -2.453125 -1.171875q-1.40625 0 -2.390625 1.140625q-0.984375 1.140625 -0.984375 3.390625zm12.003906 -8.296875l0 -2.4375l2.109375 0l0 2.4375l-2.109375 0zm0 14.75l0 -12.453125l2.109375 0l0 12.453125l-2.109375 0zm5.3164062 0l0 -12.453125l1.90625 0l0 1.78125q1.375 -2.0625 3.953125 -2.0625q1.125 0 2.0625 0.40625q0.953125 0.40625 1.421875 1.0625q0.46875 0.65625 0.65625 1.5625q0.125 0.578125 0.125 2.046875l0 7.65625l-2.109375 0l0 -7.578125q0 -1.28125 -0.25 -1.921875q-0.25 -0.640625 -0.875 -1.015625q-0.625 -0.390625 -1.46875 -0.390625q-1.34375 0 -2.328125 0.859375q-0.984375 0.859375 -0.984375 3.25l0 6.796875l-2.109375 0zm11.941406 0l4.546875 -6.46875l-4.203125 -5.984375l2.640625 0l1.90625 2.921875q0.546875 0.828125 0.875 1.390625q0.515625 -0.765625 0.9375 -1.359375l2.109375 -2.953125l2.515625 0l-4.296875 5.859375l4.625 6.59375l-2.59375 0l-2.546875 -3.875l-0.6875 -1.03125l-3.265625 4.90625l-2.5625 0z" fill-rule="nonzero"/><path fill="#ffffff" d="m747.5 520.8138l0 0c0 -3.7631226 3.0506592 -6.8137817 6.8137817 -6.8137817l81.89996 0c1.8071289 0 3.5402832 0.7178955 4.818115 1.9957275c1.277832 1.277832 1.9957275 3.0109253 1.9957275 4.818054l0 27.254333c0 3.7631226 -3.0506592 6.8137817 -6.813843 6.8137817l-81.89996 0c-3.7631226 0 -6.8137817 -3.0506592 -6.8137817 -6.8137817z" fill-rule="evenodd"/><path stroke="#000000" stroke-width="1.0" stroke-linejoin="round" stroke-linecap="butt" d="m747.5 520.8138l0 0c0 -3.7631226 3.0506592 -6.8137817 6.8137817 -6.8137817l81.89996 0c1.8071289 0 3.5402832 0.7178955 4.818115 1.9957275c1.277832 1.277832 1.9957275 3.0109253 1.9957275 4.818054l0 27.254333c0 3.7631226 -3.0506592 6.8137817 -6.813843 6.8137817l-81.89996 0c-3.7631226 0 -6.8137817 -3.0506592 -6.8137817 -6.8137817z" fill-rule="evenodd"/><path fill="#ffffff" d="m743.0 525.9319l0 0c0 -3.7631226 3.0506592 -6.8137817 6.8137817 -6.8137817l81.89996 0c1.8071289 0 3.5402832 0.7178955 4.818115 1.9957275c1.277832 1.277832 1.9957275 3.0109253 1.9957275 4.818054l0 27.254333c0 3.7631226 -3.0506592 6.8137817 -6.813843 6.8137817l-81.89996 0c-3.7631226 0 -6.8137817 -3.0506592 -6.8137817 -6.8137817z" fill-rule="evenodd"/><path stroke="#000000" stroke-width="1.0" stroke-linejoin="round" stroke-linecap="butt" d="m743.0 525.9319l0 0c0 -3.7631226 3.0506592 -6.8137817 6.8137817 -6.8137817l81.89996 0c1.8071289 0 3.5402832 0.7178955 4.818115 1.9957275c1.277832 1.277832 1.9957275 3.0109253 1.9957275 4.818054l0 27.254333c0 3.7631226 -3.0506592 6.8137817 -6.813843 6.8137817l-81.89996 0c-3.7631226 0 -6.8137817 -3.0506592 -6.8137817 -6.8137817z" fill-rule="evenodd"/><path fill="#ffffff" d="m738.04724 531.2075l0 0c0 -3.786377 3.069458 -6.855774 6.855774 -6.855774l81.81598 0c1.8182983 0 3.5620728 0.72229004 4.8477783 2.0079956c1.2857056 1.2857056 2.0080566 3.02948 2.0080566 4.8477783l0 27.422302c0 3.786316 -3.069458 6.855774 -6.855835 6.855774l-81.81598 0c-3.786316 0 -6.855774 -3.069458 -6.855774 -6.855774z" fill-rule="evenodd"/><path stroke="#000000" stroke-width="1.0" stroke-linejoin="round" stroke-linecap="butt" d="m738.04724 531.2075l0 0c0 -3.786377 3.069458 -6.855774 6.855774 -6.855774l81.81598 0c1.8182983 0 3.5620728 0.72229004 4.8477783 2.0079956c1.2857056 1.2857056 2.0080566 3.02948 2.0080566 4.8477783l0 27.422302c0 3.786316 -3.069458 6.855774 -6.855835 6.855774l-81.81598 0c-3.786316 0 -6.855774 -3.069458 -6.855774 -6.855774z" fill-rule="evenodd"/><path fill="#000000" d="m758.70166 553.4586l0 -12.453125l1.90625 0l0 1.78125q1.375 -2.0625 3.953125 -2.0625q1.125 0 2.0625 0.40625q0.953125 0.40625 1.421875 1.0625q0.46875 0.65625 0.65625 1.5625q0.125 0.578125 0.125 2.046875l0 7.65625l-2.109375 0l0 -7.578125q0 -1.28125 -0.25 -1.921875q-0.25 -0.640625 -0.875 -1.015625q-0.625 -0.390625 -1.46875 -0.390625q-1.34375 0 -2.328125 0.859375q-0.984375 0.859375 -0.984375 3.25l0 6.796875l-2.109375 0zm12.972656 1.03125l2.046875 0.3125q0.125 0.9375 0.71875 1.375q0.78125 0.59375 2.140625 0.59375q1.46875 0 2.265625 -0.59375q0.796875 -0.578125 1.078125 -1.640625q0.15625 -0.640625 0.140625 -2.703125q-1.375 1.625 -3.4375 1.625q-2.5625 0 -3.96875 -1.84375q-1.40625 -1.859375 -1.40625 -4.453125q0 -1.78125 0.640625 -3.28125q0.640625 -1.515625 1.859375 -2.328125q1.234375 -0.828125 2.890625 -0.828125q2.203125 0 3.625 1.78125l0 -1.5l1.953125 0l0 10.765625q0 2.90625 -0.59375 4.109375q-0.59375 1.21875 -1.875 1.921875q-1.28125 0.703125 -3.15625 0.703125q-2.234375 0 -3.609375 -1.0q-1.359375 -1.0 -1.3125 -3.015625zm1.734375 -7.484375q0 2.453125 0.96875 3.578125q0.984375 1.125 2.453125 1.125q1.453125 0 2.4375 -1.109375q0.984375 -1.125 0.984375 -3.515625q0 -2.28125 -1.015625 -3.4375q-1.015625 -1.171875 -2.453125 -1.171875q-1.40625 0 -2.390625 1.140625q-0.984375 1.140625 -0.984375 3.390625zm12.003906 -8.296875l0 -2.4375l2.109375 0l0 2.4375l-2.109375 0zm0 14.75l0 -12.453125l2.109375 0l0 12.453125l-2.109375 0zm5.3164062 0l0 -12.453125l1.90625 0l0 1.78125q1.375 -2.0625 3.953125 -2.0625q1.125 0 2.0625 0.40625q0.953125 0.40625 1.421875 1.0625q0.46875 0.65625 0.65625 1.5625q0.125 0.578125 0.125 2.046875l0 7.65625l-2.109375 0l0 -7.578125q0 -1.28125 -0.25 -1.921875q-0.25 -0.640625 -0.875 -1.015625q-0.625 -0.390625 -1.46875 -0.390625q-1.34375 0 -2.328125 0.859375q-0.984375 0.859375 -0.984375 3.25l0 6.796875l-2.109375 0zm11.941406 0l4.546875 -6.46875l-4.203125 -5.984375l2.640625 0l1.90625 2.921875q0.546875 0.828125 0.875 1.390625q0.515625 -0.765625 0.9375 -1.359375l2.109375 -2.953125l2.515625 0l-4.296875 5.859375l4.625 6.59375l-2.59375 0l-2.546875 -3.875l-0.6875 -1.03125l-3.265625 4.90625l-2.5625 0z" fill-rule="nonzero"/></g></svg>