<svg version="1.1" viewBox="0.0 0.0 960.0 720.0" fill="none" stroke="none" stroke-linecap="square" stroke-miterlimit="10" xmlns:xlink="http://www.w3.org/1999/xlink" xmlns="http://www.w3.org/2000/svg"><clipPath id="g5c17980a54_0_198.0"><path d="m0 0l960.0 0l0 720.0l-960.0 0l0 -720.0z" clip-rule="nonzero"/></clipPath><g clip-path="url(#g5c17980a54_0_198.0)"><path fill="#ffffff" d="m0 0l960.0 0l0 720.0l-960.0 0z" fill-rule="evenodd"/><path fill="#9fc5e8" d="m293.1706 470.7722l0 0c0 -14.206055 11.516266 -25.72232 25.72232 -25.72232l107.610504 0l0 0c6.821991 0 13.364563 2.710022 18.188416 7.533905c4.823883 4.8238525 7.5338745 11.366425 7.5338745 18.188416l0 102.88608c0 14.206055 -11.516266 25.722351 -25.72229 25.722351l-107.610504 0c-14.206055 0 -25.72232 -11.516296 -25.72232 -25.722351z" fill-rule="evenodd"/><path stroke="#000000" stroke-width="1.0" stroke-linejoin="round" stroke-linecap="butt" d="m293.1706 470.7722l0 0c0 -14.206055 11.516266 -25.72232 25.72232 -25.72232l107.610504 0l0 0c6.821991 0 13.364563 2.710022 18.188416 7.533905c4.823883 4.8238525 7.5338745 11.366425 7.5338745 18.188416l0 102.88608c0 14.206055 -11.516266 25.722351 -25.72229 25.722351l-107.610504 0c-14.206055 0 -25.72232 -11.516296 -25.72232 -25.722351z" fill-rule="evenodd"/><path fill="#9fc5e8" d="m324.99738 183.51982l0 0c0 -3.7863464 3.0694275 -6.855774 6.855774 -6.855774l81.69003 0c1.8182678 0 3.5620422 0.7223053 4.847748 2.0080109c1.2857056 1.2857056 2.0080261 3.0294952 2.0080261 4.847763l0 27.422302c0 3.7863464 -3.069458 6.855774 -6.855774 6.855774l-81.69003 0c-3.7863464 0 -6.855774 -3.0694275 -6.855774 -6.855774z" fill-rule="evenodd"/><path stroke="#000000" stroke-width="1.0" stroke-linejoin="round" stroke-linecap="butt" d="m324.99738 183.51982l0 0c0 -3.7863464 3.0694275 -6.855774 6.855774 -6.855774l81.69003 0c1.8182678 0 3.5620422 0.7223053 4.847748 2.0080109c1.2857056 1.2857056 2.0080261 3.0294952 2.0080261 4.847763l0 27.422302c0 3.7863464 -3.069458 6.855774 -6.855774 6.855774l-81.69003 0c-3.7863464 0 -6.855774 -3.0694275 -6.855774 -6.855774z" fill-rule="evenodd"/><path fill="#000000" d="m357.91104 205.77097l-3.796875 -12.453125l2.171875 0l1.984375 7.1875l0.734375 2.671875q0.046875 -0.203125 0.640625 -2.5625l1.984375 -7.296875l2.171875 0l1.859375 7.21875l0.625 2.390625l0.71875 -2.40625l2.125 -7.203125l2.046875 0l-3.890625 12.453125l-2.1875 0l-1.984375 -7.453125l-0.46875 -2.125l-2.53125 9.578125l-2.203125 0zm15.019531 0l0 -12.453125l1.890625 0l0 1.890625q0.734375 -1.328125 1.34375 -1.75q0.625 -0.421875 1.359375 -0.421875q1.0625 0 2.171875 0.6875l-0.734375 1.953125q-0.765625 -0.453125 -1.546875 -0.453125q-0.6875 0 -1.25 0.421875q-0.546875 0.40625 -0.78125 1.140625q-0.34375 1.125 -0.34375 2.46875l0 6.515625l-2.109375 0zm8.0234375 0l0 -17.1875l2.109375 0l0 9.796875l5.0 -5.0625l2.71875 0l-4.75 4.625l5.234375 7.828125l-2.59375 0l-4.125 -6.359375l-1.484375 1.421875l0 4.9375l-2.109375 0z" fill-rule="nonzero"/><path fill="#ffffff" d="m324.99734 511.01328l0 0c0 -3.7863464 3.0694275 -6.8558044 6.855774 -6.8558044l81.69 0c1.8182678 0 3.5620728 0.72232056 4.8477783 2.0080261c1.2857056 1.2857056 2.0079956 3.0295105 2.0079956 4.8477783l0 27.422272c0 3.786377 -3.0694275 6.855774 -6.855774 6.855774l-81.69 0c-3.7863464 0 -6.855774 -3.069397 -6.855774 -6.855774z" fill-rule="evenodd"/><path stroke="#000000" stroke-width="1.0" stroke-linejoin="round" stroke-linecap="butt" d="m324.99734 511.01328l0 0c0 -3.7863464 3.0694275 -6.8558044 6.855774 -6.8558044l81.69 0c1.8182678 0 3.5620728 0.72232056 4.8477783 2.0080261c1.2857056 1.2857056 2.0079956 3.0295105 2.0079956 4.8477783l0 27.422272c0 3.786377 -3.0694275 6.855774 -6.855774 6.855774l-81.69 0c-3.7863464 0 -6.855774 -3.069397 -6.855774 -6.855774z" fill-rule="evenodd"/><path fill="#000000" d="m352.95203 518.5144l0 -2.4375l2.109375 0l0 2.4375l-2.109375 0zm0 14.75l0 -12.453125l2.109375 0l0 12.453125l-2.109375 0zm5.3164062 4.765625l0 -17.21875l1.921875 0l0 1.625q0.6875 -0.953125 1.53125 -1.421875q0.859375 -0.484375 2.078125 -0.484375q1.59375 0 2.8125 0.828125q1.21875 0.8125 1.84375 2.3125q0.625 1.5 0.625 3.28125q0 1.90625 -0.6875 3.4375q-0.6875 1.53125 -2.0 2.34375q-1.296875 0.8125 -2.734375 0.8125q-1.0625 0 -1.90625 -0.4375q-0.828125 -0.453125 -1.375 -1.140625l0 6.0625l-2.109375 0zm1.921875 -10.921875q0 2.40625 0.96875 3.5625q0.96875 1.140625 2.359375 1.140625q1.40625 0 2.40625 -1.1875q1.0 -1.1875 1.0 -3.6875q0 -2.375 -0.984375 -3.5625q-0.96875 -1.1875 -2.328125 -1.1875q-1.359375 0 -2.390625 1.265625q-1.03125 1.25 -1.03125 3.65625zm14.894531 6.15625l-4.734375 -12.453125l2.21875 0l2.671875 7.453125q0.4375 1.21875 0.796875 2.515625q0.28125 -0.984375 0.78125 -2.375l2.765625 -7.59375l2.171875 0l-4.703125 12.453125l-1.96875 0zm7.6875 -3.71875l2.09375 -0.328125q0.171875 1.25 0.96875 1.921875q0.8125 0.671875 2.25 0.671875q1.453125 0 2.15625 -0.59375q0.703125 -0.59375 0.703125 -1.390625q0 -0.71875 -0.625 -1.125q-0.421875 -0.28125 -2.15625 -0.71875q-2.3125 -0.578125 -3.21875 -1.0q-0.890625 -0.4375 -1.359375 -1.1875q-0.453125 -0.765625 -0.453125 -1.671875q0 -0.828125 0.375 -1.53125q0.390625 -0.71875 1.046875 -1.1875q0.484375 -0.359375 1.328125 -0.609375q0.859375 -0.265625 1.828125 -0.265625q1.46875 0 2.578125 0.421875q1.109375 0.421875 1.625 1.15625q0.53125 0.71875 0.734375 1.921875l-2.0625 0.28125q-0.140625 -0.96875 -0.8125 -1.5q-0.671875 -0.546875 -1.90625 -0.546875q-1.453125 0 -2.078125 0.484375q-0.625 0.484375 -0.625 1.125q0 0.40625 0.265625 0.734375q0.25 0.34375 0.8125 0.5625q0.3125 0.125 1.859375 0.546875q2.234375 0.59375 3.109375 0.984375q0.890625 0.375 1.390625 1.109375q0.515625 0.71875 0.515625 1.796875q0 1.046875 -0.625 1.984375q-0.609375 0.9375 -1.765625 1.453125q-1.15625 0.5 -2.625 0.5q-2.421875 0 -3.703125 -1.0q-1.265625 -1.015625 -1.625 -3.0z" fill-rule="nonzero"/><path fill="#000000" fill-opacity="0.0" d="m355.32547 604.8688l87.93701 0l0 22.11023l-87.93701 0z" fill-rule="evenodd"/><path fill="#000000" d="m365.9036 624.46387l0 -12.453125l1.90625 0l0 1.78125q1.375 -2.0625 3.953125 -2.0625q1.125 0 2.0625 0.40625q0.953125 0.40625 1.421875 1.0625q0.46875 0.65625 0.65625 1.5625q0.125 0.578125 0.125 2.046875l0 7.65625l-2.109375 0l0 -7.578125q0 -1.28125 -0.25 -1.921875q-0.25 -0.640625 -0.875 -1.015625q-0.625 -0.390625 -1.46875 -0.390625q-1.34375 0 -2.328125 0.859375q-0.984375 0.859375 -0.984375 3.25l0 6.796875l-2.109375 0zm12.566406 -6.21875q0 -3.46875 1.921875 -5.125q1.609375 -1.390625 3.921875 -1.390625q2.5625 0 4.1875 1.6875q1.625 1.6875 1.625 4.640625q0 2.40625 -0.71875 3.78125q-0.71875 1.375 -2.09375 2.140625q-1.375 0.765625 -3.0 0.765625q-2.625 0 -4.234375 -1.671875q-1.609375 -1.6875 -1.609375 -4.828125zm2.171875 0q0 2.390625 1.03125 3.578125q1.046875 1.1875 2.640625 1.1875q1.5625 0 2.609375 -1.1875q1.046875 -1.203125 1.046875 -3.65625q0 -2.3125 -1.0625 -3.5q-1.046875 -1.1875 -2.59375 -1.1875q-1.59375 0 -2.640625 1.1875q-1.03125 1.1875 -1.03125 3.578125zm20.035156 6.21875l0 -1.578125q-1.1875 1.859375 -3.484375 1.859375q-1.484375 0 -2.734375 -0.8125q-1.25 -0.828125 -1.9375 -2.296875q-0.671875 -1.46875 -0.671875 -3.390625q0 -1.859375 0.609375 -3.375q0.625 -1.515625 1.859375 -2.328125q1.25 -0.8125 2.78125 -0.8125q1.125 0 2.0 0.484375q0.890625 0.46875 1.4375 1.234375l0 -6.171875l2.09375 0l0 17.1875l-1.953125 0zm-6.671875 -6.21875q0 2.390625 1.0 3.578125q1.015625 1.1875 2.390625 1.1875q1.390625 0 2.34375 -1.125q0.96875 -1.140625 0.96875 -3.453125q0 -2.5625 -0.984375 -3.75q-0.984375 -1.203125 -2.421875 -1.203125q-1.40625 0 -2.359375 1.15625q-0.9375 1.140625 -0.9375 3.609375zm20.472656 2.203125l2.171875 0.28125q-0.515625 1.90625 -1.90625 2.96875q-1.390625 1.046875 -3.5625 1.046875q-2.734375 0 -4.34375 -1.671875q-1.59375 -1.6875 -1.59375 -4.734375q0 -3.140625 1.609375 -4.875q1.625 -1.734375 4.203125 -1.734375q2.5 0 4.078125 1.703125q1.59375 1.703125 1.59375 4.78125q0 0.1875 -0.015625 0.5625l-9.28125 0q0.109375 2.046875 1.15625 3.140625q1.046875 1.09375 2.609375 1.09375q1.15625 0 1.96875 -0.609375q0.828125 -0.609375 1.3125 -1.953125zm-6.9375 -3.40625l6.953125 0q-0.140625 -1.5625 -0.796875 -2.359375q-1.0 -1.21875 -2.609375 -1.21875q-1.453125 0 -2.453125 0.984375q-0.984375 0.96875 -1.09375 2.59375z" fill-rule="nonzero"/><path fill="#ffffff" d="m324.99738 556.3046l0 0c0 -3.786377 3.0694275 -6.855835 6.855774 -6.855835l81.69003 0c1.8182678 0 3.5620422 0.7223511 4.847748 2.0080566c1.2857056 1.2857056 2.0080261 3.02948 2.0080261 4.8477783l0 27.422241c0 3.786377 -3.069458 6.855835 -6.855774 6.855835l-81.69003 0c-3.7863464 0 -6.855774 -3.069458 -6.855774 -6.855835z" fill-rule="evenodd"/><path stroke="#000000" stroke-width="1.0" stroke-linejoin="round" stroke-linecap="butt" d="m324.99738 556.3046l0 0c0 -3.786377 3.0694275 -6.855835 6.855774 -6.855835l81.69003 0c1.8182678 0 3.5620422 0.7223511 4.847748 2.0080566c1.2857056 1.2857056 2.0080261 3.02948 2.0080261 4.8477783l0 27.422241c0 3.786377 -3.069458 6.855835 -6.855774 6.855835l-81.69003 0c-3.7863464 0 -6.855774 -3.069458 -6.855774 -6.855835z" fill-rule="evenodd"/><path fill="#000000" d="m345.58878 578.5557l0 -12.453125l1.90625 0l0 1.78125q1.375 -2.0625 3.953125 -2.0625q1.125 0 2.0625 0.40625q0.953125 0.40625 1.421875 1.0625q0.46875 0.65625 0.65625 1.5625q0.125 0.578125 0.125 2.046875l0 7.65625l-2.109375 0l0 -7.578125q0 -1.28125 -0.25 -1.921875q-0.25 -0.640625 -0.875 -1.015625q-0.625 -0.390625 -1.46875 -0.390625q-1.34375 0 -2.328125 0.859375q-0.984375 0.859375 -0.984375 3.25l0 6.796875l-2.109375 0zm12.972656 1.03125l2.046875 0.3125q0.125 0.9375 0.71875 1.375q0.78125 0.59375 2.140625 0.59375q1.46875 0 2.265625 -0.59375q0.796875 -0.578125 1.078125 -1.640625q0.15625 -0.640625 0.140625 -2.703125q-1.375 1.625 -3.4375 1.625q-2.5625 0 -3.96875 -1.84375q-1.40625 -1.859375 -1.40625 -4.453125q0 -1.78125 0.640625 -3.28125q0.640625 -1.515625 1.859375 -2.328125q1.234375 -0.828125 2.890625 -0.828125q2.203125 0 3.625 1.78125l0 -1.5l1.953125 0l0 10.765625q0 2.90625 -0.59375 4.109375q-0.59375 1.21875 -1.875 1.921875q-1.28125 0.703125 -3.15625 0.703125q-2.234375 0 -3.609375 -1.0q-1.359375 -1.0 -1.3125 -3.015625zm1.734375 -7.484375q0 2.453125 0.96875 3.578125q0.984375 1.125 2.453125 1.125q1.453125 0 2.4375 -1.109375q0.984375 -1.125 0.984375 -3.515625q0 -2.28125 -1.015625 -3.4375q-1.015625 -1.171875 -2.453125 -1.171875q-1.40625 0 -2.390625 1.140625q-0.984375 1.140625 -0.984375 3.390625zm12.003906 -8.296875l0 -2.4375l2.109375 0l0 2.4375l-2.109375 0zm0 14.75l0 -12.453125l2.109375 0l0 12.453125l-2.109375 0zm5.3164062 0l0 -12.453125l1.90625 0l0 1.78125q1.375 -2.0625 3.953125 -2.0625q1.125 0 2.0625 0.40625q0.953125 0.40625 1.421875 1.0625q0.46875 0.65625 0.65625 1.5625q0.125 0.578125 0.125 2.046875l0 7.65625l-2.109375 0l0 -7.578125q0 -1.28125 -0.25 -1.921875q-0.25 -0.640625 -0.875 -1.015625q-0.625 -0.390625 -1.46875 -0.390625q-1.34375 0 -2.328125 0.859375q-0.984375 0.859375 -0.984375 3.25l0 6.796875l-2.109375 0zm11.941406 0l4.546875 -6.46875l-4.203125 -5.984375l2.640625 0l1.90625 2.921875q0.546875 0.828125 0.875 1.390625q0.515625 -0.765625 0.9375 -1.359375l2.109375 -2.953125l2.515625 0l-4.296875 5.859375l4.625 6.59375l-2.59375 0l-2.546875 -3.875l-0.6875 -1.03125l-3.265625 4.90625l-2.5625 0z" fill-rule="nonzero"/><path fill="#000000" fill-opacity="0.0" d="m430.28085 168.66405l216.25198 0l0 53.102356l-216.25198 0z" fill-rule="evenodd"/><path fill="#000000" d="m441.04648 203.75522l0 -17.1875l6.4375 0q1.96875 0 3.15625 0.53125q1.1875 0.515625 1.859375 1.609375q0.6875 1.078125 0.6875 2.265625q0 1.09375 -0.609375 2.078125q-0.59375 0.96875 -1.796875 1.5625q1.5625 0.453125 2.390625 1.5625q0.84375 1.09375 0.84375 2.59375q0 1.203125 -0.515625 2.25q-0.5 1.03125 -1.25 1.59375q-0.75 0.5625 -1.890625 0.859375q-1.125 0.28125 -2.765625 0.28125l-6.546875 0zm2.265625 -9.96875l3.71875 0q1.515625 0 2.171875 -0.1875q0.859375 -0.265625 1.296875 -0.859375q0.4375 -0.59375 0.4375 -1.5q0 -0.859375 -0.40625 -1.5q-0.40625 -0.65625 -1.171875 -0.890625q-0.765625 -0.25 -2.609375 -0.25l-3.4375 0l0 5.1875zm0 7.9375l4.28125 0q1.09375 0 1.546875 -0.078125q0.78125 -0.140625 1.3125 -0.46875q0.53125 -0.328125 0.859375 -0.953125q0.34375 -0.625 0.34375 -1.453125q0 -0.953125 -0.5 -1.65625q-0.484375 -0.71875 -1.359375 -1.0q-0.875 -0.296875 -2.515625 -0.296875l-3.96875 0l0 5.90625zm22.085938 -1.984375l2.171875 0.28125q-0.515625 1.90625 -1.90625 2.96875q-1.390625 1.046875 -3.5625 1.046875q-2.734375 0 -4.34375 -1.671875q-1.59375 -1.6875 -1.59375 -4.734375q0 -3.140625 1.609375 -4.875q1.625 -1.734375 4.203125 -1.734375q2.5 0 4.078125 1.703125q1.59375 1.703125 1.59375 4.78125q0 0.1875 -0.015625 0.5625l-9.28125 0q0.109375 2.046875 1.15625 3.140625q1.046875 1.09375 2.609375 1.09375q1.15625 0 1.96875 -0.609375q0.828125 -0.609375 1.3125 -1.953125zm-6.9375 -3.40625l6.953125 0q-0.140625 -1.5625 -0.796875 -2.359375q-1.0 -1.21875 -2.609375 -1.21875q-1.453125 0 -2.453125 0.984375q-0.984375 0.96875 -1.09375 2.59375zm11.753906 7.421875l0 -12.453125l1.90625 0l0 1.78125q1.375 -2.0625 3.953125 -2.0625q1.125 0 2.0625 0.40625q0.953125 0.40625 1.421875 1.0625q0.46875 0.65625 0.65625 1.5625q0.125 0.578125 0.125 2.046875l0 7.65625l-2.109375 0l0 -7.578125q0 -1.28125 -0.25 -1.921875q-0.25 -0.640625 -0.875 -1.015625q-0.625 -0.390625 -1.46875 -0.390625q-1.34375 0 -2.328125 0.859375q-0.984375 0.859375 -0.984375 3.25l0 6.796875l-2.109375 0zm21.472656 -4.5625l2.078125 0.265625q-0.34375 2.15625 -1.75 3.375q-1.390625 1.203125 -3.4375 1.203125q-2.546875 0 -4.109375 -1.671875q-1.546875 -1.671875 -1.546875 -4.78125q0 -2.015625 0.671875 -3.53125q0.671875 -1.515625 2.03125 -2.265625q1.359375 -0.765625 2.96875 -0.765625q2.03125 0 3.3125 1.03125q1.296875 1.03125 1.65625 2.90625l-2.046875 0.328125q-0.296875 -1.265625 -1.046875 -1.890625q-0.734375 -0.640625 -1.796875 -0.640625q-1.59375 0 -2.59375 1.15625q-0.984375 1.140625 -0.984375 3.609375q0 2.5 0.953125 3.640625q0.96875 1.140625 2.515625 1.140625q1.234375 0 2.0625 -0.765625q0.84375 -0.765625 1.0625 -2.34375zm3.875 4.5625l0 -17.1875l2.109375 0l0 6.171875q1.484375 -1.71875 3.734375 -1.71875q1.375 0 2.390625 0.546875q1.03125 0.546875 1.46875 1.515625q0.4375 0.953125 0.4375 2.78125l0 7.890625l-2.109375 0l0 -7.890625q0 -1.578125 -0.6875 -2.296875q-0.6875 -0.71875 -1.9375 -0.71875q-0.9375 0 -1.765625 0.484375q-0.828125 0.484375 -1.1875 1.3125q-0.34375 0.828125 -0.34375 2.296875l0 6.8125l-2.109375 0zm13.347656 0l0 -12.453125l1.890625 0l0 1.75q0.59375 -0.90625 1.5624695 -1.46875q0.96875 -0.5625 2.21875 -0.5625q1.375 0 2.25 0.578125q0.890625 0.578125 1.265625 1.609375q1.46875 -2.1875 3.84375 -2.1875q1.84375 0 2.84375 1.03125q1.0 1.03125 1.0 3.15625l0 8.546875l-2.109375 0l0 -7.84375q0 -1.265625 -0.203125 -1.8125q-0.203125 -0.5625 -0.75 -0.90625q-0.53125 -0.34375 -1.25 -0.34375q-1.3125 0 -2.1875 0.875q-0.859375 0.875 -0.859375 2.796875l0 7.234375l-2.109375 0l0 -8.09375q0 -1.40625 -0.515625 -2.109375q-0.515625 -0.703125 -1.6875 -0.703125q-0.890625 0 -1.65625 0.46875q-0.7499695 0.46875 -1.0937195 1.375q-0.34375 0.90625 -0.34375 2.609375l0 6.453125l-2.109375 0zm28.117157 -1.53125q-1.171875 0.984375 -2.265625 1.40625q-1.078125 0.40625 -2.3125 0.40625q-2.046875 0 -3.15625 -1.0q-1.09375 -1.0 -1.09375 -2.5625q0 -0.921875 0.40625 -1.671875q0.421875 -0.75 1.09375 -1.203125q0.671875 -0.46875 1.515625 -0.703125q0.625 -0.15625 1.875 -0.3125q2.5625 -0.3125 3.765625 -0.734375q0.015625 -0.421875 0.015625 -0.546875q0 -1.28125 -0.609375 -1.8125q-0.796875 -0.71875 -2.390625 -0.71875q-1.5 0 -2.203125 0.53125q-0.703125 0.515625 -1.046875 1.84375l-2.0625 -0.28125q0.28125 -1.328125 0.921875 -2.140625q0.640625 -0.8125 1.859375 -1.25q1.21875 -0.453125 2.828125 -0.453125q1.59375 0 2.59375 0.375q1.0 0.375 1.46875 0.953125q0.46875 0.5625 0.65625 1.4375q0.09375 0.53125 0.09375 1.9375l0 2.8125q0 2.9375 0.140625 3.71875q0.140625 0.78125 0.53125 1.5l-2.203125 0q-0.328125 -0.65625 -0.421875 -1.53125zm-0.171875 -4.71875q-1.15625 0.46875 -3.453125 0.796875q-1.296875 0.1875 -1.84375 0.421875q-0.53125 0.234375 -0.828125 0.6875q-0.28125 0.453125 -0.28125 1.0q0 0.84375 0.625 1.40625q0.640625 0.5625 1.875 0.5625q1.21875 0 2.171875 -0.53125q0.953125 -0.53125 1.390625 -1.453125q0.34375 -0.71875 0.34375 -2.109375l0 -0.78125zm5.3789062 6.25l0 -12.453125l1.890625 0l0 1.890625q0.734375 -1.328125 1.34375 -1.75q0.625 -0.421875 1.359375 -0.421875q1.0625 0 2.171875 0.6875l-0.734375 1.953125q-0.765625 -0.453125 -1.546875 -0.453125q-0.6875 0 -1.25 0.421875q-0.546875 0.40625 -0.78125 1.140625q-0.34375 1.125 -0.34375 2.46875l0 6.515625l-2.109375 0zm8.0234375 0l0 -17.1875l2.109375 0l0 9.796875l5.0 -5.0625l2.71875 0l-4.75 4.625l5.234375 7.828125l-2.59375 0l-4.125 -6.359375l-1.484375 1.421875l0 4.9375l-2.109375 0zm26.777344 -4.5625l2.078125 0.265625q-0.34375 2.15625 -1.75 3.375q-1.390625 1.203125 -3.4375 1.203125q-2.546875 0 -4.109375 -1.671875q-1.546875 -1.671875 -1.546875 -4.78125q0 -2.015625 0.671875 -3.53125q0.671875 -1.515625 2.03125 -2.265625q1.359375 -0.765625 2.96875 -0.765625q2.03125 0 3.3125 1.03125q1.296875 1.03125 1.65625 2.90625l-2.046875 0.328125q-0.296875 -1.265625 -1.046875 -1.890625q-0.734375 -0.640625 -1.796875 -0.640625q-1.59375 0 -2.59375 1.15625q-0.984375 1.140625 -0.984375 3.609375q0 2.5 0.953125 3.640625q0.96875 1.140625 2.515625 1.140625q1.234375 0 2.0625 -0.765625q0.84375 -0.765625 1.0625 -2.34375zm3.828125 4.5625l0 -17.1875l2.109375 0l0 17.1875l-2.109375 0zm5.3945312 -14.75l0 -2.4375l2.109375 0l0 2.4375l-2.109375 0zm0 14.75l0 -12.453125l2.109375 0l0 12.453125l-2.109375 0zm13.847656 -4.015625l2.171875 0.28125q-0.515625 1.90625 -1.90625 2.96875q-1.390625 1.046875 -3.5625 1.046875q-2.734375 0 -4.34375 -1.671875q-1.59375 -1.6875 -1.59375 -4.734375q0 -3.140625 1.609375 -4.875q1.625 -1.734375 4.203125 -1.734375q2.5 0 4.078125 1.703125q1.59375 1.703125 1.59375 4.78125q0 0.1875 -0.015625 0.5625l-9.28125 0q0.109375 2.046875 1.15625 3.140625q1.046875 1.09375 2.609375 1.09375q1.15625 0 1.96875 -0.609375q0.828125 -0.609375 1.3125 -1.953125zm-6.9375 -3.40625l6.953125 0q-0.140625 -1.5625 -0.796875 -2.359375q-1.0 -1.21875 -2.609375 -1.21875q-1.453125 0 -2.453125 0.984375q-0.984375 0.96875 -1.09375 2.59375zm11.753906 7.421875l0 -12.453125l1.90625 0l0 1.78125q1.375 -2.0625 3.953125 -2.0625q1.125 0 2.0625 0.40625q0.953125 0.40625 1.421875 1.0625q0.46875 0.65625 0.65625 1.5625q0.125 0.578125 0.125 2.046875l0 7.65625l-2.109375 0l0 -7.578125q0 -1.28125 -0.25 -1.921875q-0.25 -0.640625 -0.875 -1.015625q-0.625 -0.390625 -1.46875 -0.390625q-1.34375 0 -2.328125 0.859375q-0.984375 0.859375 -0.984375 3.25l0 6.796875l-2.109375 0zm17.957031 -1.890625l0.3125 1.859375q-0.890625 0.203125 -1.59375 0.203125q-1.15625 0 -1.796875 -0.359375q-0.625 -0.375 -0.890625 -0.96875q-0.25 -0.59375 -0.25 -2.484375l0 -7.171875l-1.546875 0l0 -1.640625l1.546875 0l0 -3.078125l2.09375 -1.265625l0 4.34375l2.125 0l0 1.640625l-2.125 0l0 7.28125q0 0.90625 0.109375 1.171875q0.125 0.25 0.375 0.40625q0.25 0.140625 0.71875 0.140625q0.34375 0 0.921875 -0.078125z" fill-rule="nonzero"/><path fill="#9fc5e8" d="m506.28348 489.18668l0 0c0 -9.12085 7.3938904 -16.51477 16.51474 -16.51477l91.94684 0c4.380005 0 8.580627 1.7399597 11.677734 4.8370667c3.097107 3.0971375 4.837036 7.2977295 4.837036 11.677704l0 66.0571c0 9.12085 -7.393921 16.51477 -16.51477 16.51477l-91.94684 0l0 0c-9.12085 0 -16.51474 -7.393921 -16.51474 -16.51477z" fill-rule="evenodd"/><path stroke="#000000" stroke-width="1.0" stroke-linejoin="round" stroke-linecap="butt" d="m506.28348 489.18668l0 0c0 -9.12085 7.3938904 -16.51477 16.51474 -16.51477l91.94684 0c4.380005 0 8.580627 1.7399597 11.677734 4.8370667c3.097107 3.0971375 4.837036 7.2977295 4.837036 11.677704l0 66.0571c0 9.12085 -7.393921 16.51477 -16.51477 16.51477l-91.94684 0l0 0c-9.12085 0 -16.51474 -7.393921 -16.51474 -16.51477z" fill-rule="evenodd"/><path fill="#9fc5e8" d="m783.5381 489.18668l0 0c0 -9.12085 7.39386 -16.51477 16.51471 -16.51477l91.9469 0c4.379944 0 8.580566 1.7399597 11.677673 4.8370667c3.097107 3.0971375 4.837097 7.2977295 4.837097 11.677704l0 66.0571c0 9.12085 -7.393921 16.51477 -16.51477 16.51477l-91.9469 0l0 0c-9.12085 0 -16.51471 -7.393921 -16.51471 -16.51477z" fill-rule="evenodd"/><path stroke="#000000" stroke-width="1.0" stroke-linejoin="round" stroke-linecap="butt" d="m783.5381 489.18668l0 0c0 -9.12085 7.39386 -16.51477 16.51471 -16.51477l91.9469 0c4.379944 0 8.580566 1.7399597 11.677673 4.8370667c3.097107 3.0971375 4.837097 7.2977295 4.837097 11.677704l0 66.0571c0 9.12085 -7.393921 16.51477 -16.51477 16.51477l-91.9469 0l0 0c-9.12085 0 -16.51471 -7.393921 -16.51471 -16.51477z" fill-rule="evenodd"/><path fill="#9fc5e8" d="m644.91077 489.18668l0 0c0 -9.12085 7.393921 -16.51477 16.51477 -16.51477l91.94684 0c4.380005 0 8.580566 1.7399597 11.677673 4.8370667c3.097168 3.0971375 4.837097 7.2977295 4.837097 11.677704l0 66.0571c0 9.12085 -7.393921 16.51477 -16.51477 16.51477l-91.94684 0l0 0c-9.12085 0 -16.51477 -7.393921 -16.51477 -16.51477z" fill-rule="evenodd"/><path stroke="#000000" stroke-width="1.0" stroke-linejoin="round" stroke-linecap="butt" d="m644.91077 489.18668l0 0c0 -9.12085 7.393921 -16.51477 16.51477 -16.51477l91.94684 0c4.380005 0 8.580566 1.7399597 11.677673 4.8370667c3.097168 3.0971375 4.837097 7.2977295 4.837097 11.677704l0 66.0571c0 9.12085 -7.393921 16.51477 -16.51477 16.51477l-91.94684 0l0 0c-9.12085 0 -16.51477 -7.393921 -16.51477 -16.51477z" fill-rule="evenodd"/><path fill="#000000" fill-opacity="0.0" d="m550.4803 482.3727l77.98425 0l0 22.11023l-77.98425 0z" fill-rule="evenodd"/><path fill="#000000" d="m561.0584 501.96783l0 -12.453125l1.90625 0l0 1.78125q1.375 -2.0625 3.953125 -2.0625q1.125 0 2.0625 0.40625q0.953125 0.40625 1.421875 1.0625q0.46875 0.65625 0.65625 1.5625q0.125 0.578125 0.125 2.046875l0 7.65625l-2.109375 0l0 -7.578125q0 -1.28125 -0.25 -1.921875q-0.25 -0.640625 -0.875 -1.015625q-0.625 -0.390625 -1.46875 -0.390625q-1.34375 0 -2.328125 0.859375q-0.984375 0.859375 -0.984375 3.25l0 6.796875l-2.109375 0zm12.566406 -6.21875q0 -3.46875 1.921875 -5.125q1.609375 -1.390625 3.921875 -1.390625q2.5625 0 4.1875 1.6875q1.625 1.6875 1.625 4.640625q0 2.40625 -0.71875 3.78125q-0.71875 1.375 -2.09375 2.140625q-1.375 0.765625 -3.0 0.765625q-2.625 0 -4.234375 -1.671875q-1.609375 -1.6875 -1.609375 -4.828125zm2.171875 0q0 2.390625 1.03125 3.578125q1.046875 1.1875 2.640625 1.1875q1.5625 0 2.609375 -1.1875q1.046875 -1.203125 1.046875 -3.65625q0 -2.3125 -1.0625 -3.5q-1.046875 -1.1875 -2.59375 -1.1875q-1.59375 0 -2.640625 1.1875q-1.03125 1.1875 -1.03125 3.578125zm20.035156 6.21875l0 -1.578125q-1.1875 1.859375 -3.484375 1.859375q-1.484375 0 -2.734375 -0.8125q-1.25 -0.828125 -1.9375 -2.296875q-0.671875 -1.46875 -0.671875 -3.390625q0 -1.859375 0.609375 -3.375q0.625 -1.515625 1.859375 -2.328125q1.25 -0.8125 2.78125 -0.8125q1.125 0 2.0 0.484375q0.890625 0.46875 1.4375 1.234375l0 -6.171875l2.09375 0l0 17.1875l-1.953125 0zm-6.671875 -6.21875q0 2.390625 1.0 3.578125q1.015625 1.1875 2.390625 1.1875q1.390625 0 2.34375 -1.125q0.96875 -1.140625 0.96875 -3.453125q0 -2.5625 -0.984375 -3.75q-0.984375 -1.203125 -2.421875 -1.203125q-1.40625 0 -2.359375 1.15625q-0.9375 1.140625 -0.9375 3.609375zm20.472656 2.203125l2.171875 0.28125q-0.515625 1.90625 -1.90625 2.96875q-1.390625 1.046875 -3.5625 1.046875q-2.734375 0 -4.34375 -1.671875q-1.59375 -1.6875 -1.59375 -4.734375q0 -3.140625 1.609375 -4.875q1.625 -1.734375 4.203125 -1.734375q2.5 0 4.078125 1.703125q1.59375 1.703125 1.59375 4.78125q0 0.1875 -0.015625 0.5625l-9.28125 0q0.109375 2.046875 1.15625 3.140625q1.046875 1.09375 2.609375 1.09375q1.15625 0 1.96875 -0.609375q0.828125 -0.609375 1.3125 -1.953125zm-6.9375 -3.40625l6.953125 0q-0.140625 -1.5625 -0.796875 -2.359375q-1.0 -1.21875 -2.609375 -1.21875q-1.453125 0 -2.453125 0.984375q-0.984375 0.96875 -1.09375 2.59375z" fill-rule="nonzero"/><path fill="#000000" fill-opacity="0.0" d="m827.73755 482.37796l77.98425 0l0 22.11023l-77.98425 0z" fill-rule="evenodd"/><path fill="#000000" d="m838.3157 501.97308l0 -12.453125l1.90625 0l0 1.78125q1.375 -2.0625 3.953125 -2.0625q1.125 0 2.0625 0.40625q0.953125 0.40625 1.421875 1.0625q0.46875 0.65625 0.65625 1.5625q0.125 0.578125 0.125 2.046875l0 7.65625l-2.109375 0l0 -7.578125q0 -1.28125 -0.25 -1.921875q-0.25 -0.640625 -0.875 -1.015625q-0.625 -0.390625 -1.46875 -0.390625q-1.34375 0 -2.328125 0.859375q-0.984375 0.859375 -0.984375 3.25l0 6.796875l-2.109375 0zm12.566406 -6.21875q0 -3.46875 1.921875 -5.125q1.609375 -1.390625 3.921875 -1.390625q2.5625 0 4.1875 1.6875q1.625 1.6875 1.625 4.640625q0 2.40625 -0.71875 3.78125q-0.71875 1.375 -2.09375 2.140625q-1.375 0.765625 -3.0 0.765625q-2.625 0 -4.234375 -1.671875q-1.609375 -1.6875 -1.609375 -4.828125zm2.171875 0q0 2.390625 1.03125 3.578125q1.046875 1.1875 2.640625 1.1875q1.5625 0 2.609375 -1.1875q1.046875 -1.203125 1.046875 -3.65625q0 -2.3125 -1.0625 -3.5q-1.046875 -1.1875 -2.59375 -1.1875q-1.59375 0 -2.640625 1.1875q-1.03125 1.1875 -1.03125 3.578125zm20.035156 6.21875l0 -1.578125q-1.1875 1.859375 -3.484375 1.859375q-1.484375 0 -2.734375 -0.8125q-1.25 -0.828125 -1.9375 -2.296875q-0.671875 -1.46875 -0.671875 -3.390625q0 -1.859375 0.609375 -3.375q0.625 -1.515625 1.859375 -2.328125q1.25 -0.8125 2.78125 -0.8125q1.125 0 2.0 0.484375q0.890625 0.46875 1.4375 1.234375l0 -6.171875l2.09375 0l0 17.1875l-1.953125 0zm-6.671875 -6.21875q0 2.390625 1.0 3.578125q1.015625 1.1875 2.390625 1.1875q1.390625 0 2.34375 -1.125q0.96875 -1.140625 0.96875 -3.453125q0 -2.5625 -0.984375 -3.75q-0.984375 -1.203125 -2.421875 -1.203125q-1.40625 0 -2.359375 1.15625q-0.9375 1.140625 -0.9375 3.609375zm20.472656 2.203125l2.171875 0.28125q-0.515625 1.90625 -1.90625 2.96875q-1.390625 1.046875 -3.5625 1.046875q-2.734375 0 -4.34375 -1.671875q-1.59375 -1.6875 -1.59375 -4.734375q0 -3.140625 1.609375 -4.875q1.625 -1.734375 4.203125 -1.734375q2.5 0 4.078125 1.703125q1.59375 1.703125 1.59375 4.78125q0 0.1875 -0.015625 0.5625l-9.28125 0q0.109375 2.046875 1.15625 3.140625q1.046875 1.09375 2.609375 1.09375q1.15625 0 1.96875 -0.609375q0.828125 -0.609375 1.3125 -1.953125zm-6.9375 -3.40625l6.953125 0q-0.140625 -1.5625 -0.796875 -2.359375q-1.0 -1.21875 -2.609375 -1.21875q-1.453125 0 -2.453125 0.984375q-0.984375 0.96875 -1.09375 2.59375z" fill-rule="nonzero"/><path fill="#000000" fill-opacity="0.0" d="m689.1076 482.3727l77.98425 0l0 22.11023l-77.98425 0z" fill-rule="evenodd"/><path fill="#000000" d="m699.6857 501.96783l0 -12.453125l1.90625 0l0 1.78125q1.375 -2.0625 3.953125 -2.0625q1.125 0 2.0625 0.40625q0.953125 0.40625 1.421875 1.0625q0.46875 0.65625 0.65625 1.5625q0.125 0.578125 0.125 2.046875l0 7.65625l-2.109375 0l0 -7.578125q0 -1.28125 -0.25 -1.921875q-0.25 -0.640625 -0.875 -1.015625q-0.625 -0.390625 -1.46875 -0.390625q-1.34375 0 -2.328125 0.859375q-0.984375 0.859375 -0.984375 3.25l0 6.796875l-2.109375 0zm12.566406 -6.21875q0 -3.46875 1.921875 -5.125q1.609375 -1.390625 3.921875 -1.390625q2.5625 0 4.1875 1.6875q1.625 1.6875 1.625 4.640625q0 2.40625 -0.71875 3.78125q-0.71875 1.375 -2.09375 2.140625q-1.375 0.765625 -3.0 0.765625q-2.625 0 -4.234375 -1.671875q-1.609375 -1.6875 -1.609375 -4.828125zm2.171875 0q0 2.390625 1.03125 3.578125q1.046875 1.1875 2.640625 1.1875q1.5625 0 2.609375 -1.1875q1.046875 -1.203125 1.046875 -3.65625q0 -2.3125 -1.0625 -3.5q-1.046875 -1.1875 -2.59375 -1.1875q-1.59375 0 -2.640625 1.1875q-1.03125 1.1875 -1.03125 3.578125zm20.035156 6.21875l0 -1.578125q-1.1875 1.859375 -3.484375 1.859375q-1.484375 0 -2.734375 -0.8125q-1.25 -0.828125 -1.9375 -2.296875q-0.671875 -1.46875 -0.671875 -3.390625q0 -1.859375 0.609375 -3.375q0.625 -1.515625 1.859375 -2.328125q1.25 -0.8125 2.78125 -0.8125q1.125 0 2.0 0.484375q0.890625 0.46875 1.4375 1.234375l0 -6.171875l2.09375 0l0 17.1875l-1.953125 0zm-6.671875 -6.21875q0 2.390625 1.0 3.578125q1.015625 1.1875 2.390625 1.1875q1.390625 0 2.34375 -1.125q0.96875 -1.140625 0.96875 -3.453125q0 -2.5625 -0.984375 -3.75q-0.984375 -1.203125 -2.421875 -1.203125q-1.40625 0 -2.359375 1.15625q-0.9375 1.140625 -0.9375 3.609375zm20.472656 2.203125l2.171875 0.28125q-0.515625 1.90625 -1.90625 2.96875q-1.390625 1.046875 -3.5625 1.046875q-2.734375 0 -4.34375 -1.671875q-1.59375 -1.6875 -1.59375 -4.734375q0 -3.140625 1.609375 -4.875q1.625 -1.734375 4.203125 -1.734375q2.5 0 4.078125 1.703125q1.59375 1.703125 1.59375 4.78125q0 0.1875 -0.015625 0.5625l-9.28125 0q0.109375 2.046875 1.15625 3.140625q1.046875 1.09375 2.609375 1.09375q1.15625 0 1.96875 -0.609375q0.828125 -0.609375 1.3125 -1.953125zm-6.9375 -3.40625l6.953125 0q-0.140625 -1.5625 -0.796875 -2.359375q-1.0 -1.21875 -2.609375 -1.21875q-1.453125 0 -2.453125 0.984375q-0.984375 0.96875 -1.09375 2.59375z" fill-rule="nonzero"/><path fill="#ffffff" d="m529.3727 519.8138l0 0c0 -3.7631226 3.0506592 -6.8137817 6.8137817 -6.8137817l81.900024 0c1.8071289 0 3.5402222 0.7178955 4.818054 1.9957275c1.277832 1.277832 1.9957275 3.0109253 1.9957275 4.818054l0 27.254333c0 3.7631226 -3.0506592 6.8137817 -6.8137817 6.8137817l-81.900024 0c-3.7631226 0 -6.8137817 -3.0506592 -6.8137817 -6.8137817z" fill-rule="evenodd"/><path stroke="#000000" stroke-width="1.0" stroke-linejoin="round" stroke-linecap="butt" d="m529.3727 519.8138l0 0c0 -3.7631226 3.0506592 -6.8137817 6.8137817 -6.8137817l81.900024 0c1.8071289 0 3.5402222 0.7178955 4.818054 1.9957275c1.277832 1.277832 1.9957275 3.0109253 1.9957275 4.818054l0 27.254333c0 3.7631226 -3.0506592 6.8137817 -6.8137817 6.8137817l-81.900024 0c-3.7631226 0 -6.8137817 -3.0506592 -6.8137817 -6.8137817z" fill-rule="evenodd"/><path fill="#ffffff" d="m524.8727 524.9319l0 0c0 -3.7631226 3.0506592 -6.8137817 6.8137817 -6.8137817l81.900024 0c1.8071289 0 3.5402222 0.7178955 4.818054 1.9957275c1.277832 1.277832 1.9957275 3.0109253 1.9957275 4.818054l0 27.254333c0 3.7631226 -3.0506592 6.8137817 -6.8137817 6.8137817l-81.900024 0c-3.7631226 0 -6.8137817 -3.0506592 -6.8137817 -6.8137817z" fill-rule="evenodd"/><path stroke="#000000" stroke-width="1.0" stroke-linejoin="round" stroke-linecap="butt" d="m524.8727 524.9319l0 0c0 -3.7631226 3.0506592 -6.8137817 6.8137817 -6.8137817l81.900024 0c1.8071289 0 3.5402222 0.7178955 4.818054 1.9957275c1.277832 1.277832 1.9957275 3.0109253 1.9957275 4.818054l0 27.254333c0 3.7631226 -3.0506592 6.8137817 -6.8137817 6.8137817l-81.900024 0c-3.7631226 0 -6.8137817 -3.0506592 -6.8137817 -6.8137817z" fill-rule="evenodd"/><path fill="#ffffff" d="m519.4199 530.8556l0 0c0 -3.786377 3.069458 -6.855835 6.855835 -6.855835l81.81598 0c1.8182373 0 3.5620728 0.7223511 4.8477783 2.0080566c1.2857056 1.2857056 2.0079956 3.02948 2.0079956 4.8477783l0 27.422241c0 3.786377 -3.069458 6.855835 -6.855774 6.855835l-81.81598 0c-3.786377 0 -6.855835 -3.069458 -6.855835 -6.855835z" fill-rule="evenodd"/><path stroke="#000000" stroke-width="1.0" stroke-linejoin="round" stroke-linecap="butt" d="m519.4199 530.8556l0 0c0 -3.786377 3.069458 -6.855835 6.855835 -6.855835l81.81598 0c1.8182373 0 3.5620728 0.7223511 4.8477783 2.0080566c1.2857056 1.2857056 2.0079956 3.02948 2.0079956 4.8477783l0 27.422241c0 3.786377 -3.069458 6.855835 -6.855774 6.855835l-81.81598 0c-3.786377 0 -6.855835 -3.069458 -6.855835 -6.855835z" fill-rule="evenodd"/><path fill="#000000" d="m540.07434 553.1067l0 -12.453125l1.90625 0l0 1.78125q1.375 -2.0625 3.953125 -2.0625q1.125 0 2.0625 0.40625q0.953125 0.40625 1.421875 1.0625q0.46875 0.65625 0.65625 1.5625q0.125 0.578125 0.125 2.046875l0 7.65625l-2.109375 0l0 -7.578125q0 -1.28125 -0.25 -1.921875q-0.25 -0.640625 -0.875 -1.015625q-0.625 -0.390625 -1.46875 -0.390625q-1.34375 0 -2.328125 0.859375q-0.984375 0.859375 -0.984375 3.25l0 6.796875l-2.109375 0zm12.972656 1.03125l2.046875 0.3125q0.125 0.9375 0.71875 1.375q0.78125 0.59375 2.140625 0.59375q1.46875 0 2.265625 -0.59375q0.796875 -0.578125 1.078125 -1.640625q0.15625 -0.640625 0.140625 -2.703125q-1.375 1.625 -3.4375 1.625q-2.5625 0 -3.96875 -1.84375q-1.40625 -1.859375 -1.40625 -4.453125q0 -1.78125 0.640625 -3.28125q0.640625 -1.515625 1.859375 -2.328125q1.234375 -0.828125 2.890625 -0.828125q2.203125 0 3.625 1.78125l0 -1.5l1.953125 0l0 10.765625q0 2.90625 -0.59375 4.109375q-0.59375 1.21875 -1.875 1.921875q-1.28125 0.703125 -3.15625 0.703125q-2.234375 0 -3.609375 -1.0q-1.359375 -1.0 -1.3125 -3.015625zm1.734375 -7.484375q0 2.453125 0.96875 3.578125q0.984375 1.125 2.453125 1.125q1.453125 0 2.4375 -1.109375q0.984375 -1.125 0.984375 -3.515625q0 -2.28125 -1.015625 -3.4375q-1.015625 -1.171875 -2.453125 -1.171875q-1.40625 0 -2.390625 1.140625q-0.984375 1.140625 -0.984375 3.390625zm12.003906 -8.296875l0 -2.4375l2.109375 0l0 2.4375l-2.109375 0zm0 14.75l0 -12.453125l2.109375 0l0 12.453125l-2.109375 0zm5.3164062 0l0 -12.453125l1.90625 0l0 1.78125q1.375 -2.0625 3.953125 -2.0625q1.125 0 2.0625 0.40625q0.953125 0.40625 1.421875 1.0625q0.46875 0.65625 0.65625 1.5625q0.125 0.578125 0.125 2.046875l0 7.65625l-2.109375 0l0 -7.578125q0 -1.28125 -0.25 -1.921875q-0.25 -0.640625 -0.875 -1.015625q-0.625 -0.390625 -1.46875 -0.390625q-1.34375 0 -2.328125 0.859375q-0.984375 0.859375 -0.984375 3.25l0 6.796875l-2.109375 0zm11.941406 0l4.546875 -6.46875l-4.203125 -5.984375l2.640625 0l1.90625 2.921875q0.546875 0.828125 0.875 1.390625q0.515625 -0.765625 0.9375 -1.359375l2.109375 -2.953125l2.515625 0l-4.296875 5.859375l4.625 6.59375l-2.59375 0l-2.546875 -3.875l-0.6875 -1.03125l-3.265625 4.90625l-2.5625 0z" fill-rule="nonzero"/><path fill="#ffffff" d="m805.60236 521.0094l0 0c0 -3.7631226 3.0506592 -6.8137817 6.8137817 -6.8137817l81.900024 0c1.8071289 0 3.5402222 0.7178955 4.818054 1.9957275c1.277832 1.277832 1.9957275 3.0109253 1.9957275 4.818054l0 27.254333c0 3.7631836 -3.0506592 6.8137817 -6.8137817 6.8137817l-81.900024 0c-3.7631226 0 -6.8137817 -3.0505981 -6.8137817 -6.8137817z" fill-rule="evenodd"/><path stroke="#000000" stroke-width="1.0" stroke-linejoin="round" stroke-linecap="butt" d="m805.60236 521.0094l0 0c0 -3.7631226 3.0506592 -6.8137817 6.8137817 -6.8137817l81.900024 0c1.8071289 0 3.5402222 0.7178955 4.818054 1.9957275c1.277832 1.277832 1.9957275 3.0109253 1.9957275 4.818054l0 27.254333c0 3.7631836 -3.0506592 6.8137817 -6.8137817 6.8137817l-81.900024 0c-3.7631226 0 -6.8137817 -3.0505981 -6.8137817 -6.8137817z" fill-rule="evenodd"/><path fill="#ffffff" d="m801.10236 526.12756l0 0c0 -3.7631836 3.0506592 -6.8137817 6.8137817 -6.8137817l81.900024 0c1.8071289 0 3.5402222 0.7178345 4.818054 1.9956665c1.277832 1.277832 1.9957275 3.0109863 1.9957275 4.818115l0 27.254272c0 3.7631836 -3.0506592 6.8137817 -6.8137817 6.8137817l-81.900024 0c-3.7631226 0 -6.8137817 -3.0505981 -6.8137817 -6.8137817z" fill-rule="evenodd"/><path stroke="#000000" stroke-width="1.0" stroke-linejoin="round" stroke-linecap="butt" d="m801.10236 526.12756l0 0c0 -3.7631836 3.0506592 -6.8137817 6.8137817 -6.8137817l81.900024 0c1.8071289 0 3.5402222 0.7178345 4.818054 1.9956665c1.277832 1.277832 1.9957275 3.0109863 1.9957275 4.818115l0 27.254272c0 3.7631836 -3.0506592 6.8137817 -6.8137817 6.8137817l-81.900024 0c-3.7631226 0 -6.8137817 -3.0505981 -6.8137817 -6.8137817z" fill-rule="evenodd"/><path fill="#ffffff" d="m796.6772 530.7272l0 0c0 -3.786316 3.069397 -6.855774 6.855774 -6.855774l81.81598 0c1.8182983 0 3.5620728 0.72229004 4.8477783 2.0079956c1.2857056 1.2857056 2.0079956 3.029541 2.0079956 4.8477783l0 27.422302c0 3.786316 -3.069397 6.855774 -6.855774 6.855774l-81.81598 0c-3.786377 0 -6.855774 -3.069458 -6.855774 -6.855774z" fill-rule="evenodd"/><path stroke="#000000" stroke-width="1.0" stroke-linejoin="round" stroke-linecap="butt" d="m796.6772 530.7272l0 0c0 -3.786316 3.069397 -6.855774 6.855774 -6.855774l81.81598 0c1.8182983 0 3.5620728 0.72229004 4.8477783 2.0079956c1.2857056 1.2857056 2.0079956 3.029541 2.0079956 4.8477783l0 27.422302c0 3.786316 -3.069397 6.855774 -6.855774 6.855774l-81.81598 0c-3.786377 0 -6.855774 -3.069458 -6.855774 -6.855774z" fill-rule="evenodd"/><path fill="#000000" d="m817.33154 552.97833l0 -12.453125l1.90625 0l0 1.78125q1.375 -2.0625 3.953125 -2.0625q1.125 0 2.0625 0.40625q0.953125 0.40625 1.421875 1.0625q0.46875 0.65625 0.65625 1.5625q0.125 0.578125 0.125 2.046875l0 7.65625l-2.109375 0l0 -7.578125q0 -1.28125 -0.25 -1.921875q-0.25 -0.640625 -0.875 -1.015625q-0.625 -0.390625 -1.46875 -0.390625q-1.34375 0 -2.328125 0.859375q-0.984375 0.859375 -0.984375 3.25l0 6.796875l-2.109375 0zm12.972656 1.03125l2.046875 0.3125q0.125 0.9375 0.71875 1.375q0.78125 0.59375 2.140625 0.59375q1.46875 0 2.265625 -0.59375q0.796875 -0.578125 1.078125 -1.640625q0.15625 -0.640625 0.140625 -2.703125q-1.375 1.625 -3.4375 1.625q-2.5625 0 -3.96875 -1.84375q-1.40625 -1.859375 -1.40625 -4.453125q0 -1.78125 0.640625 -3.28125q0.640625 -1.515625 1.859375 -2.328125q1.234375 -0.828125 2.890625 -0.828125q2.203125 0 3.625 1.78125l0 -1.5l1.953125 0l0 10.765625q0 2.90625 -0.59375 4.109375q-0.59375 1.21875 -1.875 1.921875q-1.28125 0.703125 -3.15625 0.703125q-2.234375 0 -3.609375 -1.0q-1.359375 -1.0 -1.3125 -3.015625zm1.734375 -7.484375q0 2.453125 0.96875 3.578125q0.984375 1.125 2.453125 1.125q1.453125 0 2.4375 -1.109375q0.984375 -1.125 0.984375 -3.515625q0 -2.28125 -1.015625 -3.4375q-1.015625 -1.171875 -2.453125 -1.171875q-1.40625 0 -2.390625 1.140625q-0.984375 1.140625 -0.984375 3.390625zm12.003906 -8.296875l0 -2.4375l2.109375 0l0 2.4375l-2.109375 0zm0 14.75l0 -12.453125l2.109375 0l0 12.453125l-2.109375 0zm5.3164062 0l0 -12.453125l1.90625 0l0 1.78125q1.375 -2.0625 3.953125 -2.0625q1.125 0 2.0625 0.40625q0.953125 0.40625 1.421875 1.0625q0.46875 0.65625 0.65625 1.5625q0.125 0.578125 0.125 2.046875l0 7.65625l-2.109375 0l0 -7.578125q0 -1.28125 -0.25 -1.921875q-0.25 -0.640625 -0.875 -1.015625q-0.625 -0.390625 -1.46875 -0.390625q-1.34375 0 -2.328125 0.859375q-0.984375 0.859375 -0.984375 3.25l0 6.796875l-2.109375 0zm11.941406 0l4.546875 -6.46875l-4.203125 -5.984375l2.640625 0l1.90625 2.921875q0.546875 0.828125 0.875 1.390625q0.515625 -0.765625 0.9375 -1.359375l2.109375 -2.953125l2.515625 0l-4.296875 5.859375l4.625 6.59375l-2.59375 0l-2.546875 -3.875l-0.6875 -1.03125l-3.265625 4.90625l-2.5625 0z" fill-rule="nonzero"/><path fill="#ffffff" d="m667.5 520.8138l0 0c0 -3.7631226 3.0506592 -6.8137817 6.8137817 -6.8137817l81.89996 0c1.8071289 0 3.5402832 0.7178955 4.818115 1.9957275c1.277832 1.277832 1.9957275 3.0109253 1.9957275 4.818054l0 27.254333c0 3.7631226 -3.0506592 6.8137817 -6.813843 6.8137817l-81.89996 0c-3.7631226 0 -6.8137817 -3.0506592 -6.8137817 -6.8137817z" fill-rule="evenodd"/><path stroke="#000000" stroke-width="1.0" stroke-linejoin="round" stroke-linecap="butt" d="m667.5 520.8138l0 0c0 -3.7631226 3.0506592 -6.8137817 6.8137817 -6.8137817l81.89996 0c1.8071289 0 3.5402832 0.7178955 4.818115 1.9957275c1.277832 1.277832 1.9957275 3.0109253 1.9957275 4.818054l0 27.254333c0 3.7631226 -3.0506592 6.8137817 -6.813843 6.8137817l-81.89996 0c-3.7631226 0 -6.8137817 -3.0506592 -6.8137817 -6.8137817z" fill-rule="evenodd"/><path fill="#ffffff" d="m663.0 525.9319l0 0c0 -3.7631226 3.0506592 -6.8137817 6.8137817 -6.8137817l81.89996 0c1.8071289 0 3.5402832 0.7178955 4.818115 1.9957275c1.277832 1.277832 1.9957275 3.0109253 1.9957275 4.818054l0 27.254333c0 3.7631226 -3.0506592 6.8137817 -6.813843 6.8137817l-81.89996 0c-3.7631226 0 -6.8137817 -3.0506592 -6.8137817 -6.8137817z" fill-rule="evenodd"/><path stroke="#000000" stroke-width="1.0" stroke-linejoin="round" stroke-linecap="butt" d="m663.0 525.9319l0 0c0 -3.7631226 3.0506592 -6.8137817 6.8137817 -6.8137817l81.89996 0c1.8071289 0 3.5402832 0.7178955 4.818115 1.9957275c1.277832 1.277832 1.9957275 3.0109253 1.9957275 4.818054l0 27.254333c0 3.7631226 -3.0506592 6.8137817 -6.813843 6.8137817l-81.89996 0c-3.7631226 0 -6.8137817 -3.0506592 -6.8137817 -6.8137817z" fill-rule="evenodd"/><path fill="#ffffff" d="m658.04724 531.2075l0 0c0 -3.786377 3.069458 -6.855774 6.855774 -6.855774l81.81598 0c1.8182983 0 3.5620728 0.72229004 4.8477783 2.0079956c1.2857056 1.2857056 2.0080566 3.02948 2.0080566 4.8477783l0 27.422302c0 3.786316 -3.069458 6.855774 -6.855835 6.855774l-81.81598 0c-3.786316 0 -6.855774 -3.069458 -6.855774 -6.855774z" fill-rule="evenodd"/><path stroke="#000000" stroke-width="1.0" stroke-linejoin="round" stroke-linecap="butt" d="m658.04724 531.2075l0 0c0 -3.786377 3.069458 -6.855774 6.855774 -6.855774l81.81598 0c1.8182983 0 3.5620728 0.72229004 4.8477783 2.0079956c1.2857056 1.2857056 2.0080566 3.02948 2.0080566 4.8477783l0 27.422302c0 3.786316 -3.069458 6.855774 -6.855835 6.855774l-81.81598 0c-3.786316 0 -6.855774 -3.069458 -6.855774 -6.855774z" fill-rule="evenodd"/><path fill="#000000" d="m678.70166 553.4586l0 -12.453125l1.90625 0l0 1.78125q1.375 -2.0625 3.953125 -2.0625q1.125 0 2.0625 0.40625q0.953125 0.40625 1.421875 1.0625q0.46875 0.65625 0.65625 1.5625q0.125 0.578125 0.125 2.046875l0 7.65625l-2.109375 0l0 -7.578125q0 -1.28125 -0.25 -1.921875q-0.25 -0.640625 -0.875 -1.015625q-0.625 -0.390625 -1.46875 -0.390625q-1.34375 0 -2.328125 0.859375q-0.984375 0.859375 -0.984375 3.25l0 6.796875l-2.109375 0zm12.972656 1.03125l2.046875 0.3125q0.125 0.9375 0.71875 1.375q0.78125 0.59375 2.140625 0.59375q1.46875 0 2.265625 -0.59375q0.796875 -0.578125 1.078125 -1.640625q0.15625 -0.640625 0.140625 -2.703125q-1.375 1.625 -3.4375 1.625q-2.5625 0 -3.96875 -1.84375q-1.40625 -1.859375 -1.40625 -4.453125q0 -1.78125 0.640625 -3.28125q0.640625 -1.515625 1.859375 -2.328125q1.234375 -0.828125 2.890625 -0.828125q2.203125 0 3.625 1.78125l0 -1.5l1.953125 0l0 10.765625q0 2.90625 -0.59375 4.109375q-0.59375 1.21875 -1.875 1.921875q-1.28125 0.703125 -3.15625 0.703125q-2.234375 0 -3.609375 -1.0q-1.359375 -1.0 -1.3125 -3.015625zm1.734375 -7.484375q0 2.453125 0.96875 3.578125q0.984375 1.125 2.453125 1.125q1.453125 0 2.4375 -1.109375q0.984375 -1.125 0.984375 -3.515625q0 -2.28125 -1.015625 -3.4375q-1.015625 -1.171875 -2.453125 -1.171875q-1.40625 0 -2.390625 1.140625q-0.984375 1.140625 -0.984375 3.390625zm12.003906 -8.296875l0 -2.4375l2.109375 0l0 2.4375l-2.109375 0zm0 14.75l0 -12.453125l2.109375 0l0 12.453125l-2.109375 0zm5.3164062 0l0 -12.453125l1.90625 0l0 1.78125q1.375 -2.0625 3.953125 -2.0625q1.125 0 2.0625 0.40625q0.953125 0.40625 1.421875 1.0625q0.46875 0.65625 0.65625 1.5625q0.125 0.578125 0.125 2.046875l0 7.65625l-2.109375 0l0 -7.578125q0 -1.28125 -0.25 -1.921875q-0.25 -0.640625 -0.875 -1.015625q-0.625 -0.390625 -1.46875 -0.390625q-1.34375 0 -2.328125 0.859375q-0.984375 0.859375 -0.984375 3.25l0 6.796875l-2.109375 0zm11.941406 0l4.546875 -6.46875l-4.203125 -5.984375l2.640625 0l1.90625 2.921875q0.546875 0.828125 0.875 1.390625q0.515625 -0.765625 0.9375 -1.359375l2.109375 -2.953125l2.515625 0l-4.296875 5.859375l4.625 6.59375l-2.59375 0l-2.546875 -3.875l-0.6875 -1.03125l-3.265625 4.90625l-2.5625 0z" fill-rule="nonzero"/><path fill="#000000" fill-opacity="0.0" d="m372.69815 217.7979c0 56.81331 0.01574707 85.221085 0.03149414 113.6266c0.01574707 28.405518 0.03152466 56.808746 0.03152466 113.61749" fill-rule="evenodd"/><path stroke="#ff0000" stroke-width="2.0" stroke-linejoin="round" stroke-linecap="butt" d="m372.69815 217.7979c0 56.81331 0.01574707 85.221085 0.03149414 113.6266c0.007873535 14.202759 0.01574707 28.404938 0.02166748 46.15753c0.002960205 8.876312 0.0054016113 18.640198 0.0071411133 29.735565l0.0018310547 25.724396" fill-rule="evenodd"/><path fill="#ff0000" stroke="#ff0000" stroke-width="2.0" stroke-linecap="butt" d="m369.45682 433.04224l3.3041382 9.075958l3.3027954 -9.076447z" fill-rule="evenodd"/><path fill="#000000" fill-opacity="0.0" d="m372.69815 445.04987c0 -12.499939 49.015747 -28.452637 98.031494 -24.999878c49.015778 3.4527588 98.031525 26.310974 98.031525 52.62195" fill-rule="evenodd"/><path stroke="#ff0000" stroke-width="2.0" stroke-linejoin="round" stroke-linecap="butt" d="m372.69815 445.04987c0 -12.499908 49.015747 -28.452637 98.031494 -24.999878c24.507874 1.7263794 49.015778 8.304138 67.3967 17.739136c9.19043 4.7175293 16.849121 10.149353 22.210205 16.046234c1.340271 1.4742432 2.5369873 2.9775085 3.578064 4.5059814c0.52056885 0.7642212 1.0021973 1.534729 1.4434814 2.3110657l0.2453003 0.44244385" fill-rule="evenodd"/><path fill="#ff0000" stroke="#ff0000" stroke-width="2.0" stroke-linecap="butt" d="m562.4163 461.96414l5.5754395 7.887024l0.798645 -9.62561z" fill-rule="evenodd"/><path fill="#000000" fill-opacity="0.0" d="m372.69815 445.04987c0 -23.301819 83.677185 -50.056396 167.35434 -46.603638c83.677185 3.4527588 167.35431 37.112854 167.35431 74.22571" fill-rule="evenodd"/><path stroke="#ff0000" stroke-width="2.0" stroke-linejoin="round" stroke-linecap="butt" d="m372.69815 445.04987c0 -23.301788 83.677185 -50.056396 167.35434 -46.603638c41.838562 1.7263794 83.677185 11.004608 115.05609 24.490326c15.689453 6.742859 28.764038 14.537598 37.9162 22.966156c4.576111 4.2142944 8.171631 8.587036 10.623108 13.0660095c0.30639648 0.5598755 0.5949707 1.1213684 0.8654175 1.6844482l0.15789795 0.3347473" fill-rule="evenodd"/><path fill="#ff0000" stroke="#ff0000" stroke-width="2.0" stroke-linecap="butt" d="m701.45465 461.741l5.2856445 8.084106l1.1473389 -9.5903015z" fill-rule="evenodd"/><path fill="#000000" fill-opacity="0.0" d="m372.69815 445.04987c0 -38.156128 118.33072 -79.765015 236.6614 -76.312256c118.33075 3.4527588 236.66144 51.967163 236.66144 103.934326" fill-rule="evenodd"/><path stroke="#ff0000" stroke-width="2.0" stroke-linejoin="round" stroke-linecap="butt" d="m372.69815 445.04987c0 -38.156128 118.33072 -79.765015 236.6614 -76.312256c59.165405 1.7263794 118.33075 14.71817 162.70477 33.77423c22.187012 9.528076 40.676147 20.572205 53.61859 32.48224c6.4711914 5.955017 11.555786 12.126526 15.022461 18.433258c0.8666382 1.5766907 1.6322021 3.1618042 2.2930298 4.75412c0.33050537 0.7962036 0.6347046 1.5941467 0.9123535 2.3937073l0.09069824 0.26791382" fill-rule="evenodd"/><path fill="#ff0000" stroke="#ff0000" stroke-width="2.0" stroke-linecap="butt" d="m840.7451 461.39905l4.7838135 8.390778l1.7288818 -9.502716z" fill-rule="evenodd"/><path fill="#000000" fill-opacity="0.0" d="m314.14697 458.86615l117.102356 0l0 41.13385l-117.102356 0z" fill-rule="evenodd"/><path fill="#000000" d="m332.93057 476.15613l0 -2.4375l2.109375 0l0 2.4375l-2.109375 0zm0 14.75l0 -12.453125l2.109375 0l0 12.453125l-2.109375 0zm5.3164062 4.765625l0 -17.21875l1.921875 0l0 1.625q0.6875 -0.953125 1.53125 -1.421875q0.859375 -0.484375 2.078125 -0.484375q1.59375 0 2.8125 0.828125q1.21875 0.8125 1.84375 2.3125q0.625 1.5 0.625 3.28125q0 1.90625 -0.6875 3.4375q-0.6875 1.53125 -2.0 2.34375q-1.296875 0.8125 -2.734375 0.8125q-1.0625 0 -1.90625 -0.4375q-0.828125 -0.453125 -1.375 -1.140625l0 6.0625l-2.109375 0zm1.921875 -10.921875q0 2.40625 0.96875 3.5625q0.96875 1.140625 2.359375 1.140625q1.40625 0 2.40625 -1.1875q1.0 -1.1875 1.0 -3.6875q0 -2.375 -0.984375 -3.5625q-0.96875 -1.1875 -2.328125 -1.1875q-1.359375 0 -2.390625 1.265625q-1.03125 1.25 -1.03125 3.65625zm16.035156 4.265625l0.3125 1.859375q-0.890625 0.203125 -1.59375 0.203125q-1.15625 0 -1.796875 -0.359375q-0.625 -0.375 -0.890625 -0.96875q-0.25 -0.59375 -0.25 -2.484375l0 -7.171875l-1.546875 0l0 -1.640625l1.546875 0l0 -3.078125l2.09375 -1.265625l0 4.34375l2.125 0l0 1.640625l-2.125 0l0 7.28125q0 0.90625 0.109375 1.171875q0.125 0.25 0.375 0.40625q0.25 0.140625 0.71875 0.140625q0.34375 0 0.921875 -0.078125zm10.183594 0.359375q-1.171875 0.984375 -2.265625 1.40625q-1.078125 0.40625 -2.3125 0.40625q-2.046875 0 -3.15625 -1.0q-1.09375 -1.0 -1.09375 -2.5625q0 -0.921875 0.40625 -1.671875q0.421875 -0.75 1.09375 -1.203125q0.671875 -0.46875 1.515625 -0.703125q0.625 -0.15625 1.875 -0.3125q2.5625 -0.3125 3.765625 -0.734375q0.015625 -0.421875 0.015625 -0.546875q0 -1.28125 -0.609375 -1.8125q-0.796875 -0.71875 -2.390625 -0.71875q-1.5 0 -2.203125 0.53125q-0.703125 0.515625 -1.046875 1.84375l-2.0625 -0.28125q0.28125 -1.328125 0.921875 -2.140625q0.640625 -0.8125 1.859375 -1.25q1.21875 -0.453125 2.828125 -0.453125q1.59375 0 2.59375 0.375q1.0 0.375 1.46875 0.953125q0.46875 0.5625 0.65625 1.4375q0.09375 0.53125 0.09375 1.9375l0 2.8125q0 2.9375 0.140625 3.71875q0.140625 0.78125 0.53125 1.5l-2.203125 0q-0.328125 -0.65625 -0.421875 -1.53125zm-0.171875 -4.71875q-1.15625 0.46875 -3.453125 0.796875q-1.296875 0.1875 -1.84375 0.421875q-0.53125 0.234375 -0.828125 0.6875q-0.28125 0.453125 -0.28125 1.0q0 0.84375 0.625 1.40625q0.640625 0.5625 1.875 0.5625q1.21875 0 2.171875 -0.53125q0.953125 -0.53125 1.390625 -1.453125q0.34375 -0.71875 0.34375 -2.109375l0 -0.78125zm7.3476562 6.25l-1.953125 0l0 -17.1875l2.109375 0l0 6.140625q1.328125 -1.6875 3.40625 -1.6875q1.140625 0 2.171875 0.46875q1.03125 0.46875 1.6875 1.3125q0.65625 0.828125 1.03125 2.015625q0.375 1.171875 0.375 2.53125q0 3.1875 -1.578125 4.9375q-1.578125 1.75 -3.796875 1.75q-2.203125 0 -3.453125 -1.84375l0 1.5625zm-0.03125 -6.3125q0 2.234375 0.609375 3.234375q1.0 1.625 2.703125 1.625q1.375 0 2.375 -1.203125q1.015625 -1.203125 1.015625 -3.578125q0 -2.4375 -0.96875 -3.59375q-0.953125 -1.171875 -2.328125 -1.171875q-1.390625 0 -2.40625 1.203125q-1.0 1.203125 -1.0 3.484375zm11.378906 6.3125l0 -17.1875l2.109375 0l0 17.1875l-2.109375 0zm13.910156 -4.015625l2.171875 0.28125q-0.515625 1.90625 -1.90625 2.96875q-1.390625 1.046875 -3.5625 1.046875q-2.734375 0 -4.34375 -1.671875q-1.59375 -1.6875 -1.59375 -4.734375q0 -3.140625 1.609375 -4.875q1.625 -1.734375 4.203125 -1.734375q2.5 0 4.078125 1.703125q1.59375 1.703125 1.59375 4.78125q0 0.1875 -0.015625 0.5625l-9.28125 0q0.109375 2.046875 1.15625 3.140625q1.046875 1.09375 2.609375 1.09375q1.15625 0 1.96875 -0.609375q0.828125 -0.609375 1.3125 -1.953125zm-6.9375 -3.40625l6.953125 0q-0.140625 -1.5625 -0.796875 -2.359375q-1.0 -1.21875 -2.609375 -1.21875q-1.453125 0 -2.453125 0.984375q-0.984375 0.96875 -1.09375 2.59375zm10.910156 3.703125l2.09375 -0.328125q0.171875 1.25 0.96875 1.921875q0.8125 0.671875 2.25 0.671875q1.453125 0 2.15625 -0.59375q0.703125 -0.59375 0.703125 -1.390625q0 -0.71875 -0.625 -1.125q-0.421875 -0.28125 -2.15625 -0.71875q-2.3125 -0.578125 -3.21875 -1.0q-0.890625 -0.4375 -1.359375 -1.1875q-0.453125 -0.765625 -0.453125 -1.671875q0 -0.828125 0.375 -1.53125q0.390625 -0.71875 1.046875 -1.1875q0.484375 -0.359375 1.328125 -0.609375q0.859375 -0.265625 1.828125 -0.265625q1.46875 0 2.578125 0.421875q1.109375 0.421875 1.625 1.15625q0.53125 0.71875 0.734375 1.921875l-2.0625 0.28125q-0.140625 -0.96875 -0.8125 -1.5q-0.671875 -0.546875 -1.90625 -0.546875q-1.453125 0 -2.078125 0.484375q-0.625 0.484375 -0.625 1.125q0 0.40625 0.265625 0.734375q0.25 0.34375 0.8125 0.5625q0.3125 0.125 1.859375 0.546875q2.234375 0.59375 3.109375 0.984375q0.890625 0.375 1.390625 1.109375q0.515625 0.71875 0.515625 1.796875q0 1.046875 -0.625 1.984375q-0.609375 0.9375 -1.765625 1.453125q-1.15625 0.5 -2.625 0.5q-2.421875 0 -3.703125 -1.0q-1.265625 -1.015625 -1.625 -3.0z" fill-rule="nonzero"/><path fill="#000000" fill-opacity="0.0" d="m396.32285 290.84778l131.11807 0l0 22.11023l-131.11807 0z" fill-rule="evenodd"/><path fill="#000000" d="m406.88535 310.4429l0 -12.453125l1.890625 0l0 1.890625q0.734375 -1.328125 1.34375 -1.75q0.625 -0.421875 1.359375 -0.421875q1.0625 0 2.171875 0.6875l-0.734375 1.953125q-0.765625 -0.453125 -1.546875 -0.453125q-0.6875 0 -1.25 0.421875q-0.546875 0.40625 -0.78125 1.140625q-0.34375 1.125 -0.34375 2.46875l0 6.515625l-2.109375 0zm16.539062 -4.015625l2.171875 0.28125q-0.515625 1.90625 -1.90625 2.96875q-1.390625 1.046875 -3.5625 1.046875q-2.734375 0 -4.34375 -1.671875q-1.59375 -1.6875 -1.59375 -4.734375q0 -3.140625 1.609375 -4.875q1.625 -1.734375 4.203125 -1.734375q2.5 0 4.078125 1.703125q1.59375 1.703125 1.59375 4.78125q0 0.1875 -0.015625 0.5625l-9.28125 0q0.109375 2.046875 1.15625 3.140625q1.046875 1.09375 2.609375 1.09375q1.15625 0 1.96875 -0.609375q0.828125 -0.609375 1.3125 -1.953125zm-6.9375 -3.40625l6.953125 0q-0.140625 -1.5625 -0.796875 -2.359375q-1.0 -1.21875 -2.609375 -1.21875q-1.453125 0 -2.453125 0.984375q-0.984375 0.96875 -1.09375 2.59375zm10.910156 3.703125l2.09375 -0.328125q0.171875 1.25 0.96875 1.921875q0.8125 0.671875 2.25 0.671875q1.453125 0 2.15625 -0.59375q0.703125 -0.59375 0.703125 -1.390625q0 -0.71875 -0.625 -1.125q-0.421875 -0.28125 -2.15625 -0.71875q-2.3125 -0.578125 -3.21875 -1.0q-0.890625 -0.4375 -1.359375 -1.1875q-0.453125 -0.765625 -0.453125 -1.671875q0 -0.828125 0.375 -1.53125q0.390625 -0.71875 1.046875 -1.1875q0.484375 -0.359375 1.328125 -0.609375q0.859375 -0.265625 1.828125 -0.265625q1.46875 0 2.578125 0.421875q1.109375 0.421875 1.625 1.15625q0.53125 0.71875 0.734375 1.921875l-2.0625 0.28125q-0.140625 -0.96875 -0.8125 -1.5q-0.671875 -0.546875 -1.90625 -0.546875q-1.453125 0 -2.078125 0.484375q-0.625 0.484375 -0.625 1.125q0 0.40625 0.265625 0.734375q0.25 0.34375 0.8125 0.5625q0.3125 0.125 1.859375 0.546875q2.234375 0.59375 3.109375 0.984375q0.890625 0.375 1.390625 1.109375q0.515625 0.71875 0.515625 1.796875q0 1.046875 -0.625 1.984375q-0.609375 0.9375 -1.765625 1.453125q-1.15625 0.5 -2.625 0.5q-2.421875 0 -3.703125 -1.0q-1.265625 -1.015625 -1.625 -3.0zm12.84375 8.484375l0 -17.21875l1.921875 0l0 1.625q0.6875 -0.953125 1.53125 -1.421875q0.859375 -0.484375 2.078125 -0.484375q1.59375 0 2.8125 0.828125q1.21875 0.8125 1.84375 2.3125q0.625 1.5 0.625 3.28125q0 1.90625 -0.6875 3.4375q-0.6875 1.53125 -2.0 2.34375q-1.296875 0.8125 -2.734375 0.8125q-1.0625 0 -1.90625 -0.4375q-0.828125 -0.453125 -1.375 -1.140625l0 6.0625l-2.109375 0zm1.921875 -10.921875q0 2.40625 0.96875 3.5625q0.96875 1.140625 2.359375 1.140625q1.40625 0 2.40625 -1.1875q1.0 -1.1875 1.0 -3.6875q0 -2.375 -0.984375 -3.5625q-0.96875 -1.1875 -2.328125 -1.1875q-1.359375 0 -2.390625 1.265625q-1.03125 1.25 -1.03125 3.65625zm10.644531 -0.0625q0 -3.46875 1.921875 -5.125q1.609375 -1.390625 3.921875 -1.390625q2.5625 0 4.1875 1.6875q1.625 1.6875 1.625 4.640625q0 2.40625 -0.71875 3.78125q-0.71875 1.375 -2.09375 2.140625q-1.375 0.765625 -3.0 0.765625q-2.625 0 -4.234375 -1.671875q-1.609375 -1.6875 -1.609375 -4.828125zm2.171875 0q0 2.390625 1.03125 3.578125q1.046875 1.1875 2.640625 1.1875q1.5625 0 2.609375 -1.1875q1.046875 -1.203125 1.046875 -3.65625q0 -2.3125 -1.0625 -3.5q-1.046875 -1.1875 -2.59375 -1.1875q-1.59375 0 -2.640625 1.1875q-1.03125 1.1875 -1.03125 3.578125zm11.957031 6.21875l0 -12.453125l1.90625 0l0 1.78125q1.375 -2.0625 3.953125 -2.0625q1.125 0 2.0625 0.40625q0.953125 0.40625 1.421875 1.0625q0.46875 0.65625 0.65625 1.5625q0.125 0.578125 0.125 2.046875l0 7.65625l-2.109375 0l0 -7.578125q0 -1.28125 -0.25 -1.921875q-0.25 -0.640625 -0.875 -1.015625q-0.625 -0.390625 -1.46875 -0.390625q-1.34375 0 -2.328125 0.859375q-0.984375 0.859375 -0.984375 3.25l0 6.796875l-2.109375 0zm12.503906 -3.71875l2.09375 -0.328125q0.171875 1.25 0.96875 1.921875q0.8125 0.671875 2.25 0.671875q1.453125 0 2.15625 -0.59375q0.703125 -0.59375 0.703125 -1.390625q0 -0.71875 -0.625 -1.125q-0.421875 -0.28125 -2.15625 -0.71875q-2.3125 -0.578125 -3.21875 -1.0q-0.890625 -0.4375 -1.359375 -1.1875q-0.453125 -0.765625 -0.453125 -1.671875q0 -0.828125 0.375 -1.53125q0.390625 -0.71875 1.046875 -1.1875q0.484375 -0.359375 1.328125 -0.609375q0.859375 -0.265625 1.828125 -0.265625q1.46875 0 2.578125 0.421875q1.109375 0.421875 1.625 1.15625q0.53125 0.71875 0.734375 1.921875l-2.0625 0.28125q-0.140625 -0.96875 -0.8125 -1.5q-0.671875 -0.546875 -1.90625 -0.546875q-1.453125 0 -2.078125 0.484375q-0.625 0.484375 -0.625 1.125q0 0.40625 0.265625 0.734375q0.25 0.34375 0.8125 0.5625q0.3125 0.125 1.859375 0.546875q2.234375 0.59375 3.109375 0.984375q0.890625 0.375 1.390625 1.109375q0.515625 0.71875 0.515625 1.796875q0 1.046875 -0.625 1.984375q-0.609375 0.9375 -1.765625 1.453125q-1.15625 0.5 -2.625 0.5q-2.421875 0 -3.703125 -1.0q-1.265625 -1.015625 -1.625 -3.0zm21.375 -0.296875l2.171875 0.28125q-0.515625 1.90625 -1.90625 2.96875q-1.390625 1.046875 -3.5625 1.046875q-2.734375 0 -4.34375 -1.671875q-1.59375 -1.6875 -1.59375 -4.734375q0 -3.140625 1.609375 -4.875q1.625 -1.734375 4.203125 -1.734375q2.5 0 4.078125 1.703125q1.59375 1.703125 1.59375 4.78125q0 0.1875 -0.015625 0.5625l-9.28125 0q0.109375 2.046875 1.15625 3.140625q1.046875 1.09375 2.609375 1.09375q1.15625 0 1.96875 -0.609375q0.828125 -0.609375 1.3125 -1.953125zm-6.9375 -3.40625l6.953125 0q-0.140625 -1.5625 -0.796875 -2.359375q-1.0 -1.21875 -2.609375 -1.21875q-1.453125 0 -2.453125 0.984375q-0.984375 0.96875 -1.09375 2.59375z" fill-rule="nonzero"/><path fill="#000000" fill-opacity="0.0" d="m355.32547 272.7139l-0.56692505 73.29135" fill-rule="evenodd"/><path stroke="#595959" stroke-width="1.0" stroke-linejoin="round" stroke-linecap="butt" stroke-dasharray="4.0,3.0" d="m355.32547 272.7139l-0.5205078 67.291534" fill-rule="evenodd"/><path fill="#595959" stroke="#595959" stroke-width="1.0" stroke-linecap="butt" d="m353.15326 339.99265l1.6165771 4.5507507l1.6867981 -4.525177z" fill-rule="evenodd"/><path fill="#000000" fill-opacity="0.0" d="m387.32547 272.7139l-0.56692505 73.29135" fill-rule="evenodd"/><path stroke="#595959" stroke-width="1.0" stroke-linejoin="round" stroke-linecap="butt" stroke-dasharray="4.0,3.0" d="m387.27902 278.7137l-0.5204773 67.291534" fill-rule="evenodd"/><path fill="#595959" stroke="#595959" stroke-width="1.0" stroke-linecap="butt" d="m388.93073 278.7265l-1.6165771 -4.55072l-1.6867676 4.525177z" fill-rule="evenodd"/><path fill="#000000" fill-opacity="0.0" d="m255.83464 290.84778l102.866135 0l0 22.11023l-102.866135 0z" fill-rule="evenodd"/><path fill="#000000" d="m266.39716 310.4429l0 -12.453125l1.890625 0l0 1.890625q0.734375 -1.328125 1.34375 -1.75q0.625 -0.421875 1.359375 -0.421875q1.0625 0 2.171875 0.6875l-0.734375 1.953125q-0.765625 -0.453125 -1.546875 -0.453125q-0.6875 0 -1.25 0.421875q-0.546875 0.40625 -0.78125 1.140625q-0.34375 1.125 -0.34375 2.46875l0 6.515625l-2.109375 0zm16.539062 -4.015625l2.171875 0.28125q-0.515625 1.90625 -1.90625 2.96875q-1.390625 1.046875 -3.5625 1.046875q-2.734375 0 -4.34375 -1.671875q-1.59375 -1.6875 -1.59375 -4.734375q0 -3.140625 1.609375 -4.875q1.625 -1.734375 4.203125 -1.734375q2.5 0 4.078125 1.703125q1.59375 1.703125 1.59375 4.78125q0 0.1875 -0.015625 0.5625l-9.28125 0q0.109375 2.046875 1.15625 3.140625q1.046875 1.09375 2.609375 1.09375q1.15625 0 1.96875 -0.609375q0.828125 -0.609375 1.3125 -1.953125zm-6.9375 -3.40625l6.953125 0q-0.140625 -1.5625 -0.796875 -2.359375q-1.0 -1.21875 -2.609375 -1.21875q-1.453125 0 -2.453125 0.984375q-0.984375 0.96875 -1.09375 2.59375zm19.691406 12.1875l0 -6.09375q-0.484375 0.6875 -1.375 1.15625q-0.890625 0.453125 -1.875 0.453125q-2.21875 0 -3.828125 -1.765625q-1.59375 -1.78125 -1.59375 -4.859375q0 -1.875 0.640625 -3.359375q0.65625 -1.484375 1.890625 -2.25q1.25 -0.78125 2.71875 -0.78125q2.3125 0 3.640625 1.953125l0 -1.671875l1.890625 0l0 17.21875l-2.109375 0zm-6.5 -11.03125q0 2.40625 1.0 3.609375q1.015625 1.203125 2.421875 1.203125q1.34375 0 2.3125 -1.140625q0.984375 -1.140625 0.984375 -3.484375q0 -2.484375 -1.03125 -3.734375q-1.03125 -1.25 -2.40625 -1.25q-1.375 0 -2.328125 1.171875q-0.953125 1.15625 -0.953125 3.625zm20.066406 6.265625l0 -1.828125q-1.453125 2.109375 -3.9375 2.109375q-1.109375 0 -2.0625 -0.421875q-0.953125 -0.421875 -1.421875 -1.0625q-0.453125 -0.640625 -0.640625 -1.5625q-0.140625 -0.625 -0.140625 -1.96875l0 -7.71875l2.109375 0l0 6.90625q0 1.65625 0.140625 2.234375q0.1875 0.828125 0.828125 1.3125q0.65625 0.46875 1.609375 0.46875q0.9375 0 1.765625 -0.484375q0.84375 -0.5 1.1875 -1.328125q0.34375 -0.84375 0.34375 -2.4375l0 -6.671875l2.109375 0l0 12.453125l-1.890625 0zm13.722656 -4.015625l2.171875 0.28125q-0.515625 1.90625 -1.90625 2.96875q-1.390625 1.046875 -3.5625 1.046875q-2.734375 0 -4.34375 -1.671875q-1.59375 -1.6875 -1.59375 -4.734375q0 -3.140625 1.609375 -4.875q1.625 -1.734375 4.203125 -1.734375q2.5 0 4.078125 1.703125q1.59375 1.703125 1.59375 4.78125q0 0.1875 -0.015625 0.5625l-9.28125 0q0.109375 2.046875 1.15625 3.140625q1.046875 1.09375 2.609375 1.09375q1.15625 0 1.96875 -0.609375q0.828125 -0.609375 1.3125 -1.953125zm-6.9375 -3.40625l6.953125 0q-0.140625 -1.5625 -0.796875 -2.359375q-1.0 -1.21875 -2.609375 -1.21875q-1.453125 0 -2.453125 0.984375q-0.984375 0.96875 -1.09375 2.59375zm10.910156 3.703125l2.09375 -0.328125q0.171875 1.25 0.96875 1.921875q0.8125 0.671875 2.25 0.671875q1.453125 0 2.15625 -0.59375q0.703125 -0.59375 0.703125 -1.390625q0 -0.71875 -0.625 -1.125q-0.421875 -0.28125 -2.15625 -0.71875q-2.3125 -0.578125 -3.21875 -1.0q-0.890625 -0.4375 -1.359375 -1.1875q-0.453125 -0.765625 -0.453125 -1.671875q0 -0.828125 0.375 -1.53125q0.390625 -0.71875 1.046875 -1.1875q0.484375 -0.359375 1.328125 -0.609375q0.859375 -0.265625 1.828125 -0.265625q1.46875 0 2.578125 0.421875q1.109375 0.421875 1.625 1.15625q0.53125 0.71875 0.734375 1.921875l-2.0625 0.28125q-0.140625 -0.96875 -0.8125 -1.5q-0.671875 -0.546875 -1.90625 -0.546875q-1.453125 0 -2.078125 0.484375q-0.625 0.484375 -0.625 1.125q0 0.40625 0.265625 0.734375q0.25 0.34375 0.8125 0.5625q0.3125 0.125 1.859375 0.546875q2.234375 0.59375 3.109375 0.984375q0.890625 0.375 1.390625 1.109375q0.515625 0.71875 0.515625 1.796875q0 1.046875 -0.625 1.984375q-0.609375 0.9375 -1.765625 1.453125q-1.15625 0.5 -2.625 0.5q-2.421875 0 -3.703125 -1.0q-1.265625 -1.015625 -1.625 -3.0zm17.453125 1.828125l0.3125 1.859375q-0.890625 0.203125 -1.59375 0.203125q-1.15625 0 -1.796875 -0.359375q-0.625 -0.375 -0.890625 -0.96875q-0.25 -0.59375 -0.25 -2.484375l0 -7.171875l-1.546875 0l0 -1.640625l1.546875 0l0 -3.078125l2.09375 -1.265625l0 4.34375l2.125 0l0 1.640625l-2.125 0l0 7.28125q0 0.90625 0.109375 1.171875q0.125 0.25 0.375 0.40625q0.25 0.140625 0.71875 0.140625q0.34375 0 0.921875 -0.078125z" fill-rule="nonzero"/><path fill="#000000" fill-opacity="0.0" d="m264.01312 375.70975l0 0c0 -29.731201 24.101898 -53.8331 53.8331 -53.8331l549.2787 0c14.277466 0 27.970093 5.671692 38.065796 15.767334c10.095642 10.095673 15.767334 23.78833 15.767334 38.065765l0 215.3259c0 29.731201 -24.101929 53.83313 -53.83313 53.83313l-549.2787 0c-29.731201 0 -53.8331 -24.101929 -53.8331 -53.83313z" fill-rule="evenodd"/><path stroke="#595959" stroke-width="1.0" stroke-linejoin="round" stroke-linecap="butt" stroke-dasharray="4.0,3.0" d="m264.01312 375.70975l0 0c0 -29.731201 24.101898 -53.8331 53.8331 -53.8331l549.2787 0c14.277466 0 27.970093 5.671692 38.065796 15.767334c10.095642 10.095673 15.767334 23.78833 15.767334 38.065765l0 215.3259c0 29.731201 -24.101929 53.83313 -53.83313 53.83313l-549.2787 0c-29.731201 0 -53.8331 -24.101929 -53.8331 -53.83313z" fill-rule="evenodd"/><path fill="#000000" fill-opacity="0.0" d="m646.5486 612.8688l225.44879 0l0 22.11023l-225.44879 0z" fill-rule="evenodd"/><path fill="#000000" d="m657.3142 632.46387l0 -17.1875l2.265625 0l0 8.53125l8.53125 -8.53125l3.078125 0l-7.203125 6.96875l7.53125 10.21875l-3.0 0l-6.125 -8.703125l-2.8125 2.75l0 5.953125l-2.265625 0zm23.976562 0l0 -1.828125q-1.453125 2.109375 -3.9375 2.109375q-1.109375 0 -2.0625 -0.421875q-0.953125 -0.421875 -1.421875 -1.0625q-0.453125 -0.640625 -0.640625 -1.5625q-0.140625 -0.625 -0.140625 -1.96875l0 -7.71875l2.109375 0l0 6.90625q0 1.65625 0.140625 2.234375q0.1875 0.828125 0.828125 1.3125q0.65625 0.46875 1.609375 0.46875q0.9375 0 1.765625 -0.484375q0.84375 -0.5 1.1875 -1.328125q0.34375 -0.84375 0.34375 -2.4375l0 -6.671875l2.109375 0l0 12.453125l-1.890625 0zm7.1445312 0l-1.953125 0l0 -17.1875l2.109375 0l0 6.140625q1.328125 -1.6875 3.40625 -1.6875q1.140625 0 2.171875 0.46875q1.03125 0.46875 1.6875 1.3125q0.65625 0.828125 1.03125 2.015625q0.375 1.171875 0.375 2.53125q0 3.1875 -1.578125 4.9375q-1.578125 1.75 -3.796875 1.75q-2.203125 0 -3.453125 -1.84375l0 1.5625zm-0.03125 -6.3125q0 2.234375 0.609375 3.234375q1.0 1.625 2.703125 1.625q1.375 0 2.375 -1.203125q1.015625 -1.203125 1.015625 -3.578125q0 -2.4375 -0.96875 -3.59375q-0.953125 -1.171875 -2.328125 -1.171875q-1.390625 0 -2.40625 1.203125q-1.0 1.203125 -1.0 3.484375zm19.957031 2.296875l2.171875 0.28125q-0.515625 1.90625 -1.90625 2.96875q-1.390625 1.046875 -3.5625 1.046875q-2.734375 0 -4.34375 -1.671875q-1.59375 -1.6875 -1.59375 -4.734375q0 -3.140625 1.609375 -4.875q1.625 -1.734375 4.203125 -1.734375q2.5 0 4.078125 1.703125q1.59375 1.703125 1.59375 4.78125q0 0.1875 -0.015625 0.5625l-9.28125 0q0.109375 2.046875 1.15625 3.140625q1.046875 1.09375 2.609375 1.09375q1.15625 0 1.96875 -0.609375q0.828125 -0.609375 1.3125 -1.953125zm-6.9375 -3.40625l6.953125 0q-0.140625 -1.5625 -0.796875 -2.359375q-1.0 -1.21875 -2.609375 -1.21875q-1.453125 0 -2.453125 0.984375q-0.984375 0.96875 -1.09375 2.59375zm11.738281 7.421875l0 -12.453125l1.890625 0l0 1.890625q0.734375 -1.328125 1.34375 -1.75q0.625 -0.421875 1.359375 -0.421875q1.0625 0 2.171875 0.6875l-0.734375 1.953125q-0.765625 -0.453125 -1.546875 -0.453125q-0.6875 0 -1.25 0.421875q-0.546875 0.40625 -0.78125 1.140625q-0.34375 1.125 -0.34375 2.46875l0 6.515625l-2.109375 0zm8.0078125 0l0 -12.453125l1.90625 0l0 1.78125q1.375 -2.0625 3.953125 -2.0625q1.125 0 2.0625 0.40625q0.953125 0.40625 1.421875 1.0625q0.46875 0.65625 0.65625 1.5625q0.125 0.578125 0.125 2.046875l0 7.65625l-2.109375 0l0 -7.578125q0 -1.28125 -0.25 -1.921875q-0.25 -0.640625 -0.875 -1.015625q-0.625 -0.390625 -1.46875 -0.390625q-1.34375 0 -2.328125 0.859375q-0.984375 0.859375 -0.984375 3.25l0 6.796875l-2.109375 0zm21.878906 -4.015625l2.171875 0.28125q-0.515625 1.90625 -1.90625 2.96875q-1.390625 1.046875 -3.5625 1.046875q-2.734375 0 -4.34375 -1.671875q-1.59375 -1.6875 -1.59375 -4.734375q0 -3.140625 1.609375 -4.875q1.625 -1.734375 4.203125 -1.734375q2.5 0 4.078125 1.703125q1.59375 1.703125 1.59375 4.78125q0 0.1875 -0.015625 0.5625l-9.28125 0q0.109375 2.046875 1.15625 3.140625q1.046875 1.09375 2.609375 1.09375q1.15625 0 1.96875 -0.609375q0.828125 -0.609375 1.3125 -1.953125zm-6.9375 -3.40625l6.953125 0q-0.140625 -1.5625 -0.796875 -2.359375q-1.0 -1.21875 -2.609375 -1.21875q-1.453125 0 -2.453125 0.984375q-0.984375 0.96875 -1.09375 2.59375zm16.363281 5.53125l0.3125 1.859375q-0.890625 0.203125 -1.59375 0.203125q-1.15625 0 -1.796875 -0.359375q-0.625 -0.375 -0.890625 -0.96875q-0.25 -0.59375 -0.25 -2.484375l0 -7.171875l-1.546875 0l0 -1.640625l1.546875 0l0 -3.078125l2.09375 -1.265625l0 4.34375l2.125 0l0 1.640625l-2.125 0l0 7.28125q0 0.90625 0.109375 1.171875q0.125 0.25 0.375 0.40625q0.25 0.140625 0.71875 0.140625q0.34375 0 0.921875 -0.078125zm10.589844 -2.125l2.171875 0.28125q-0.515625 1.90625 -1.90625 2.96875q-1.390625 1.046875 -3.5625 1.046875q-2.734375 0 -4.34375 -1.671875q-1.59375 -1.6875 -1.59375 -4.734375q0 -3.140625 1.609375 -4.875q1.625 -1.734375 4.203125 -1.734375q2.5 0 4.078125 1.703125q1.59375 1.703125 1.59375 4.78125q0 0.1875 -0.015625 0.5625l-9.28125 0q0.109375 2.046875 1.15625 3.140625q1.046875 1.09375 2.609375 1.09375q1.15625 0 1.96875 -0.609375q0.828125 -0.609375 1.3125 -1.953125zm-6.9375 -3.40625l6.953125 0q-0.140625 -1.5625 -0.796875 -2.359375q-1.0 -1.21875 -2.609375 -1.21875q-1.453125 0 -2.453125 0.984375q-0.984375 0.96875 -1.09375 2.59375zm10.910156 3.703125l2.09375 -0.328125q0.171875 1.25 0.96875 1.921875q0.8125 0.671875 2.25 0.671875q1.453125 0 2.15625 -0.59375q0.703125 -0.59375 0.703125 -1.390625q0 -0.71875 -0.625 -1.125q-0.421875 -0.28125 -2.15625 -0.71875q-2.3125 -0.578125 -3.21875 -1.0q-0.890625 -0.4375 -1.359375 -1.1875q-0.453125 -0.765625 -0.453125 -1.671875q0 -0.828125 0.375 -1.53125q0.390625 -0.71875 1.046875 -1.1875q0.484375 -0.359375 1.328125 -0.609375q0.859375 -0.265625 1.828125 -0.265625q1.46875 0 2.578125 0.421875q1.109375 0.421875 1.625 1.15625q0.53125 0.71875 0.734375 1.921875l-2.0625 0.28125q-0.140625 -0.96875 -0.8125 -1.5q-0.671875 -0.546875 -1.90625 -0.546875q-1.453125 0 -2.078125 0.484375q-0.625 0.484375 -0.625 1.125q0 0.40625 0.265625 0.734375q0.25 0.34375 0.8125 0.5625q0.3125 0.125 1.859375 0.546875q2.234375 0.59375 3.109375 0.984375q0.890625 0.375 1.390625 1.109375q0.515625 0.71875 0.515625 1.796875q0 1.046875 -0.625 1.984375q-0.609375 0.9375 -1.765625 1.453125q-1.15625 0.5 -2.625 0.5q-2.421875 0 -3.703125 -1.0q-1.265625 -1.015625 -1.625 -3.0zm27.636719 -0.84375l2.078125 0.265625q-0.34375 2.15625 -1.75 3.375q-1.390625 1.203125 -3.4375 1.203125q-2.546875 0 -4.109375 -1.671875q-1.546875 -1.671875 -1.546875 -4.78125q0 -2.015625 0.671875 -3.53125q0.671875 -1.515625 2.03125 -2.265625q1.359375 -0.765625 2.96875 -0.765625q2.03125 0 3.3125 1.03125q1.296875 1.03125 1.65625 2.90625l-2.046875 0.328125q-0.296875 -1.265625 -1.046875 -1.890625q-0.734375 -0.640625 -1.796875 -0.640625q-1.59375 0 -2.59375 1.15625q-0.984375 1.140625 -0.984375 3.609375q0 2.5 0.953125 3.640625q0.96875 1.140625 2.515625 1.140625q1.234375 0 2.0625 -0.765625q0.84375 -0.765625 1.0625 -2.34375zm3.828125 4.5625l0 -17.1875l2.109375 0l0 17.1875l-2.109375 0zm13.535156 0l0 -1.828125q-1.453125 2.109375 -3.9375 2.109375q-1.109375 0 -2.0625 -0.421875q-0.953125 -0.421875 -1.421875 -1.0625q-0.453125 -0.640625 -0.640625 -1.5625q-0.140625 -0.625 -0.140625 -1.96875l0 -7.71875l2.109375 0l0 6.90625q0 1.65625 0.140625 2.234375q0.1875 0.828125 0.828125 1.3125q0.65625 0.46875 1.609375 0.46875q0.9375 0 1.765625 -0.484375q0.84375 -0.5 1.1875 -1.328125q0.34375 -0.84375 0.34375 -2.4375l0 -6.671875l2.109375 0l0 12.453125l-1.890625 0zm4.3476562 -3.71875l2.09375 -0.328125q0.171875 1.25 0.96875 1.921875q0.8125 0.671875 2.25 0.671875q1.453125 0 2.15625 -0.59375q0.703125 -0.59375 0.703125 -1.390625q0 -0.71875 -0.625 -1.125q-0.421875 -0.28125 -2.15625 -0.71875q-2.3125 -0.578125 -3.21875 -1.0q-0.890625 -0.4375 -1.359375 -1.1875q-0.453125 -0.765625 -0.453125 -1.671875q0 -0.828125 0.375 -1.53125q0.390625 -0.71875 1.046875 -1.1875q0.484375 -0.359375 1.328125 -0.609375q0.859375 -0.265625 1.828125 -0.265625q1.46875 0 2.578125 0.421875q1.109375 0.421875 1.625 1.15625q0.53125 0.71875 0.734375 1.921875l-2.0625 0.28125q-0.140625 -0.96875 -0.8125 -1.5q-0.671875 -0.546875 -1.90625 -0.546875q-1.453125 0 -2.078125 0.484375q-0.625 0.484375 -0.625 1.125q0 0.40625 0.265625 0.734375q0.25 0.34375 0.8125 0.5625q0.3125 0.125 1.859375 0.546875q2.234375 0.59375 3.109375 0.984375q0.890625 0.375 1.390625 1.109375q0.515625 0.71875 0.515625 1.796875q0 1.046875 -0.625 1.984375q-0.609375 0.9375 -1.765625 1.453125q-1.15625 0.5 -2.625 0.5q-2.421875 0 -3.703125 -1.0q-1.265625 -1.015625 -1.625 -3.0zm17.453125 1.828125l0.3125 1.859375q-0.890625 0.203125 -1.59375 0.203125q-1.15625 0 -1.796875 -0.359375q-0.625 -0.375 -0.890625 -0.96875q-0.25 -0.59375 -0.25 -2.484375l0 -7.171875l-1.546875 0l0 -1.640625l1.546875 0l0 -3.078125l2.09375 -1.265625l0 4.34375l2.125 0l0 1.640625l-2.125 0l0 7.28125q0 0.90625 0.109375 1.171875q0.125 0.25 0.375 0.40625q0.25 0.140625 0.71875 0.140625q0.34375 0 0.921875 -0.078125zm10.589844 -2.125l2.171875 0.28125q-0.515625 1.90625 -1.90625 2.96875q-1.390625 1.046875 -3.5625 1.046875q-2.734375 0 -4.34375 -1.671875q-1.59375 -1.6875 -1.59375 -4.734375q0 -3.140625 1.609375 -4.875q1.625 -1.734375 4.203125 -1.734375q2.5 0 4.078125 1.703125q1.59375 1.703125 1.59375 4.78125q0 0.1875 -0.015625 0.5625l-9.28125 0q0.109375 2.046875 1.15625 3.140625q1.046875 1.09375 2.609375 1.09375q1.15625 0 1.96875 -0.609375q0.828125 -0.609375 1.3125 -1.953125zm-6.9375 -3.40625l6.953125 0q-0.140625 -1.5625 -0.796875 -2.359375q-1.0 -1.21875 -2.609375 -1.21875q-1.453125 0 -2.453125 0.984375q-0.984375 0.96875 -1.09375 2.59375zm11.738281 7.421875l0 -12.453125l1.890625 0l0 1.890625q0.734375 -1.328125 1.34375 -1.75q0.625 -0.421875 1.359375 -0.421875q1.0625 0 2.171875 0.6875l-0.734375 1.953125q-0.765625 -0.453125 -1.546875 -0.453125q-0.6875 0 -1.25 0.421875q-0.546875 0.40625 -0.78125 1.140625q-0.34375 1.125 -0.34375 2.46875l0 6.515625l-2.109375 0z" fill-rule="nonzero"/></g></svg>