<svg version="1.1" viewBox="0.0 0.0 960.0 720.0" fill="none" stroke="none" stroke-linecap="square" stroke-miterlimit="10" xmlns:xlink="http://www.w3.org/1999/xlink" xmlns="http://www.w3.org/2000/svg"><clipPath id="g403197d0a9_0_0.0"><path d="m0 0l960.0 0l0 720.0l-960.0 0l0 -720.0z" clip-rule="nonzero"/></clipPath><g clip-path="url(#g403197d0a9_0_0.0)"><path fill="#ffffff" d="m0 0l960.0 0l0 720.0l-960.0 0z" fill-rule="evenodd"/><path fill="#9fc5e8" d="m772.5958 202.93729l0 0c0 -7.491516 6.073059 -13.56459 13.564575 -13.56459l114.16217 0c3.5975342 0 7.0477295 1.4291229 9.591614 3.9729767c2.5438232 2.5438538 3.9729614 5.9940643 3.9729614 9.591614l0 54.256653c0 7.491516 -6.073059 13.564606 -13.564575 13.564606l-114.16217 0c-7.491516 0 -13.564575 -6.0730896 -13.564575 -13.564606z" fill-rule="evenodd"/><path stroke="#000000" stroke-width="1.0" stroke-linejoin="round" stroke-linecap="butt" d="m772.5958 202.93729l0 0c0 -7.491516 6.073059 -13.56459 13.564575 -13.56459l114.16217 0c3.5975342 0 7.0477295 1.4291229 9.591614 3.9729767c2.5438232 2.5438538 3.9729614 5.9940643 3.9729614 9.591614l0 54.256653c0 7.491516 -6.073059 13.564606 -13.564575 13.564606l-114.16217 0c-7.491516 0 -13.564575 -6.0730896 -13.564575 -13.564606z" fill-rule="evenodd"/><path fill="#9fc5e8" d="m772.5958 306.9373l0 0c0 -7.491516 6.073059 -13.564575 13.564575 -13.564575l114.16217 0c3.5975342 0 7.0477295 1.4291077 9.591614 3.9729614c2.5438232 2.5438538 3.9729614 5.994049 3.9729614 9.591614l0 54.256653c0 7.491516 -6.073059 13.564606 -13.564575 13.564606l-114.16217 0c-7.491516 0 -13.564575 -6.0730896 -13.564575 -13.564606z" fill-rule="evenodd"/><path stroke="#000000" stroke-width="1.0" stroke-linejoin="round" stroke-linecap="butt" d="m772.5958 306.9373l0 0c0 -7.491516 6.073059 -13.564575 13.564575 -13.564575l114.16217 0c3.5975342 0 7.0477295 1.4291077 9.591614 3.9729614c2.5438232 2.5438538 3.9729614 5.994049 3.9729614 9.591614l0 54.256653c0 7.491516 -6.073059 13.564606 -13.564575 13.564606l-114.16217 0c-7.491516 0 -13.564575 -6.0730896 -13.564575 -13.564606z" fill-rule="evenodd"/><path fill="#9fc5e8" d="m772.5958 410.9373l0 0c0 -7.491516 6.073059 -13.564575 13.564575 -13.564575l114.16217 0c3.5975342 0 7.0477295 1.4291077 9.591614 3.9729614c2.5438232 2.5438538 3.9729614 5.994049 3.9729614 9.591614l0 54.256653c0 7.491516 -6.073059 13.564606 -13.564575 13.564606l-114.16217 0c-7.491516 0 -13.564575 -6.0730896 -13.564575 -13.564606z" fill-rule="evenodd"/><path stroke="#000000" stroke-width="1.0" stroke-linejoin="round" stroke-linecap="butt" d="m772.5958 410.9373l0 0c0 -7.491516 6.073059 -13.564575 13.564575 -13.564575l114.16217 0c3.5975342 0 7.0477295 1.4291077 9.591614 3.9729614c2.5438232 2.5438538 3.9729614 5.994049 3.9729614 9.591614l0 54.256653c0 7.491516 -6.073059 13.564606 -13.564575 13.564606l-114.16217 0c-7.491516 0 -13.564575 -6.0730896 -13.564575 -13.564606z" fill-rule="evenodd"/><path fill="#9fc5e8" d="m772.5958 514.93726l0 0c0 -7.4914856 6.073059 -13.564545 13.564575 -13.564545l114.16217 0c3.5975342 0 7.0477295 1.4291077 9.591614 3.9729614c2.5438232 2.5438538 3.9729614 5.994049 3.9729614 9.591583l0 54.256714c0 7.491516 -6.073059 13.564575 -13.564575 13.564575l-114.16217 0c-7.491516 0 -13.564575 -6.073059 -13.564575 -13.564575z" fill-rule="evenodd"/><path stroke="#000000" stroke-width="1.0" stroke-linejoin="round" stroke-linecap="butt" d="m772.5958 514.93726l0 0c0 -7.4914856 6.073059 -13.564545 13.564575 -13.564545l114.16217 0c3.5975342 0 7.0477295 1.4291077 9.591614 3.9729614c2.5438232 2.5438538 3.9729614 5.994049 3.9729614 9.591583l0 54.256714c0 7.491516 -6.073059 13.564575 -13.564575 13.564575l-114.16217 0c-7.491516 0 -13.564575 -6.073059 -13.564575 -13.564575z" fill-rule="evenodd"/><path fill="#9fc5e8" d="m489.79004 410.9373l0 0c0 -7.491516 6.073059 -13.564575 13.564575 -13.564575l114.16217 0c3.5975342 0 7.0477295 1.4291077 9.591614 3.9729614c2.5438232 2.5438538 3.9729614 5.994049 3.9729614 9.591614l0 54.256653c0 7.491516 -6.073059 13.564606 -13.564575 13.564606l-114.16217 0c-7.491516 0 -13.564575 -6.0730896 -13.564575 -13.564606z" fill-rule="evenodd"/><path stroke="#000000" stroke-width="1.0" stroke-linejoin="round" stroke-linecap="butt" d="m489.79004 410.9373l0 0c0 -7.491516 6.073059 -13.564575 13.564575 -13.564575l114.16217 0c3.5975342 0 7.0477295 1.4291077 9.591614 3.9729614c2.5438232 2.5438538 3.9729614 5.994049 3.9729614 9.591614l0 54.256653c0 7.491516 -6.073059 13.564606 -13.564575 13.564606l-114.16217 0c-7.491516 0 -13.564575 -6.0730896 -13.564575 -13.564606z" fill-rule="evenodd"/><path fill="#9fc5e8" d="m489.79004 515.31525l0 0c0 -7.491516 6.073059 -13.564575 13.564575 -13.564575l114.16217 0c3.5975342 0 7.0477295 1.4291077 9.591614 3.9729614c2.5438232 2.5438538 3.9729614 5.994049 3.9729614 9.591614l0 54.256653c0 7.491516 -6.073059 13.564575 -13.564575 13.564575l-114.16217 0c-7.491516 0 -13.564575 -6.073059 -13.564575 -13.564575z" fill-rule="evenodd"/><path stroke="#000000" stroke-width="1.0" stroke-linejoin="round" stroke-linecap="butt" d="m489.79004 515.31525l0 0c0 -7.491516 6.073059 -13.564575 13.564575 -13.564575l114.16217 0c3.5975342 0 7.0477295 1.4291077 9.591614 3.9729614c2.5438232 2.5438538 3.9729614 5.994049 3.9729614 9.591614l0 54.256653c0 7.491516 -6.073059 13.564575 -13.564575 13.564575l-114.16217 0c-7.491516 0 -13.564575 -6.073059 -13.564575 -13.564575z" fill-rule="evenodd"/><path fill="#ffffff" d="m804.0 226.81378l0 0c0 -3.763153 3.0506592 -6.8137817 6.8137817 -6.8137817l64.35669 0c1.8071289 0 3.5402222 0.71788025 4.818054 1.9957123c1.277832 1.277832 1.9957275 3.0109406 1.9957275 4.8180695l0 27.254318c0 3.7631683 -3.0506592 6.813797 -6.8137817 6.813797l-64.35669 0c-3.7631226 0 -6.8137817 -3.0506287 -6.8137817 -6.813797z" fill-rule="evenodd"/><path stroke="#ff0000" stroke-width="1.0" stroke-linejoin="round" stroke-linecap="butt" d="m804.0 226.81378l0 0c0 -3.763153 3.0506592 -6.8137817 6.8137817 -6.8137817l64.35669 0c1.8071289 0 3.5402222 0.71788025 4.818054 1.9957123c1.277832 1.277832 1.9957275 3.0109406 1.9957275 4.8180695l0 27.254318c0 3.7631683 -3.0506592 6.813797 -6.8137817 6.813797l-64.35669 0c-3.7631226 0 -6.8137817 -3.0506287 -6.8137817 -6.813797z" fill-rule="evenodd"/><path fill="#000000" d="m824.85345 248.98094l-3.796875 -12.453125l2.171875 0l1.984375 7.1875l0.734375 2.671875q0.046875 -0.203125 0.640625 -2.5625l1.984375 -7.296875l2.171875 0l1.859375 7.21875l0.625 2.390625l0.71875 -2.40625l2.125 -7.203125l2.046875 0l-3.890625 12.453125l-2.1875 0l-1.984375 -7.453125l-0.46875 -2.125l-2.53125 9.578125l-2.203125 0zm23.566406 -4.015625l2.171875 0.28125q-0.515625 1.90625 -1.90625 2.96875q-1.390625 1.046875 -3.5625 1.046875q-2.734375 0 -4.34375 -1.671875q-1.59375 -1.6875 -1.59375 -4.734375q0 -3.140625 1.609375 -4.875q1.625 -1.734375 4.203125 -1.734375q2.5 0 4.078125 1.703125q1.59375 1.703125 1.59375 4.78125q0 0.1875 -0.015625 0.5625l-9.28125 0q0.109375 2.046875 1.15625 3.140625q1.046875 1.09375 2.609375 1.09375q1.15625 0 1.96875 -0.609375q0.828125 -0.609375 1.3125 -1.953125zm-6.9375 -3.40625l6.953125 0q-0.140625 -1.5625 -0.796875 -2.359375q-1.0 -1.21875 -2.609375 -1.21875q-1.453125 0 -2.453125 0.984375q-0.984375 0.96875 -1.09375 2.59375zm13.707031 7.421875l-1.953125 0l0 -17.1875l2.109375 0l0 6.140625q1.328125 -1.6875 3.40625 -1.6875q1.140625 0 2.171875 0.46875q1.03125 0.46875 1.6875 1.3125q0.65625 0.828125 1.03125 2.015625q0.375 1.171875 0.375 2.53125q0 3.1875 -1.578125 4.9375q-1.578125 1.75 -3.796875 1.75q-2.203125 0 -3.453125 -1.84375l0 1.5625zm-0.03125 -6.3125q0 2.234375 0.609375 3.234375q1.0 1.625 2.703125 1.625q1.375 0 2.375 -1.203125q1.015625 -1.203125 1.015625 -3.578125q0 -2.4375 -0.96875 -3.59375q-0.953125 -1.171875 -2.328125 -1.171875q-1.390625 0 -2.40625 1.203125q-1.0 1.203125 -1.0 3.484375z" fill-rule="nonzero"/><path fill="#000000" fill-opacity="0.0" d="m839.15485 189.3727l87.93701 0l0 22.110245l-87.93701 0z" fill-rule="evenodd"/><path fill="#000000" d="m849.733 208.96782l0 -12.453125l1.90625 0l0 1.78125q1.375 -2.0625 3.953125 -2.0625q1.125 0 2.0625 0.40625q0.953125 0.40625 1.421875 1.0625q0.46875 0.65625 0.65625 1.5625q0.125 0.578125 0.125 2.046875l0 7.65625l-2.109375 0l0 -7.578125q0 -1.28125 -0.25 -1.921875q-0.25 -0.640625 -0.875 -1.015625q-0.625 -0.390625 -1.46875 -0.390625q-1.34375 0 -2.328125 0.859375q-0.984375 0.859375 -0.984375 3.25l0 6.796875l-2.109375 0zm12.566406 -6.21875q0 -3.46875 1.921875 -5.125q1.609375 -1.390625 3.921875 -1.390625q2.5625 0 4.1875 1.6875q1.625 1.6875 1.625 4.640625q0 2.40625 -0.71875 3.78125q-0.71875 1.375 -2.09375 2.140625q-1.375 0.765625 -3.0 0.765625q-2.625 0 -4.234375 -1.671875q-1.609375 -1.6875 -1.609375 -4.828125zm2.171875 0q0 2.390625 1.03125 3.578125q1.046875 1.1875 2.640625 1.1875q1.5625 0 2.609375 -1.1875q1.046875 -1.203125 1.046875 -3.65625q0 -2.3125 -1.0625 -3.5q-1.046875 -1.1875 -2.59375 -1.1875q-1.59375 0 -2.640625 1.1875q-1.03125 1.1875 -1.03125 3.578125zm20.035156 6.21875l0 -1.578125q-1.1875 1.859375 -3.484375 1.859375q-1.484375 0 -2.734375 -0.8125q-1.25 -0.828125 -1.9375 -2.296875q-0.671875 -1.46875 -0.671875 -3.390625q0 -1.859375 0.609375 -3.375q0.625 -1.515625 1.859375 -2.328125q1.25 -0.8125 2.78125 -0.8125q1.125 0 2.0 0.484375q0.890625 0.46875 1.4375 1.234375l0 -6.171875l2.09375 0l0 17.1875l-1.953125 0zm-6.671875 -6.21875q0 2.390625 1.0 3.578125q1.015625 1.1875 2.390625 1.1875q1.390625 0 2.34375 -1.125q0.96875 -1.140625 0.96875 -3.453125q0 -2.5625 -0.984375 -3.75q-0.984375 -1.203125 -2.421875 -1.203125q-1.40625 0 -2.359375 1.15625q-0.9375 1.140625 -0.9375 3.609375zm20.472656 2.203125l2.171875 0.28125q-0.515625 1.90625 -1.90625 2.96875q-1.390625 1.046875 -3.5625 1.046875q-2.734375 0 -4.34375 -1.671875q-1.59375 -1.6875 -1.59375 -4.734375q0 -3.140625 1.609375 -4.875q1.625 -1.734375 4.203125 -1.734375q2.5 0 4.078125 1.703125q1.59375 1.703125 1.59375 4.78125q0 0.1875 -0.015625 0.5625l-9.28125 0q0.109375 2.046875 1.15625 3.140625q1.046875 1.09375 2.609375 1.09375q1.15625 0 1.96875 -0.609375q0.828125 -0.609375 1.3125 -1.953125zm-6.9375 -3.40625l6.953125 0q-0.140625 -1.5625 -0.796875 -2.359375q-1.0 -1.21875 -2.609375 -1.21875q-1.453125 0 -2.453125 0.984375q-0.984375 0.96875 -1.09375 2.59375z" fill-rule="nonzero"/><path fill="#ffffff" d="m804.0 329.81378l0 0c0 -3.763153 3.0506592 -6.8137817 6.8137817 -6.8137817l64.35669 0c1.8071289 0 3.5402222 0.717865 4.818054 1.995697c1.277832 1.277832 1.9957275 3.0109558 1.9957275 4.8180847l0 27.254333c0 3.763153 -3.0506592 6.8137817 -6.8137817 6.8137817l-64.35669 0c-3.7631226 0 -6.8137817 -3.0506287 -6.8137817 -6.8137817z" fill-rule="evenodd"/><path stroke="#ff0000" stroke-width="1.0" stroke-linejoin="round" stroke-linecap="butt" d="m804.0 329.81378l0 0c0 -3.763153 3.0506592 -6.8137817 6.8137817 -6.8137817l64.35669 0c1.8071289 0 3.5402222 0.717865 4.818054 1.995697c1.277832 1.277832 1.9957275 3.0109558 1.9957275 4.8180847l0 27.254333c0 3.763153 -3.0506592 6.8137817 -6.8137817 6.8137817l-64.35669 0c-3.7631226 0 -6.8137817 -3.0506287 -6.8137817 -6.8137817z" fill-rule="evenodd"/><path fill="#000000" d="m824.85345 351.98096l-3.796875 -12.453125l2.171875 0l1.984375 7.1875l0.734375 2.671875q0.046875 -0.203125 0.640625 -2.5625l1.984375 -7.296875l2.171875 0l1.859375 7.21875l0.625 2.390625l0.71875 -2.40625l2.125 -7.203125l2.046875 0l-3.890625 12.453125l-2.1875 0l-1.984375 -7.453125l-0.46875 -2.125l-2.53125 9.578125l-2.203125 0zm23.566406 -4.015625l2.171875 0.28125q-0.515625 1.90625 -1.90625 2.96875q-1.390625 1.046875 -3.5625 1.046875q-2.734375 0 -4.34375 -1.671875q-1.59375 -1.6875 -1.59375 -4.734375q0 -3.140625 1.609375 -4.875q1.625 -1.734375 4.203125 -1.734375q2.5 0 4.078125 1.703125q1.59375 1.703125 1.59375 4.78125q0 0.1875 -0.015625 0.5625l-9.28125 0q0.109375 2.046875 1.15625 3.140625q1.046875 1.09375 2.609375 1.09375q1.15625 0 1.96875 -0.609375q0.828125 -0.609375 1.3125 -1.953125zm-6.9375 -3.40625l6.953125 0q-0.140625 -1.5625 -0.796875 -2.359375q-1.0 -1.21875 -2.609375 -1.21875q-1.453125 0 -2.453125 0.984375q-0.984375 0.96875 -1.09375 2.59375zm13.707031 7.421875l-1.953125 0l0 -17.1875l2.109375 0l0 6.140625q1.328125 -1.6875 3.40625 -1.6875q1.140625 0 2.171875 0.46875q1.03125 0.46875 1.6875 1.3125q0.65625 0.828125 1.03125 2.015625q0.375 1.171875 0.375 2.53125q0 3.1875 -1.578125 4.9375q-1.578125 1.75 -3.796875 1.75q-2.203125 0 -3.453125 -1.84375l0 1.5625zm-0.03125 -6.3125q0 2.234375 0.609375 3.234375q1.0 1.625 2.703125 1.625q1.375 0 2.375 -1.203125q1.015625 -1.203125 1.015625 -3.578125q0 -2.4375 -0.96875 -3.59375q-0.953125 -1.171875 -2.328125 -1.171875q-1.390625 0 -2.40625 1.203125q-1.0 1.203125 -1.0 3.484375z" fill-rule="nonzero"/><path fill="#000000" fill-opacity="0.0" d="m839.15485 293.3727l87.93701 0l0 22.11023l-87.93701 0z" fill-rule="evenodd"/><path fill="#000000" d="m849.733 312.96783l0 -12.453125l1.90625 0l0 1.78125q1.375 -2.0625 3.953125 -2.0625q1.125 0 2.0625 0.40625q0.953125 0.40625 1.421875 1.0625q0.46875 0.65625 0.65625 1.5625q0.125 0.578125 0.125 2.046875l0 7.65625l-2.109375 0l0 -7.578125q0 -1.28125 -0.25 -1.921875q-0.25 -0.640625 -0.875 -1.015625q-0.625 -0.390625 -1.46875 -0.390625q-1.34375 0 -2.328125 0.859375q-0.984375 0.859375 -0.984375 3.25l0 6.796875l-2.109375 0zm12.566406 -6.21875q0 -3.46875 1.921875 -5.125q1.609375 -1.390625 3.921875 -1.390625q2.5625 0 4.1875 1.6875q1.625 1.6875 1.625 4.640625q0 2.40625 -0.71875 3.78125q-0.71875 1.375 -2.09375 2.140625q-1.375 0.765625 -3.0 0.765625q-2.625 0 -4.234375 -1.671875q-1.609375 -1.6875 -1.609375 -4.828125zm2.171875 0q0 2.390625 1.03125 3.578125q1.046875 1.1875 2.640625 1.1875q1.5625 0 2.609375 -1.1875q1.046875 -1.203125 1.046875 -3.65625q0 -2.3125 -1.0625 -3.5q-1.046875 -1.1875 -2.59375 -1.1875q-1.59375 0 -2.640625 1.1875q-1.03125 1.1875 -1.03125 3.578125zm20.035156 6.21875l0 -1.578125q-1.1875 1.859375 -3.484375 1.859375q-1.484375 0 -2.734375 -0.8125q-1.25 -0.828125 -1.9375 -2.296875q-0.671875 -1.46875 -0.671875 -3.390625q0 -1.859375 0.609375 -3.375q0.625 -1.515625 1.859375 -2.328125q1.25 -0.8125 2.78125 -0.8125q1.125 0 2.0 0.484375q0.890625 0.46875 1.4375 1.234375l0 -6.171875l2.09375 0l0 17.1875l-1.953125 0zm-6.671875 -6.21875q0 2.390625 1.0 3.578125q1.015625 1.1875 2.390625 1.1875q1.390625 0 2.34375 -1.125q0.96875 -1.140625 0.96875 -3.453125q0 -2.5625 -0.984375 -3.75q-0.984375 -1.203125 -2.421875 -1.203125q-1.40625 0 -2.359375 1.15625q-0.9375 1.140625 -0.9375 3.609375zm20.472656 2.203125l2.171875 0.28125q-0.515625 1.90625 -1.90625 2.96875q-1.390625 1.046875 -3.5625 1.046875q-2.734375 0 -4.34375 -1.671875q-1.59375 -1.6875 -1.59375 -4.734375q0 -3.140625 1.609375 -4.875q1.625 -1.734375 4.203125 -1.734375q2.5 0 4.078125 1.703125q1.59375 1.703125 1.59375 4.78125q0 0.1875 -0.015625 0.5625l-9.28125 0q0.109375 2.046875 1.15625 3.140625q1.046875 1.09375 2.609375 1.09375q1.15625 0 1.96875 -0.609375q0.828125 -0.609375 1.3125 -1.953125zm-6.9375 -3.40625l6.953125 0q-0.140625 -1.5625 -0.796875 -2.359375q-1.0 -1.21875 -2.609375 -1.21875q-1.453125 0 -2.453125 0.984375q-0.984375 0.96875 -1.09375 2.59375z" fill-rule="nonzero"/><path fill="#000000" fill-opacity="0.0" d="m839.15485 397.3727l87.93701 0l0 22.11023l-87.93701 0z" fill-rule="evenodd"/><path fill="#000000" d="m849.733 416.96783l0 -12.453125l1.90625 0l0 1.78125q1.375 -2.0625 3.953125 -2.0625q1.125 0 2.0625 0.40625q0.953125 0.40625 1.421875 1.0625q0.46875 0.65625 0.65625 1.5625q0.125 0.578125 0.125 2.046875l0 7.65625l-2.109375 0l0 -7.578125q0 -1.28125 -0.25 -1.921875q-0.25 -0.640625 -0.875 -1.015625q-0.625 -0.390625 -1.46875 -0.390625q-1.34375 0 -2.328125 0.859375q-0.984375 0.859375 -0.984375 3.25l0 6.796875l-2.109375 0zm12.566406 -6.21875q0 -3.46875 1.921875 -5.125q1.609375 -1.390625 3.921875 -1.390625q2.5625 0 4.1875 1.6875q1.625 1.6875 1.625 4.640625q0 2.40625 -0.71875 3.78125q-0.71875 1.375 -2.09375 2.140625q-1.375 0.765625 -3.0 0.765625q-2.625 0 -4.234375 -1.671875q-1.609375 -1.6875 -1.609375 -4.828125zm2.171875 0q0 2.390625 1.03125 3.578125q1.046875 1.1875 2.640625 1.1875q1.5625 0 2.609375 -1.1875q1.046875 -1.203125 1.046875 -3.65625q0 -2.3125 -1.0625 -3.5q-1.046875 -1.1875 -2.59375 -1.1875q-1.59375 0 -2.640625 1.1875q-1.03125 1.1875 -1.03125 3.578125zm20.035156 6.21875l0 -1.578125q-1.1875 1.859375 -3.484375 1.859375q-1.484375 0 -2.734375 -0.8125q-1.25 -0.828125 -1.9375 -2.296875q-0.671875 -1.46875 -0.671875 -3.390625q0 -1.859375 0.609375 -3.375q0.625 -1.515625 1.859375 -2.328125q1.25 -0.8125 2.78125 -0.8125q1.125 0 2.0 0.484375q0.890625 0.46875 1.4375 1.234375l0 -6.171875l2.09375 0l0 17.1875l-1.953125 0zm-6.671875 -6.21875q0 2.390625 1.0 3.578125q1.015625 1.1875 2.390625 1.1875q1.390625 0 2.34375 -1.125q0.96875 -1.140625 0.96875 -3.453125q0 -2.5625 -0.984375 -3.75q-0.984375 -1.203125 -2.421875 -1.203125q-1.40625 0 -2.359375 1.15625q-0.9375 1.140625 -0.9375 3.609375zm20.472656 2.203125l2.171875 0.28125q-0.515625 1.90625 -1.90625 2.96875q-1.390625 1.046875 -3.5625 1.046875q-2.734375 0 -4.34375 -1.671875q-1.59375 -1.6875 -1.59375 -4.734375q0 -3.140625 1.609375 -4.875q1.625 -1.734375 4.203125 -1.734375q2.5 0 4.078125 1.703125q1.59375 1.703125 1.59375 4.78125q0 0.1875 -0.015625 0.5625l-9.28125 0q0.109375 2.046875 1.15625 3.140625q1.046875 1.09375 2.609375 1.09375q1.15625 0 1.96875 -0.609375q0.828125 -0.609375 1.3125 -1.953125zm-6.9375 -3.40625l6.953125 0q-0.140625 -1.5625 -0.796875 -2.359375q-1.0 -1.21875 -2.609375 -1.21875q-1.453125 0 -2.453125 0.984375q-0.984375 0.96875 -1.09375 2.59375z" fill-rule="nonzero"/><path fill="#000000" fill-opacity="0.0" d="m839.15485 501.3727l87.93701 0l0 22.110199l-87.93701 0z" fill-rule="evenodd"/><path fill="#000000" d="m849.733 520.96783l0 -12.453125l1.90625 0l0 1.78125q1.375 -2.0625 3.953125 -2.0625q1.125 0 2.0625 0.40625q0.953125 0.40625 1.421875 1.0625q0.46875 0.65625 0.65625 1.5625q0.125 0.578125 0.125 2.046875l0 7.65625l-2.109375 0l0 -7.578125q0 -1.28125 -0.25 -1.921875q-0.25 -0.640625 -0.875 -1.015625q-0.625 -0.390625 -1.46875 -0.390625q-1.34375 0 -2.328125 0.859375q-0.984375 0.859375 -0.984375 3.25l0 6.796875l-2.109375 0zm12.566406 -6.21875q0 -3.46875 1.921875 -5.125q1.609375 -1.390625 3.921875 -1.390625q2.5625 0 4.1875 1.6875q1.625 1.6875 1.625 4.640625q0 2.40625 -0.71875 3.78125q-0.71875 1.375 -2.09375 2.140625q-1.375 0.765625 -3.0 0.765625q-2.625 0 -4.234375 -1.671875q-1.609375 -1.6875 -1.609375 -4.828125zm2.171875 0q0 2.390625 1.03125 3.578125q1.046875 1.1875 2.640625 1.1875q1.5625 0 2.609375 -1.1875q1.046875 -1.203125 1.046875 -3.65625q0 -2.3125 -1.0625 -3.5q-1.046875 -1.1875 -2.59375 -1.1875q-1.59375 0 -2.640625 1.1875q-1.03125 1.1875 -1.03125 3.578125zm20.035156 6.21875l0 -1.578125q-1.1875 1.859375 -3.484375 1.859375q-1.484375 0 -2.734375 -0.8125q-1.25 -0.828125 -1.9375 -2.296875q-0.671875 -1.46875 -0.671875 -3.390625q0 -1.859375 0.609375 -3.375q0.625 -1.515625 1.859375 -2.328125q1.25 -0.8125 2.78125 -0.8125q1.125 0 2.0 0.484375q0.890625 0.46875 1.4375 1.234375l0 -6.171875l2.09375 0l0 17.1875l-1.953125 0zm-6.671875 -6.21875q0 2.390625 1.0 3.578125q1.015625 1.1875 2.390625 1.1875q1.390625 0 2.34375 -1.125q0.96875 -1.140625 0.96875 -3.453125q0 -2.5625 -0.984375 -3.75q-0.984375 -1.203125 -2.421875 -1.203125q-1.40625 0 -2.359375 1.15625q-0.9375 1.140625 -0.9375 3.609375zm20.472656 2.203125l2.171875 0.28125q-0.515625 1.90625 -1.90625 2.96875q-1.390625 1.046875 -3.5625 1.046875q-2.734375 0 -4.34375 -1.671875q-1.59375 -1.6875 -1.59375 -4.734375q0 -3.140625 1.609375 -4.875q1.625 -1.734375 4.203125 -1.734375q2.5 0 4.078125 1.703125q1.59375 1.703125 1.59375 4.78125q0 0.1875 -0.015625 0.5625l-9.28125 0q0.109375 2.046875 1.15625 3.140625q1.046875 1.09375 2.609375 1.09375q1.15625 0 1.96875 -0.609375q0.828125 -0.609375 1.3125 -1.953125zm-6.9375 -3.40625l6.953125 0q-0.140625 -1.5625 -0.796875 -2.359375q-1.0 -1.21875 -2.609375 -1.21875q-1.453125 0 -2.453125 0.984375q-0.984375 0.96875 -1.09375 2.59375z" fill-rule="nonzero"/><path fill="#ffffff" d="m804.0 433.81378l0 0c0 -3.763153 3.0506592 -6.8137817 6.8137817 -6.8137817l64.35669 0c1.8071289 0 3.5402222 0.717865 4.818054 1.995697c1.277832 1.277832 1.9957275 3.0109558 1.9957275 4.8180847l0 27.254333c0 3.763153 -3.0506592 6.8137817 -6.8137817 6.8137817l-64.35669 0c-3.7631226 0 -6.8137817 -3.0506287 -6.8137817 -6.8137817z" fill-rule="evenodd"/><path stroke="#ff0000" stroke-width="1.0" stroke-linejoin="round" stroke-linecap="butt" d="m804.0 433.81378l0 0c0 -3.763153 3.0506592 -6.8137817 6.8137817 -6.8137817l64.35669 0c1.8071289 0 3.5402222 0.717865 4.818054 1.995697c1.277832 1.277832 1.9957275 3.0109558 1.9957275 4.8180847l0 27.254333c0 3.763153 -3.0506592 6.8137817 -6.8137817 6.8137817l-64.35669 0c-3.7631226 0 -6.8137817 -3.0506287 -6.8137817 -6.8137817z" fill-rule="evenodd"/><path fill="#000000" d="m824.85345 455.98096l-3.796875 -12.453125l2.171875 0l1.984375 7.1875l0.734375 2.671875q0.046875 -0.203125 0.640625 -2.5625l1.984375 -7.296875l2.171875 0l1.859375 7.21875l0.625 2.390625l0.71875 -2.40625l2.125 -7.203125l2.046875 0l-3.890625 12.453125l-2.1875 0l-1.984375 -7.453125l-0.46875 -2.125l-2.53125 9.578125l-2.203125 0zm23.566406 -4.015625l2.171875 0.28125q-0.515625 1.90625 -1.90625 2.96875q-1.390625 1.046875 -3.5625 1.046875q-2.734375 0 -4.34375 -1.671875q-1.59375 -1.6875 -1.59375 -4.734375q0 -3.140625 1.609375 -4.875q1.625 -1.734375 4.203125 -1.734375q2.5 0 4.078125 1.703125q1.59375 1.703125 1.59375 4.78125q0 0.1875 -0.015625 0.5625l-9.28125 0q0.109375 2.046875 1.15625 3.140625q1.046875 1.09375 2.609375 1.09375q1.15625 0 1.96875 -0.609375q0.828125 -0.609375 1.3125 -1.953125zm-6.9375 -3.40625l6.953125 0q-0.140625 -1.5625 -0.796875 -2.359375q-1.0 -1.21875 -2.609375 -1.21875q-1.453125 0 -2.453125 0.984375q-0.984375 0.96875 -1.09375 2.59375zm13.707031 7.421875l-1.953125 0l0 -17.1875l2.109375 0l0 6.140625q1.328125 -1.6875 3.40625 -1.6875q1.140625 0 2.171875 0.46875q1.03125 0.46875 1.6875 1.3125q0.65625 0.828125 1.03125 2.015625q0.375 1.171875 0.375 2.53125q0 3.1875 -1.578125 4.9375q-1.578125 1.75 -3.796875 1.75q-2.203125 0 -3.453125 -1.84375l0 1.5625zm-0.03125 -6.3125q0 2.234375 0.609375 3.234375q1.0 1.625 2.703125 1.625q1.375 0 2.375 -1.203125q1.015625 -1.203125 1.015625 -3.578125q0 -2.4375 -0.96875 -3.59375q-0.953125 -1.171875 -2.328125 -1.171875q-1.390625 0 -2.40625 1.203125q-1.0 1.203125 -1.0 3.484375z" fill-rule="nonzero"/><path fill="#ffffff" d="m804.0 537.8138l0 0c0 -3.7631226 3.0506592 -6.8137817 6.8137817 -6.8137817l64.35669 0c1.8071289 0 3.5402222 0.7178955 4.818054 1.9957275c1.277832 1.277832 1.9957275 3.0109253 1.9957275 4.818054l0 27.254333c0 3.7631226 -3.0506592 6.8137817 -6.8137817 6.8137817l-64.35669 0c-3.7631226 0 -6.8137817 -3.0506592 -6.8137817 -6.8137817z" fill-rule="evenodd"/><path stroke="#ff0000" stroke-width="1.0" stroke-linejoin="round" stroke-linecap="butt" d="m804.0 537.8138l0 0c0 -3.7631226 3.0506592 -6.8137817 6.8137817 -6.8137817l64.35669 0c1.8071289 0 3.5402222 0.7178955 4.818054 1.9957275c1.277832 1.277832 1.9957275 3.0109253 1.9957275 4.818054l0 27.254333c0 3.7631226 -3.0506592 6.8137817 -6.8137817 6.8137817l-64.35669 0c-3.7631226 0 -6.8137817 -3.0506592 -6.8137817 -6.8137817z" fill-rule="evenodd"/><path fill="#000000" d="m824.85345 559.98096l-3.796875 -12.453125l2.171875 0l1.984375 7.1875l0.734375 2.671875q0.046875 -0.203125 0.640625 -2.5625l1.984375 -7.296875l2.171875 0l1.859375 7.21875l0.625 2.390625l0.71875 -2.40625l2.125 -7.203125l2.046875 0l-3.890625 12.453125l-2.1875 0l-1.984375 -7.453125l-0.46875 -2.125l-2.53125 9.578125l-2.203125 0zm23.566406 -4.015625l2.171875 0.28125q-0.515625 1.90625 -1.90625 2.96875q-1.390625 1.046875 -3.5625 1.046875q-2.734375 0 -4.34375 -1.671875q-1.59375 -1.6875 -1.59375 -4.734375q0 -3.140625 1.609375 -4.875q1.625 -1.734375 4.203125 -1.734375q2.5 0 4.078125 1.703125q1.59375 1.703125 1.59375 4.78125q0 0.1875 -0.015625 0.5625l-9.28125 0q0.109375 2.046875 1.15625 3.140625q1.046875 1.09375 2.609375 1.09375q1.15625 0 1.96875 -0.609375q0.828125 -0.609375 1.3125 -1.953125zm-6.9375 -3.40625l6.953125 0q-0.140625 -1.5625 -0.796875 -2.359375q-1.0 -1.21875 -2.609375 -1.21875q-1.453125 0 -2.453125 0.984375q-0.984375 0.96875 -1.09375 2.59375zm13.707031 7.421875l-1.953125 0l0 -17.1875l2.109375 0l0 6.140625q1.328125 -1.6875 3.40625 -1.6875q1.140625 0 2.171875 0.46875q1.03125 0.46875 1.6875 1.3125q0.65625 0.828125 1.03125 2.015625q0.375 1.171875 0.375 2.53125q0 3.1875 -1.578125 4.9375q-1.578125 1.75 -3.796875 1.75q-2.203125 0 -3.453125 -1.84375l0 1.5625zm-0.03125 -6.3125q0 2.234375 0.609375 3.234375q1.0 1.625 2.703125 1.625q1.375 0 2.375 -1.203125q1.015625 -1.203125 1.015625 -3.578125q0 -2.4375 -0.96875 -3.59375q-0.953125 -1.171875 -2.328125 -1.171875q-1.390625 0 -2.40625 1.203125q-1.0 1.203125 -1.0 3.484375z" fill-rule="nonzero"/><path fill="#ffffff" d="m516.0 433.81378l0 0c0 -3.763153 3.0506592 -6.8137817 6.8137817 -6.8137817l64.35669 0c1.8071289 0 3.5402222 0.717865 4.818054 1.995697c1.277832 1.277832 1.9957275 3.0109558 1.9957275 4.8180847l0 27.254333c0 3.763153 -3.0506592 6.8137817 -6.8137817 6.8137817l-64.35669 0c-3.7631226 0 -6.8137817 -3.0506287 -6.8137817 -6.8137817z" fill-rule="evenodd"/><path stroke="#ff0000" stroke-width="1.0" stroke-linejoin="round" stroke-linecap="butt" d="m516.0 433.81378l0 0c0 -3.763153 3.0506592 -6.8137817 6.8137817 -6.8137817l64.35669 0c1.8071289 0 3.5402222 0.717865 4.818054 1.995697c1.277832 1.277832 1.9957275 3.0109558 1.9957275 4.8180847l0 27.254333c0 3.763153 -3.0506592 6.8137817 -6.8137817 6.8137817l-64.35669 0c-3.7631226 0 -6.8137817 -3.0506287 -6.8137817 -6.8137817z" fill-rule="evenodd"/><path fill="#000000" d="m547.18353 455.98096l0 -17.1875l2.109375 0l0 17.1875l-2.109375 0zm7.3320312 0l-1.953125 0l0 -17.1875l2.109375 0l0 6.140625q1.328125 -1.6875 3.40625 -1.6875q1.140625 0 2.171875 0.46875q1.03125 0.46875 1.6875 1.3125q0.65625 0.828125 1.03125 2.015625q0.375 1.171875 0.375 2.53125q0 3.1875 -1.578125 4.9375q-1.578125 1.75 -3.796875 1.75q-2.203125 0 -3.453125 -1.84375l0 1.5625zm-0.03125 -6.3125q0 2.234375 0.609375 3.234375q1.0 1.625 2.703125 1.625q1.375 0 2.375 -1.203125q1.015625 -1.203125 1.015625 -3.578125q0 -2.4375 -0.96875 -3.59375q-0.953125 -1.171875 -2.328125 -1.171875q-1.390625 0 -2.40625 1.203125q-1.0 1.203125 -1.0 3.484375z" fill-rule="nonzero"/><path fill="#ffffff" d="m516.0 537.8138l0 0c0 -3.7631226 3.0506592 -6.8137817 6.8137817 -6.8137817l64.35669 0c1.8071289 0 3.5402222 0.7178955 4.818054 1.9957275c1.277832 1.277832 1.9957275 3.0109253 1.9957275 4.818054l0 27.254333c0 3.7631226 -3.0506592 6.8137817 -6.8137817 6.8137817l-64.35669 0c-3.7631226 0 -6.8137817 -3.0506592 -6.8137817 -6.8137817z" fill-rule="evenodd"/><path stroke="#ff0000" stroke-width="1.0" stroke-linejoin="round" stroke-linecap="butt" d="m516.0 537.8138l0 0c0 -3.7631226 3.0506592 -6.8137817 6.8137817 -6.8137817l64.35669 0c1.8071289 0 3.5402222 0.7178955 4.818054 1.9957275c1.277832 1.277832 1.9957275 3.0109253 1.9957275 4.818054l0 27.254333c0 3.7631226 -3.0506592 6.8137817 -6.8137817 6.8137817l-64.35669 0c-3.7631226 0 -6.8137817 -3.0506592 -6.8137817 -6.8137817z" fill-rule="evenodd"/><path fill="#000000" d="m547.18353 559.98096l0 -17.1875l2.109375 0l0 17.1875l-2.109375 0zm7.3320312 0l-1.953125 0l0 -17.1875l2.109375 0l0 6.140625q1.328125 -1.6875 3.40625 -1.6875q1.140625 0 2.171875 0.46875q1.03125 0.46875 1.6875 1.3125q0.65625 0.828125 1.03125 2.015625q0.375 1.171875 0.375 2.53125q0 3.1875 -1.578125 4.9375q-1.578125 1.75 -3.796875 1.75q-2.203125 0 -3.453125 -1.84375l0 1.5625zm-0.03125 -6.3125q0 2.234375 0.609375 3.234375q1.0 1.625 2.703125 1.625q1.375 0 2.375 -1.203125q1.015625 -1.203125 1.015625 -3.578125q0 -2.4375 -0.96875 -3.59375q-0.953125 -1.171875 -2.328125 -1.171875q-1.390625 0 -2.40625 1.203125q-1.0 1.203125 -1.0 3.484375z" fill-rule="nonzero"/><path fill="#000000" fill-opacity="0.0" d="m553.1076 501.3727l77.98425 0l0 22.110199l-77.98425 0z" fill-rule="evenodd"/><path fill="#000000" d="m563.6857 520.96783l0 -12.453125l1.90625 0l0 1.78125q1.375 -2.0625 3.953125 -2.0625q1.125 0 2.0625 0.40625q0.953125 0.40625 1.421875 1.0625q0.46875 0.65625 0.65625 1.5625q0.125 0.578125 0.125 2.046875l0 7.65625l-2.109375 0l0 -7.578125q0 -1.28125 -0.25 -1.921875q-0.25 -0.640625 -0.875 -1.015625q-0.625 -0.390625 -1.46875 -0.390625q-1.34375 0 -2.328125 0.859375q-0.984375 0.859375 -0.984375 3.25l0 6.796875l-2.109375 0zm12.566406 -6.21875q0 -3.46875 1.921875 -5.125q1.609375 -1.390625 3.921875 -1.390625q2.5625 0 4.1875 1.6875q1.625 1.6875 1.625 4.640625q0 2.40625 -0.71875 3.78125q-0.71875 1.375 -2.09375 2.140625q-1.375 0.765625 -3.0 0.765625q-2.625 0 -4.234375 -1.671875q-1.609375 -1.6875 -1.609375 -4.828125zm2.171875 0q0 2.390625 1.03125 3.578125q1.046875 1.1875 2.640625 1.1875q1.5625 0 2.609375 -1.1875q1.046875 -1.203125 1.046875 -3.65625q0 -2.3125 -1.0625 -3.5q-1.046875 -1.1875 -2.59375 -1.1875q-1.59375 0 -2.640625 1.1875q-1.03125 1.1875 -1.03125 3.578125zm20.035156 6.21875l0 -1.578125q-1.1875 1.859375 -3.484375 1.859375q-1.484375 0 -2.734375 -0.8125q-1.25 -0.828125 -1.9375 -2.296875q-0.671875 -1.46875 -0.671875 -3.390625q0 -1.859375 0.609375 -3.375q0.625 -1.515625 1.859375 -2.328125q1.25 -0.8125 2.78125 -0.8125q1.125 0 2.0 0.484375q0.890625 0.46875 1.4375 1.234375l0 -6.171875l2.09375 0l0 17.1875l-1.953125 0zm-6.671875 -6.21875q0 2.390625 1.0 3.578125q1.015625 1.1875 2.390625 1.1875q1.390625 0 2.34375 -1.125q0.96875 -1.140625 0.96875 -3.453125q0 -2.5625 -0.984375 -3.75q-0.984375 -1.203125 -2.421875 -1.203125q-1.40625 0 -2.359375 1.15625q-0.9375 1.140625 -0.9375 3.609375zm20.472656 2.203125l2.171875 0.28125q-0.515625 1.90625 -1.90625 2.96875q-1.390625 1.046875 -3.5625 1.046875q-2.734375 0 -4.34375 -1.671875q-1.59375 -1.6875 -1.59375 -4.734375q0 -3.140625 1.609375 -4.875q1.625 -1.734375 4.203125 -1.734375q2.5 0 4.078125 1.703125q1.59375 1.703125 1.59375 4.78125q0 0.1875 -0.015625 0.5625l-9.28125 0q0.109375 2.046875 1.15625 3.140625q1.046875 1.09375 2.609375 1.09375q1.15625 0 1.96875 -0.609375q0.828125 -0.609375 1.3125 -1.953125zm-6.9375 -3.40625l6.953125 0q-0.140625 -1.5625 -0.796875 -2.359375q-1.0 -1.21875 -2.609375 -1.21875q-1.453125 0 -2.453125 0.984375q-0.984375 0.96875 -1.09375 2.59375z" fill-rule="nonzero"/><path fill="#000000" fill-opacity="0.0" d="m553.1076 397.3727l77.98425 0l0 22.11023l-77.98425 0z" fill-rule="evenodd"/><path fill="#000000" d="m563.6857 416.96783l0 -12.453125l1.90625 0l0 1.78125q1.375 -2.0625 3.953125 -2.0625q1.125 0 2.0625 0.40625q0.953125 0.40625 1.421875 1.0625q0.46875 0.65625 0.65625 1.5625q0.125 0.578125 0.125 2.046875l0 7.65625l-2.109375 0l0 -7.578125q0 -1.28125 -0.25 -1.921875q-0.25 -0.640625 -0.875 -1.015625q-0.625 -0.390625 -1.46875 -0.390625q-1.34375 0 -2.328125 0.859375q-0.984375 0.859375 -0.984375 3.25l0 6.796875l-2.109375 0zm12.566406 -6.21875q0 -3.46875 1.921875 -5.125q1.609375 -1.390625 3.921875 -1.390625q2.5625 0 4.1875 1.6875q1.625 1.6875 1.625 4.640625q0 2.40625 -0.71875 3.78125q-0.71875 1.375 -2.09375 2.140625q-1.375 0.765625 -3.0 0.765625q-2.625 0 -4.234375 -1.671875q-1.609375 -1.6875 -1.609375 -4.828125zm2.171875 0q0 2.390625 1.03125 3.578125q1.046875 1.1875 2.640625 1.1875q1.5625 0 2.609375 -1.1875q1.046875 -1.203125 1.046875 -3.65625q0 -2.3125 -1.0625 -3.5q-1.046875 -1.1875 -2.59375 -1.1875q-1.59375 0 -2.640625 1.1875q-1.03125 1.1875 -1.03125 3.578125zm20.035156 6.21875l0 -1.578125q-1.1875 1.859375 -3.484375 1.859375q-1.484375 0 -2.734375 -0.8125q-1.25 -0.828125 -1.9375 -2.296875q-0.671875 -1.46875 -0.671875 -3.390625q0 -1.859375 0.609375 -3.375q0.625 -1.515625 1.859375 -2.328125q1.25 -0.8125 2.78125 -0.8125q1.125 0 2.0 0.484375q0.890625 0.46875 1.4375 1.234375l0 -6.171875l2.09375 0l0 17.1875l-1.953125 0zm-6.671875 -6.21875q0 2.390625 1.0 3.578125q1.015625 1.1875 2.390625 1.1875q1.390625 0 2.34375 -1.125q0.96875 -1.140625 0.96875 -3.453125q0 -2.5625 -0.984375 -3.75q-0.984375 -1.203125 -2.421875 -1.203125q-1.40625 0 -2.359375 1.15625q-0.9375 1.140625 -0.9375 3.609375zm20.472656 2.203125l2.171875 0.28125q-0.515625 1.90625 -1.90625 2.96875q-1.390625 1.046875 -3.5625 1.046875q-2.734375 0 -4.34375 -1.671875q-1.59375 -1.6875 -1.59375 -4.734375q0 -3.140625 1.609375 -4.875q1.625 -1.734375 4.203125 -1.734375q2.5 0 4.078125 1.703125q1.59375 1.703125 1.59375 4.78125q0 0.1875 -0.015625 0.5625l-9.28125 0q0.109375 2.046875 1.15625 3.140625q1.046875 1.09375 2.609375 1.09375q1.15625 0 1.96875 -0.609375q0.828125 -0.609375 1.3125 -1.953125zm-6.9375 -3.40625l6.953125 0q-0.140625 -1.5625 -0.796875 -2.359375q-1.0 -1.21875 -2.609375 -1.21875q-1.453125 0 -2.453125 0.984375q-0.984375 0.96875 -1.09375 2.59375z" fill-rule="nonzero"/><path fill="#9fc5e8" d="m489.7953 262.83508l0 0c0 -12.362137 10.021484 -22.383636 22.383667 -22.383636l96.52399 0l0 0c5.9365234 0 11.629883 2.358261 15.827637 6.556015c4.197754 4.197754 6.5560303 9.891129 6.5560303 15.827621l0 89.53192c0 12.362152 -10.021484 22.383667 -22.383667 22.383667l-96.52399 0c-12.362183 0 -22.383667 -10.021515 -22.383667 -22.383667z" fill-rule="evenodd"/><path stroke="#000000" stroke-width="1.0" stroke-linejoin="round" stroke-linecap="butt" d="m489.7953 262.83508l0 0c0 -12.362137 10.021484 -22.383636 22.383667 -22.383636l96.52399 0l0 0c5.9365234 0 11.629883 2.358261 15.827637 6.556015c4.197754 4.197754 6.5560303 9.891129 6.5560303 15.827621l0 89.53192c0 12.362152 -10.021484 22.383667 -22.383667 22.383667l-96.52399 0c-12.362183 0 -22.383667 -10.021515 -22.383667 -22.383667z" fill-rule="evenodd"/><path fill="#ffffff" d="m516.0 329.81378l0 0c0 -3.763153 3.0506592 -6.8137817 6.8137817 -6.8137817l64.35669 0c1.8071289 0 3.5402222 0.717865 4.818054 1.995697c1.277832 1.277832 1.9957275 3.0109558 1.9957275 4.8180847l0 27.254333c0 3.763153 -3.0506592 6.8137817 -6.8137817 6.8137817l-64.35669 0c-3.7631226 0 -6.8137817 -3.0506287 -6.8137817 -6.8137817z" fill-rule="evenodd"/><path stroke="#ff0000" stroke-width="1.0" stroke-linejoin="round" stroke-linecap="butt" d="m516.0 329.81378l0 0c0 -3.763153 3.0506592 -6.8137817 6.8137817 -6.8137817l64.35669 0c1.8071289 0 3.5402222 0.717865 4.818054 1.995697c1.277832 1.277832 1.9957275 3.0109558 1.9957275 4.8180847l0 27.254333c0 3.763153 -3.0506592 6.8137817 -6.8137817 6.8137817l-64.35669 0c-3.7631226 0 -6.8137817 -3.0506287 -6.8137817 -6.8137817z" fill-rule="evenodd"/><path fill="#000000" d="m547.18353 351.98096l0 -17.1875l2.109375 0l0 17.1875l-2.109375 0zm7.3320312 0l-1.953125 0l0 -17.1875l2.109375 0l0 6.140625q1.328125 -1.6875 3.40625 -1.6875q1.140625 0 2.171875 0.46875q1.03125 0.46875 1.6875 1.3125q0.65625 0.828125 1.03125 2.015625q0.375 1.171875 0.375 2.53125q0 3.1875 -1.578125 4.9375q-1.578125 1.75 -3.796875 1.75q-2.203125 0 -3.453125 -1.84375l0 1.5625zm-0.03125 -6.3125q0 2.234375 0.609375 3.234375q1.0 1.625 2.703125 1.625q1.375 0 2.375 -1.203125q1.015625 -1.203125 1.015625 -3.578125q0 -2.4375 -0.96875 -3.59375q-0.953125 -1.171875 -2.328125 -1.171875q-1.390625 0 -2.40625 1.203125q-1.0 1.203125 -1.0 3.484375z" fill-rule="nonzero"/><path fill="#000000" fill-opacity="0.0" d="m553.1076 245.3727l77.98425 0l0 22.110245l-77.98425 0z" fill-rule="evenodd"/><path fill="#000000" d="m563.6857 264.96783l0 -12.45314l1.90625 0l0 1.78125q1.375 -2.0625 3.953125 -2.0625q1.125 0 2.0625 0.40625q0.953125 0.40625 1.421875 1.0625q0.46875 0.65625 0.65625 1.5625q0.125 0.578125 0.125 2.0468903l0 7.65625l-2.109375 0l0 -7.578125q0 -1.28125 -0.25 -1.9218903q-0.25 -0.640625 -0.875 -1.015625q-0.625 -0.390625 -1.46875 -0.390625q-1.34375 0 -2.328125 0.859375q-0.984375 0.859375 -0.984375 3.2500153l0 6.796875l-2.109375 0zm12.566406 -6.21875q0 -3.4687653 1.921875 -5.1250153q1.609375 -1.390625 3.921875 -1.390625q2.5625 0 4.1875 1.6875q1.625 1.6875 1.625 4.6406403q0 2.40625 -0.71875 3.78125q-0.71875 1.375 -2.09375 2.140625q-1.375 0.765625 -3.0 0.765625q-2.625 0 -4.234375 -1.671875q-1.609375 -1.6875 -1.609375 -4.828125zm2.171875 0q0 2.390625 1.03125 3.578125q1.046875 1.1875 2.640625 1.1875q1.5625 0 2.609375 -1.1875q1.046875 -1.203125 1.046875 -3.65625q0 -2.3125 -1.0625 -3.5000153q-1.046875 -1.1875 -2.59375 -1.1875q-1.59375 0 -2.640625 1.1875q-1.03125 1.1875153 -1.03125 3.5781403zm20.035156 6.21875l0 -1.578125q-1.1875 1.859375 -3.484375 1.859375q-1.484375 0 -2.734375 -0.8125q-1.25 -0.828125 -1.9375 -2.296875q-0.671875 -1.46875 -0.671875 -3.390625q0 -1.859375 0.609375 -3.3750153q0.625 -1.515625 1.859375 -2.328125q1.25 -0.8125 2.78125 -0.8125q1.125 0 2.0 0.484375q0.890625 0.46875 1.4375 1.234375l0 -6.171875l2.09375 0l0 17.187515l-1.953125 0zm-6.671875 -6.21875q0 2.390625 1.0 3.578125q1.015625 1.1875 2.390625 1.1875q1.390625 0 2.34375 -1.125q0.96875 -1.140625 0.96875 -3.453125q0 -2.5625 -0.984375 -3.7500153q-0.984375 -1.203125 -2.421875 -1.203125q-1.40625 0 -2.359375 1.15625q-0.9375 1.1406403 -0.9375 3.6093903zm20.472656 2.203125l2.171875 0.28125q-0.515625 1.90625 -1.90625 2.96875q-1.390625 1.046875 -3.5625 1.046875q-2.734375 0 -4.34375 -1.671875q-1.59375 -1.6875 -1.59375 -4.734375q0 -3.1406403 1.609375 -4.8750153q1.625 -1.734375 4.203125 -1.734375q2.5 0 4.078125 1.703125q1.59375 1.703125 1.59375 4.7812653q0 0.1875 -0.015625 0.5625l-9.28125 0q0.109375 2.046875 1.15625 3.140625q1.046875 1.09375 2.609375 1.09375q1.15625 0 1.96875 -0.609375q0.828125 -0.609375 1.3125 -1.953125zm-6.9375 -3.40625l6.953125 0q-0.140625 -1.5625153 -0.796875 -2.3593903q-1.0 -1.21875 -2.609375 -1.21875q-1.453125 0 -2.453125 0.984375q-0.984375 0.96875 -1.09375 2.5937653z" fill-rule="nonzero"/><path fill="#9fc5e8" d="m170.32283 307.60403l0 0c0 -9.573151 7.760559 -17.33368 17.33368 -17.33368l166.27754 0c4.597168 0 9.0060425 1.8262024 12.256744 5.0769043c3.250702 3.250702 5.076935 7.6595764 5.076935 12.256775l0 69.33264c0 9.57312 -7.760559 17.33368 -17.33368 17.33368l-166.27754 0c-9.57312 0 -17.33368 -7.760559 -17.33368 -17.33368z" fill-rule="evenodd"/><path stroke="#000000" stroke-width="1.0" stroke-linejoin="round" stroke-linecap="butt" d="m170.32283 307.60403l0 0c0 -9.573151 7.760559 -17.33368 17.33368 -17.33368l166.27754 0c4.597168 0 9.0060425 1.8262024 12.256744 5.0769043c3.250702 3.250702 5.076935 7.6595764 5.076935 12.256775l0 69.33264c0 9.57312 -7.760559 17.33368 -17.33368 17.33368l-166.27754 0c-9.57312 0 -17.33368 -7.760559 -17.33368 -17.33368z" fill-rule="evenodd"/><path fill="#000000" d="m186.29031 327.3872l0 -17.1875l7.609375 0q2.296875 0 3.484375 0.46875q1.203125 0.46875 1.921875 1.640625q0.71875 1.171875 0.71875 2.578125q0 1.828125 -1.1875 3.09375q-1.1875 1.25 -3.65625 1.59375q0.90625 0.421875 1.375 0.84375q1.0 0.921875 1.890625 2.296875l2.984375 4.671875l-2.859375 0l-2.28125 -3.578125q-0.984375 -1.546875 -1.640625 -2.359375q-0.640625 -0.828125 -1.15625 -1.15625q-0.5 -0.328125 -1.03125 -0.453125q-0.390625 -0.078125 -1.265625 -0.078125l-2.640625 0l0 7.625l-2.265625 0zm2.265625 -9.59375l4.890625 0q1.5625 0 2.4375 -0.328125q0.875 -0.328125 1.328125 -1.03125q0.46875 -0.703125 0.46875 -1.546875q0 -1.21875 -0.890625 -2.0q-0.875 -0.78125 -2.796875 -0.78125l-5.4375 0l0 5.6875zm13.972656 3.375q0 -3.46875 1.921875 -5.125q1.609375 -1.390625 3.921875 -1.390625q2.5625 0 4.1875 1.6875q1.625 1.6875 1.625 4.640625q0 2.40625 -0.71875 3.78125q-0.71875 1.375 -2.09375 2.140625q-1.375 0.765625 -3.0 0.765625q-2.625 0 -4.234375 -1.671875q-1.609375 -1.6875 -1.609375 -4.828125zm2.171875 0q0 2.390625 1.03125 3.578125q1.046875 1.1875 2.640625 1.1875q1.5625 0 2.609375 -1.1875q1.046875 -1.203125 1.046875 -3.65625q0 -2.3125 -1.0625 -3.5q-1.046875 -1.1875 -2.59375 -1.1875q-1.59375 0 -2.640625 1.1875q-1.03125 1.1875 -1.03125 3.578125zm20.113281 6.21875l0 -1.828125q-1.453125 2.109375 -3.9375 2.109375q-1.109375 0 -2.0625 -0.421875q-0.953125 -0.421875 -1.421875 -1.0625q-0.453125 -0.640625 -0.640625 -1.5625q-0.140625 -0.625 -0.140625 -1.96875l0 -7.71875l2.109375 0l0 6.90625q0 1.65625 0.140625 2.234375q0.1875 0.828125 0.828125 1.3125q0.65625 0.46875 1.609375 0.46875q0.9375 0 1.765625 -0.484375q0.84375 -0.5 1.1875 -1.328125q0.34375 -0.84375 0.34375 -2.4375l0 -6.671875l2.109375 0l0 12.453125l-1.890625 0zm9.800781 -1.890625l0.3125 1.859375q-0.890625 0.203125 -1.59375 0.203125q-1.15625 0 -1.796875 -0.359375q-0.625 -0.375 -0.890625 -0.96875q-0.25 -0.59375 -0.25 -2.484375l0 -7.171875l-1.546875 0l0 -1.640625l1.546875 0l0 -3.078125l2.09375 -1.265625l0 4.34375l2.125 0l0 1.640625l-2.125 0l0 7.28125q0 0.90625 0.109375 1.171875q0.125 0.25 0.375 0.40625q0.25 0.140625 0.71875 0.140625q0.34375 0 0.921875 -0.078125zm10.589844 -2.125l2.171875 0.28125q-0.515625 1.90625 -1.90625 2.96875q-1.390625 1.046875 -3.5625 1.046875q-2.734375 0 -4.34375 -1.671875q-1.59375 -1.6875 -1.59375 -4.734375q0 -3.140625 1.609375 -4.875q1.625 -1.734375 4.203125 -1.734375q2.5 0 4.078125 1.703125q1.59375 1.703125 1.59375 4.78125q0 0.1875 -0.015625 0.5625l-9.28125 0q0.109375 2.046875 1.15625 3.140625q1.046875 1.09375 2.609375 1.09375q1.15625 0 1.96875 -0.609375q0.828125 -0.609375 1.3125 -1.953125zm-6.9375 -3.40625l6.953125 0q-0.140625 -1.5625 -0.796875 -2.359375q-1.0 -1.21875 -2.609375 -1.21875q-1.453125 0 -2.453125 0.984375q-0.984375 0.96875 -1.09375 2.59375zm18.734375 7.421875l0 -17.1875l7.609375 0q2.296875 0 3.484375 0.46875q1.203125 0.46875 1.921875 1.640625q0.71875 1.171875 0.71875 2.578125q0 1.828125 -1.1875 3.09375q-1.1875 1.25 -3.65625 1.59375q0.90625 0.421875 1.375 0.84375q1.0 0.921875 1.890625 2.296875l2.984375 4.671875l-2.859375 0l-2.28125 -3.578125q-0.984375 -1.546875 -1.640625 -2.359375q-0.640625 -0.828125 -1.15625 -1.15625q-0.5 -0.328125 -1.03125 -0.453125q-0.390625 -0.078125 -1.265625 -0.078125l-2.640625 0l0 7.625l-2.265625 0zm2.265625 -9.59375l4.890625 0q1.5625 0 2.4375 -0.328125q0.875 -0.328125 1.328125 -1.03125q0.46875 -0.703125 0.46875 -1.546875q0 -1.21875 -0.890625 -2.0q-0.875 -0.78125 -2.796875 -0.78125l-5.4375 0l0 5.6875zm23.285156 5.578125l2.171875 0.28125q-0.515625 1.90625 -1.90625 2.96875q-1.390625 1.046875 -3.5625 1.046875q-2.734375 0 -4.34375 -1.671875q-1.59375 -1.6875 -1.59375 -4.734375q0 -3.140625 1.609375 -4.875q1.625 -1.734375 4.203125 -1.734375q2.5 0 4.078125 1.703125q1.59375 1.703125 1.59375 4.78125q0 0.1875 -0.015625 0.5625l-9.28125 0q0.109375 2.046875 1.15625 3.140625q1.046875 1.09375 2.609375 1.09375q1.15625 0 1.96875 -0.609375q0.828125 -0.609375 1.3125 -1.953125zm-6.9375 -3.40625l6.953125 0q-0.140625 -1.5625 -0.796875 -2.359375q-1.0 -1.21875 -2.609375 -1.21875q-1.453125 0 -2.453125 0.984375q-0.984375 0.96875 -1.09375 2.59375zm12.269531 7.421875l0 -10.8125l-1.875 0l0 -1.640625l1.875 0l0 -1.3125q0 -1.265625 0.21875 -1.875q0.296875 -0.8125 1.0625 -1.3125q0.78125 -0.515625 2.15625 -0.515625q0.890625 0 1.96875 0.203125l-0.3125 1.84375q-0.65625 -0.125 -1.25 -0.125q-0.953125 0 -1.359375 0.421875q-0.390625 0.40625 -0.390625 1.53125l0 1.140625l2.421875 0l0 1.640625l-2.421875 0l0 10.8125l-2.09375 0zm6.1054688 0l0 -17.1875l2.109375 0l0 17.1875l-2.109375 0zm13.910156 -4.015625l2.171875 0.28125q-0.515625 1.90625 -1.90625 2.96875q-1.390625 1.046875 -3.5625 1.046875q-2.734375 0 -4.34375 -1.671875q-1.59375 -1.6875 -1.59375 -4.734375q0 -3.140625 1.609375 -4.875q1.625 -1.734375 4.203125 -1.734375q2.5 0 4.078125 1.703125q1.59375 1.703125 1.59375 4.78125q0 0.1875 -0.015625 0.5625l-9.28125 0q0.109375 2.046875 1.15625 3.140625q1.046875 1.09375 2.609375 1.09375q1.15625 0 1.96875 -0.609375q0.828125 -0.609375 1.3125 -1.953125zm-6.9375 -3.40625l6.953125 0q-0.140625 -1.5625 -0.796875 -2.359375q-1.0 -1.21875 -2.609375 -1.21875q-1.453125 0 -2.453125 0.984375q-0.984375 0.96875 -1.09375 2.59375zm19.878906 2.859375l2.078125 0.265625q-0.34375 2.15625 -1.75 3.375q-1.390625 1.203125 -3.4375 1.203125q-2.546875 0 -4.109375 -1.671875q-1.546875 -1.671875 -1.546875 -4.78125q0 -2.015625 0.671875 -3.53125q0.671875 -1.515625 2.03125 -2.265625q1.359375 -0.765625 2.96875 -0.765625q2.03125 0 3.3125 1.03125q1.296875 1.03125 1.65625 2.90625l-2.046875 0.328125q-0.296875 -1.265625 -1.046875 -1.890625q-0.734375 -0.640625 -1.796875 -0.640625q-1.59375 0 -2.59375 1.15625q-0.984375 1.140625 -0.984375 3.609375q0 2.5 0.953125 3.640625q0.96875 1.140625 2.515625 1.140625q1.234375 0 2.0625 -0.765625q0.84375 -0.765625 1.0625 -2.34375zm8.484375 2.671875l0.3125 1.859375q-0.890625 0.203125 -1.59375 0.203125q-1.15625 0 -1.796875 -0.359375q-0.625 -0.375 -0.890625 -0.96875q-0.25 -0.59375 -0.25 -2.484375l0 -7.171875l-1.546875 0l0 -1.640625l1.546875 0l0 -3.078125l2.09375 -1.265625l0 4.34375l2.125 0l0 1.640625l-2.125 0l0 7.28125q0 0.90625 0.109375 1.171875q0.125 0.25 0.375 0.40625q0.25 0.140625 0.71875 0.140625q0.34375 0 0.921875 -0.078125zm1.2773438 -4.328125q0 -3.46875 1.921875 -5.125q1.609375 -1.390625 3.921875 -1.390625q2.5625 0 4.1875 1.6875q1.625 1.6875 1.625 4.640625q0 2.40625 -0.71875 3.78125q-0.71875 1.375 -2.09375 2.140625q-1.375 0.765625 -3.0 0.765625q-2.625 0 -4.234375 -1.671875q-1.609375 -1.6875 -1.609375 -4.828125zm2.171875 0q0 2.390625 1.03125 3.578125q1.046875 1.1875 2.640625 1.1875q1.5625 0 2.609375 -1.1875q1.046875 -1.203125 1.046875 -3.65625q0 -2.3125 -1.0625 -3.5q-1.046875 -1.1875 -2.59375 -1.1875q-1.59375 0 -2.640625 1.1875q-1.03125 1.1875 -1.03125 3.578125zm11.941406 6.21875l0 -12.453125l1.890625 0l0 1.890625q0.734375 -1.328125 1.34375 -1.75q0.625 -0.421875 1.359375 -0.421875q1.0625 0 2.171875 0.6875l-0.734375 1.953125q-0.765625 -0.453125 -1.546875 -0.453125q-0.6875 0 -1.25 0.421875q-0.546875 0.40625 -0.78125 1.140625q-0.34375 1.125 -0.34375 2.46875l0 6.515625l-2.109375 0z" fill-rule="nonzero"/><path fill="#a4c2f4" d="m193.17323 538.4752l0 0c0 -3.5805054 2.9025574 -6.4830933 6.4830627 -6.4830933l146.08897 0c1.7194214 0 3.3684082 0.68304443 4.5842285 1.8988647c1.2158203 1.2158203 1.8988342 2.8648071 1.8988342 4.5842285l0 25.931458c0 3.5805054 -2.9025574 6.4830933 -6.4830627 6.4830933l-146.08897 0l0 0c-3.5805054 0 -6.4830627 -2.902588 -6.4830627 -6.4830933z" fill-rule="evenodd"/><path stroke="#000000" stroke-width="1.0" stroke-linejoin="round" stroke-linecap="butt" d="m193.17323 538.4752l0 0c0 -3.5805054 2.9025574 -6.4830933 6.4830627 -6.4830933l146.08897 0c1.7194214 0 3.3684082 0.68304443 4.5842285 1.8988647c1.2158203 1.2158203 1.8988342 2.8648071 1.8988342 4.5842285l0 25.931458c0 3.5805054 -2.9025574 6.4830933 -6.4830627 6.4830933l-146.08897 0l0 0c-3.5805054 0 -6.4830627 -2.902588 -6.4830627 -6.4830933z" fill-rule="evenodd"/><path fill="#000000" d="m238.57384 559.98096l0 -17.1875l7.609375 0q2.296875 0 3.484375 0.46875q1.203125 0.46875 1.921875 1.640625q0.71875 1.171875 0.71875 2.578125q0 1.828125 -1.1875 3.09375q-1.1875 1.25 -3.65625 1.59375q0.90625 0.421875 1.375 0.84375q1.0 0.921875 1.890625 2.296875l2.984375 4.671875l-2.859375 0l-2.28125 -3.578125q-0.984375 -1.546875 -1.640625 -2.359375q-0.640625 -0.828125 -1.15625 -1.15625q-0.5 -0.328125 -1.03125 -0.453125q-0.390625 -0.078125 -1.265625 -0.078125l-2.640625 0l0 7.625l-2.265625 0zm2.265625 -9.59375l4.890625 0q1.5625 0 2.4375 -0.328125q0.875 -0.328125 1.328125 -1.03125q0.46875 -0.703125 0.46875 -1.546875q0 -1.21875 -0.890625 -2.0q-0.875 -0.78125 -2.796875 -0.78125l-5.4375 0l0 5.6875zm13.972656 3.375q0 -3.46875 1.9218597 -5.125q1.609375 -1.390625 3.921875 -1.390625q2.5625 0 4.1875 1.6875q1.625 1.6875 1.625 4.640625q0 2.40625 -0.71875 3.78125q-0.71875 1.375 -2.09375 2.140625q-1.375 0.765625 -3.0 0.765625q-2.625 0 -4.234375 -1.671875q-1.6093597 -1.6875 -1.6093597 -4.828125zm2.1718597 0q0 2.390625 1.03125 3.578125q1.046875 1.1875 2.640625 1.1875q1.5625 0 2.609375 -1.1875q1.046875 -1.203125 1.046875 -3.65625q0 -2.3125 -1.0625 -3.5q-1.046875 -1.1875 -2.59375 -1.1875q-1.59375 0 -2.640625 1.1875q-1.03125 1.1875 -1.03125 3.578125zm20.113281 6.21875l0 -1.828125q-1.453125 2.109375 -3.9375 2.109375q-1.109375 0 -2.0625 -0.421875q-0.953125 -0.421875 -1.421875 -1.0625q-0.453125 -0.640625 -0.640625 -1.5625q-0.140625 -0.625 -0.140625 -1.96875l0 -7.71875l2.109375 0l0 6.90625q0 1.65625 0.140625 2.234375q0.1875 0.828125 0.828125 1.3125q0.65625 0.46875 1.609375 0.46875q0.9375 0 1.765625 -0.484375q0.84375 -0.5 1.1875 -1.328125q0.34375 -0.84375 0.34375 -2.4375l0 -6.671875l2.109375 0l0 12.453125l-1.890625 0zm9.800781 -1.890625l0.3125 1.859375q-0.890625 0.203125 -1.59375 0.203125q-1.15625 0 -1.796875 -0.359375q-0.625 -0.375 -0.890625 -0.96875q-0.25 -0.59375 -0.25 -2.484375l0 -7.171875l-1.546875 0l0 -1.640625l1.546875 0l0 -3.078125l2.09375 -1.265625l0 4.34375l2.125 0l0 1.640625l-2.125 0l0 7.28125q0 0.90625 0.109375 1.171875q0.125 0.25 0.375 0.40625q0.25 0.140625 0.71875 0.140625q0.34375 0 0.921875 -0.078125zm10.589844 -2.125l2.171875 0.28125q-0.515625 1.90625 -1.90625 2.96875q-1.390625 1.046875 -3.5625 1.046875q-2.734375 0 -4.34375 -1.671875q-1.59375 -1.6875 -1.59375 -4.734375q0 -3.140625 1.609375 -4.875q1.625 -1.734375 4.203125 -1.734375q2.5 0 4.078125 1.703125q1.59375 1.703125 1.59375 4.78125q0 0.1875 -0.015625 0.5625l-9.28125 0q0.109375 2.046875 1.15625 3.140625q1.046875 1.09375 2.609375 1.09375q1.15625 0 1.96875 -0.609375q0.828125 -0.609375 1.3125 -1.953125zm-6.9375 -3.40625l6.953125 0q-0.140625 -1.5625 -0.796875 -2.359375q-1.0 -1.21875 -2.609375 -1.21875q-1.453125 0 -2.453125 0.984375q-0.984375 0.96875 -1.09375 2.59375zm11.738281 7.421875l0 -12.453125l1.890625 0l0 1.890625q0.734375 -1.328125 1.34375 -1.75q0.625 -0.421875 1.359375 -0.421875q1.0625 0 2.171875 0.6875l-0.734375 1.953125q-0.765625 -0.453125 -1.546875 -0.453125q-0.6875 0 -1.25 0.421875q-0.546875 0.40625 -0.78125 1.140625q-0.34375 1.125 -0.34375 2.46875l0 6.515625l-2.109375 0z" fill-rule="nonzero"/><path fill="#000000" fill-opacity="0.0" d="m516.0 343.44095l-175.71652 16.566925" fill-rule="evenodd"/><path stroke="#ff0000" stroke-width="3.0" stroke-linejoin="round" stroke-linecap="butt" stroke-dasharray="12.0,9.0" d="m516.0 343.44095l-175.71652 16.566925" fill-rule="evenodd"/><path fill="#000000" fill-opacity="0.0" d="m516.0 447.44095l-175.71652 -87.433075" fill-rule="evenodd"/><path stroke="#ff0000" stroke-width="3.0" stroke-linejoin="round" stroke-linecap="butt" stroke-dasharray="12.0,9.0" d="m516.0 447.44095l-175.71652 -87.433075" fill-rule="evenodd"/><path fill="#000000" fill-opacity="0.0" d="m516.0 551.4409l-175.71652 -191.43304" fill-rule="evenodd"/><path stroke="#ff0000" stroke-width="3.0" stroke-linejoin="round" stroke-linecap="butt" stroke-dasharray="12.0,9.0" d="m516.0 551.4409l-175.71652 -191.43304" fill-rule="evenodd"/><path fill="#000000" fill-opacity="0.0" d="m352.22833 551.4409c40.943268 0 61.414062 -51.99997 81.886505 -103.99997c20.472443 -52.0 40.946503 -104.0 81.893036 -104.0" fill-rule="evenodd"/><path stroke="#00c400" stroke-width="2.0" stroke-linejoin="round" stroke-linecap="butt" d="m352.22833 551.4409c40.943268 0 61.414062 -51.99997 81.886505 -103.99997c10.236206 -26.0 20.47284 -52.0 33.268738 -71.5c6.3979187 -9.75 13.435699 -17.875 21.433136 -23.5625c3.9986877 -2.84375 8.237335 -5.078125 12.75589 -6.601532c0.56481934 -0.1904602 1.1340027 -0.369812 1.7076111 -0.53778076c0.14343262 -0.042053223 0.2871399 -0.083343506 0.43112183 -0.12390137l0.39889526 -0.11026001" fill-rule="evenodd"/><path fill="#00c400" stroke="#00c400" stroke-width="2.0" stroke-linecap="butt" d="m504.54077 348.28024l8.568237 -4.4582214l-9.429321 -2.0923462z" fill-rule="evenodd"/><path fill="#000000" fill-opacity="0.0" d="m352.22833 551.4409c40.943268 0 61.414062 -26.0 81.886505 -51.99997c20.472443 -26.0 40.946503 -52.0 81.893036 -52.0" fill-rule="evenodd"/><path stroke="#00c400" stroke-width="2.0" stroke-linejoin="round" stroke-linecap="butt" d="m352.22833 551.4409c40.943268 0 61.414062 -26.0 81.886505 -51.99997c10.236206 -13.0 20.47284 -26.0 33.268738 -35.75c6.3979187 -4.875 13.435699 -8.9375 21.433136 -11.78125c3.9986877 -1.421875 8.237335 -2.539032 12.75589 -3.3007812c0.56481934 -0.095214844 1.1340027 -0.18487549 1.7076111 -0.26889038l0.75387573 -0.10626221" fill-rule="evenodd"/><path fill="#00c400" stroke="#00c400" stroke-width="2.0" stroke-linecap="butt" d="m504.25235 451.53003l8.838104 -3.8959045l-9.274628 -2.6965942z" fill-rule="evenodd"/><path fill="#000000" fill-opacity="0.0" d="m352.22833 551.4409c40.943268 0 61.414062 0.01574707 81.886505 0.03149414c20.472443 0.01574707 40.946503 0.031555176 81.893036 0.031555176" fill-rule="evenodd"/><path stroke="#00c400" stroke-width="2.0" stroke-linejoin="round" stroke-linecap="butt" d="m352.22833 551.4409c40.943268 0 61.414062 0.01574707 81.886505 0.03149414c10.236206 0.007873535 20.47284 0.01574707 33.268738 0.02166748c6.3979187 0.0029907227 13.435699 0.005432129 21.433136 0.0071411133l15.191162 0.0015258789" fill-rule="evenodd"/><path fill="#00c400" stroke="#00c400" stroke-width="2.0" stroke-linecap="butt" d="m504.00754 554.8062l9.076508 -3.3025513l-9.075836 -3.3043823z" fill-rule="evenodd"/><path fill="#000000" fill-opacity="0.0" d="m593.98425 551.4409c52.503906 0 78.75592 -77.74802 105.00787 -155.49603c26.251953 -77.74805 52.503906 -155.49606 105.00787 -155.49606" fill-rule="evenodd"/><path stroke="#ff0000" stroke-width="2.0" stroke-linejoin="round" stroke-linecap="butt" d="m593.98425 551.4409c52.503906 0 78.75592 -77.74802 105.00787 -155.49603c13.125977 -38.874023 26.251953 -77.74805 42.659424 -106.903534c8.203735 -14.577759 17.227905 -26.725891 27.482544 -35.229584c5.1273804 -4.2518463 10.562317 -7.5925903 16.356201 -9.870377c1.4485474 -0.5694275 2.9193726 -1.0724335 4.413513 -1.5066376c0.3735962 -0.108551025 0.7484741 -0.21279907 1.125 -0.31271362c0.18823242 -0.049957275 0.37677002 -0.09883118 0.56573486 -0.14660645l0.48815918 -0.120391846" fill-rule="evenodd"/><path fill="#ff0000" stroke="#ff0000" stroke-width="2.0" stroke-linecap="butt" d="m792.4698 245.13576l8.626526 -4.3443146l-9.400757 -2.2170868z" fill-rule="evenodd"/><path fill="#000000" fill-opacity="0.0" d="m593.98425 551.4409c52.503906 0 78.75592 -51.99997 105.00787 -103.99997c26.251953 -52.0 52.503906 -104.0 105.00787 -104.0" fill-rule="evenodd"/><path stroke="#ff0000" stroke-width="2.0" stroke-linejoin="round" stroke-linecap="butt" d="m593.98425 551.4409c52.503906 0 78.75592 -51.99997 105.00787 -103.99997c13.125977 -26.0 26.251953 -52.0 42.659424 -71.5c8.203735 -9.75 17.227905 -17.875 27.482544 -23.5625c5.1273804 -2.84375 10.562317 -5.078125 16.356201 -6.601532c1.4485474 -0.3808899 2.9193726 -0.7173157 4.413513 -1.007721c0.3735962 -0.07260132 0.7484741 -0.1423645 1.125 -0.20916748c0.18823242 -0.033416748 0.37677002 -0.066101074 0.56573486 -0.09805298l0.44293213 -0.073028564" fill-rule="evenodd"/><path fill="#ff0000" stroke="#ff0000" stroke-width="2.0" stroke-linecap="butt" d="m792.29846 347.68207l8.786865 -4.0101624l-9.308777 -2.5761108z" fill-rule="evenodd"/><path fill="#000000" fill-opacity="0.0" d="m593.98425 551.4409c52.503906 0 78.75592 -26.0 105.00787 -51.99997c26.251953 -26.0 52.503906 -52.0 105.00787 -52.0" fill-rule="evenodd"/><path stroke="#ff0000" stroke-width="2.0" stroke-linejoin="round" stroke-linecap="butt" d="m593.98425 551.4409c52.503906 0 78.75592 -26.0 105.00787 -51.99997c13.125977 -13.0 26.251953 -26.0 42.659424 -35.75c8.203735 -4.875 17.227905 -8.9375 27.482544 -11.78125c5.1273804 -1.421875 10.562317 -2.539032 16.356201 -3.3007812c1.4485474 -0.1904602 2.9193726 -0.35864258 4.413513 -0.5038452c0.3735962 -0.0362854 0.7484741 -0.07116699 1.125 -0.10458374l0.98065186 -0.08291626" fill-rule="evenodd"/><path fill="#ff0000" stroke="#ff0000" stroke-width="2.0" stroke-linecap="butt" d="m792.1407 451.2184l8.937805 -3.6613464l-9.200256 -2.9403687z" fill-rule="evenodd"/><path fill="#000000" fill-opacity="0.0" d="m593.98425 551.4409c52.503906 0 78.75592 0.01574707 105.00787 0.03149414c26.251953 0.01574707 52.503906 0.031555176 105.00787 0.031555176" fill-rule="evenodd"/><path stroke="#ff0000" stroke-width="2.0" stroke-linejoin="round" stroke-linecap="butt" d="m593.98425 551.4409c52.503906 0 78.75592 0.01574707 105.00787 0.03149414c13.125977 0.007873535 26.251953 0.01574707 42.659424 0.02166748c8.203735 0.0029907227 17.227905 0.005432129 27.482544 0.0071411133l22.865906 0.0017700195" fill-rule="evenodd"/><path fill="#ff0000" stroke="#ff0000" stroke-width="2.0" stroke-linecap="butt" d="m791.99976 554.80646l9.076416 -3.3027344l-9.075928 -3.3041992z" fill-rule="evenodd"/><path fill="#000000" fill-opacity="0.0" d="m593.98425 447.44095c52.503906 0 78.75592 -51.748047 105.00787 -103.49606c26.251953 -51.748047 52.503906 -103.49606 105.00787 -103.49606" fill-rule="evenodd"/><path stroke="#ff0000" stroke-width="2.0" stroke-linejoin="round" stroke-linecap="butt" d="m593.98425 447.44095c52.503906 0 78.75592 -51.748047 105.00787 -103.49606c13.125977 -25.874023 26.251953 -51.748047 42.659424 -71.153534c8.203735 -9.702759 17.227905 -17.788391 27.482544 -23.448334c5.1273804 -2.8299713 10.562317 -5.053528 16.356201 -6.56958c1.4485474 -0.37901306 2.9193726 -0.71380615 4.413513 -1.0028076c0.3735962 -0.07223511 0.7484741 -0.14163208 1.125 -0.20812988c0.18823242 -0.03326416 0.37677002 -0.06578064 0.56573486 -0.097579956l0.44262695 -0.072647095" fill-rule="evenodd"/><path fill="#ff0000" stroke="#ff0000" stroke-width="2.0" stroke-linecap="butt" d="m792.2969 244.6855l8.788391 -4.0068054l-9.307861 -2.5796661z" fill-rule="evenodd"/><path fill="#000000" fill-opacity="0.0" d="m593.98425 447.44095c52.503906 0 78.75592 -26.0 105.00787 -52.0c26.251953 -26.0 52.503906 -52.0 105.00787 -52.0" fill-rule="evenodd"/><path stroke="#ff0000" stroke-width="2.0" stroke-linejoin="round" stroke-linecap="butt" d="m593.98425 447.44095c52.503906 0 78.75592 -26.0 105.00787 -52.0c13.125977 -13.0 26.251953 -26.0 42.659424 -35.75c8.203735 -4.875 17.227905 -8.9375 27.482544 -11.78125c5.1273804 -1.421875 10.562317 -2.539032 16.356201 -3.3007812c1.4485474 -0.1904602 2.9193726 -0.35864258 4.413513 -0.5038452c0.3735962 -0.0362854 0.7484741 -0.07116699 1.125 -0.10458374l0.98065186 -0.08291626" fill-rule="evenodd"/><path fill="#ff0000" stroke="#ff0000" stroke-width="2.0" stroke-linecap="butt" d="m792.1407 347.2184l8.937805 -3.6613464l-9.200256 -2.9403687z" fill-rule="evenodd"/><path fill="#000000" fill-opacity="0.0" d="m593.98425 447.44095c52.503906 0 78.75592 0.01574707 105.00787 0.03149414c26.251953 0.01574707 52.503906 0.03149414 105.00787 0.03149414" fill-rule="evenodd"/><path stroke="#ff0000" stroke-width="2.0" stroke-linejoin="round" stroke-linecap="butt" d="m593.98425 447.44095c52.503906 0 78.75592 0.01574707 105.00787 0.03149414c13.125977 0.007873535 26.251953 0.01574707 42.659424 0.021636963c8.203735 0.002960205 17.227905 0.005432129 27.482544 0.0071411133l22.865906 0.0017700195" fill-rule="evenodd"/><path fill="#ff0000" stroke="#ff0000" stroke-width="2.0" stroke-linecap="butt" d="m791.99976 450.80646l9.076416 -3.3027344l-9.075928 -3.3041687z" fill-rule="evenodd"/><path fill="#000000" fill-opacity="0.0" d="m593.98425 447.44095c52.503906 0 78.75592 26.0 105.00787 52.0c26.251953 25.99997 52.503906 51.99997 105.00787 51.99997" fill-rule="evenodd"/><path stroke="#ff0000" stroke-width="2.0" stroke-linejoin="round" stroke-linecap="butt" d="m593.98425 447.44095c52.503906 0 78.75592 26.0 105.00787 52.0c13.125977 12.9999695 26.251953 25.99997 42.659424 35.74997c8.203735 4.875 17.227905 8.9375 27.482544 11.78125c5.1273804 1.421875 10.562317 2.5390625 16.356201 3.3007812c1.4485474 0.19049072 2.9193726 0.35864258 4.413513 0.5038452c0.3735962 0.036315918 0.7484741 0.07116699 1.125 0.10461426l0.98065186 0.08288574" fill-rule="evenodd"/><path fill="#ff0000" stroke="#ff0000" stroke-width="2.0" stroke-linecap="butt" d="m791.87823 554.2652l9.200256 -2.9403687l-8.937805 -3.661377z" fill-rule="evenodd"/><path fill="#000000" fill-opacity="0.0" d="m272.70078 531.9921l-1.9212341 -137.73227" fill-rule="evenodd"/><path stroke="#0000ff" stroke-width="3.0" stroke-linejoin="round" stroke-linecap="butt" stroke-dasharray="12.0,9.0" d="m272.70078 531.9921l-1.9212341 -137.73227" fill-rule="evenodd"/><path fill="#000000" fill-opacity="0.0" d="m368.7349 561.02625l103.275604 0l0 22.11023l-103.275604 0z" fill-rule="evenodd"/><path fill="#000000" d="m379.64114 580.62134l0 -17.1875l12.421875 0l0 2.03125l-10.15625 0l0 5.265625l9.5 0l0 2.015625l-9.5 0l0 5.84375l10.546875 0l0 2.03125l-12.8125 0zm28.210938 -6.03125l2.28125 0.578125q-0.71875 2.796875 -2.578125 4.28125q-1.859375 1.46875 -4.546875 1.46875q-2.765625 0 -4.515625 -1.125q-1.734375 -1.140625 -2.640625 -3.28125q-0.90625 -2.15625 -0.90625 -4.609375q0 -2.6875 1.015625 -4.6875q1.03125 -2.0 2.921875 -3.03125q1.890625 -1.03125 4.171875 -1.03125q2.578125 0 4.328125 1.3125q1.765625 1.3125 2.453125 3.6875l-2.234375 0.53125q-0.609375 -1.875 -1.75 -2.734375q-1.125 -0.859375 -2.84375 -0.859375q-1.984375 0 -3.3125 0.953125q-1.328125 0.953125 -1.875 2.546875q-0.53125 1.59375 -0.53125 3.296875q0 2.1875 0.625 3.828125q0.640625 1.640625 1.984375 2.453125q1.359375 0.796875 2.921875 0.796875q1.921875 0 3.234375 -1.09375q1.328125 -1.109375 1.796875 -3.28125zm5.0039062 6.03125l0 -17.1875l3.421875 0l4.0625 12.171875q0.5625 1.703125 0.828125 2.546875q0.296875 -0.9375 0.90625 -2.765625l4.125 -11.953125l3.046875 0l0 17.1875l-2.1875 0l0 -14.375l-4.984375 14.375l-2.0625 0l-4.96875 -14.625l0 14.625l-2.1875 0zm20.070312 0l0 -17.1875l6.46875 0q1.71875 0 2.625 0.171875q1.265625 0.203125 2.109375 0.796875q0.859375 0.59375 1.375 1.671875q0.53125 1.0625 0.53125 2.328125q0 2.203125 -1.40625 3.71875q-1.390625 1.515625 -5.03125 1.515625l-4.40625 0l0 6.984375l-2.265625 0zm2.265625 -9.015625l4.4375 0q2.203125 0 3.125 -0.8125q0.9375 -0.828125 0.9375 -2.3125q0 -1.078125 -0.546875 -1.84375q-0.546875 -0.765625 -1.4375 -1.015625q-0.578125 -0.15625 -2.125 -0.15625l-4.390625 0l0 6.140625z" fill-rule="nonzero"/><path fill="#000000" fill-opacity="0.0" d="m379.25824 287.7454l82.236206 0l0 22.11026l-82.236206 0z" fill-rule="evenodd"/><path fill="#000000" d="m389.852 292.5905l0 -2.4375l2.109375 0l0 2.4375l-2.109375 0zm0 14.75l0 -12.453125l2.109375 0l0 12.453125l-2.109375 0zm5.5039062 0l0 -17.1875l6.4375 0q1.96875 0 3.15625 0.53125q1.1875 0.515625 1.859375 1.609375q0.6875 1.078125 0.6875 2.265625q0 1.09375 -0.609375 2.078125q-0.59375 0.96875 -1.796875 1.5625q1.5625 0.453125 2.390625 1.5625q0.84375 1.09375 0.84375 2.59375q0 1.203125 -0.515625 2.25q-0.5 1.03125 -1.25 1.59375q-0.75 0.5625 -1.890625 0.859375q-1.125 0.28125 -2.765625 0.28125l-6.546875 0zm2.265625 -9.96875l3.71875 0q1.515625 0 2.171875 -0.1875q0.859375 -0.265625 1.296875 -0.859375q0.4375 -0.59375 0.4375 -1.5q0 -0.859375 -0.40625 -1.5q-0.40625 -0.65625 -1.171875 -0.890625q-0.765625 -0.25 -2.609375 -0.25l-3.4375 0l0 5.1875zm0 7.9375l4.28125 0q1.09375 0 1.546875 -0.078125q0.78125 -0.140625 1.3125 -0.46875q0.53125 -0.328125 0.859375 -0.953125q0.34375 -0.625 0.34375 -1.453125q0 -0.953125 -0.5 -1.65625q-0.484375 -0.71875 -1.359375 -1.0q-0.875 -0.296875 -2.515625 -0.296875l-3.96875 0l0 5.90625zm21.867188 -4.703125l0 -2.015625l7.28125 -0.015625l0 6.375q-1.671875 1.328125 -3.453125 2.015625q-1.78125 0.671875 -3.65625 0.671875q-2.53125 0 -4.609375 -1.078125q-2.0625 -1.09375 -3.125 -3.140625q-1.046875 -2.0625 -1.046875 -4.59375q0 -2.5 1.046875 -4.671875q1.046875 -2.171875 3.015625 -3.21875q1.96875 -1.0625 4.53125 -1.0625q1.875 0 3.375 0.609375q1.5 0.59375 2.359375 1.671875q0.859375 1.078125 1.296875 2.8125l-2.046875 0.5625q-0.390625 -1.3125 -0.96875 -2.0625q-0.5625 -0.75 -1.640625 -1.203125q-1.0625 -0.453125 -2.359375 -0.453125q-1.5625 0 -2.703125 0.484375q-1.125 0.46875 -1.828125 1.25q-0.6875 0.765625 -1.078125 1.6875q-0.65625 1.59375 -0.65625 3.453125q0 2.296875 0.78125 3.84375q0.796875 1.546875 2.3125 2.296875q1.515625 0.75 3.203125 0.75q1.484375 0 2.890625 -0.5625q1.40625 -0.5625 2.125 -1.21875l0 -3.1875l-5.046875 0zm10.636719 6.734375l0 -17.1875l6.46875 0q1.71875 0 2.625 0.171875q1.265625 0.203125 2.109375 0.796875q0.859375 0.59375 1.375 1.671875q0.53125 1.0625 0.53125 2.328125q0 2.203125 -1.40625 3.71875q-1.390625 1.515625 -5.03125 1.515625l-4.40625 0l0 6.984375l-2.265625 0zm2.265625 -9.015625l4.4375 0q2.203125 0 3.125 -0.8125q0.9375 -0.828125 0.9375 -2.3125q0 -1.078125 -0.546875 -1.84375q-0.546875 -0.765625 -1.4375 -1.015625q-0.578125 -0.15625 -2.125 -0.15625l-4.390625 0l0 6.140625z" fill-rule="nonzero"/><path fill="#000000" fill-opacity="0.0" d="m277.45645 443.6929l87.93701 0l0 22.11026l-87.93701 0z" fill-rule="evenodd"/><path fill="#000000" d="m288.0502 448.53802l0 -2.4375l2.109375 0l0 2.4375l-2.109375 0zm0 14.75l0 -12.453125l2.109375 0l0 12.453125l-2.109375 0zm5.5039062 0l0 -17.1875l6.4375 0q1.96875 0 3.15625 0.53125q1.1875 0.515625 1.859375 1.609375q0.6875 1.078125 0.6875 2.265625q0 1.09375 -0.609375 2.078125q-0.59375 0.96875 -1.796875 1.5625q1.5625 0.453125 2.390625 1.5625q0.84375 1.09375 0.84375 2.59375q0 1.203125 -0.515625 2.25q-0.5 1.03125 -1.25 1.59375q-0.75 0.5625 -1.890625 0.859375q-1.125 0.28125 -2.765625 0.28125l-6.546875 0zm2.265625 -9.96875l3.71875 0q1.515625 0 2.171875 -0.1875q0.859375 -0.265625 1.296875 -0.859375q0.4375 -0.59375 0.4375 -1.5q0 -0.859375 -0.40625 -1.5q-0.40625 -0.65625 -1.171875 -0.890625q-0.765625 -0.25 -2.609375 -0.25l-3.4375 0l0 5.1875zm0 7.9375l4.28125 0q1.09375 0 1.546875 -0.078125q0.78125 -0.140625 1.3125 -0.46875q0.53125 -0.328125 0.859375 -0.953125q0.34375 -0.625 0.34375 -1.453125q0 -0.953125 -0.5 -1.65625q-0.484375 -0.71875 -1.359375 -1.0q-0.875 -0.296875 -2.515625 -0.296875l-3.96875 0l0 5.90625zm21.867188 -4.703125l0 -2.015625l7.28125 -0.015625l0 6.375q-1.671875 1.328125 -3.453125 2.015625q-1.78125 0.671875 -3.65625 0.671875q-2.53125 0 -4.609375 -1.078125q-2.0625 -1.09375 -3.125 -3.140625q-1.046875 -2.0625 -1.046875 -4.59375q0 -2.5 1.046875 -4.671875q1.046875 -2.171875 3.015625 -3.21875q1.96875 -1.0625 4.53125 -1.0625q1.875 0 3.375 0.609375q1.5 0.59375 2.359375 1.671875q0.859375 1.078125 1.296875 2.8125l-2.046875 0.5625q-0.390625 -1.3125 -0.96875 -2.0625q-0.5625 -0.75 -1.640625 -1.203125q-1.0625 -0.453125 -2.359375 -0.453125q-1.5625 0 -2.703125 0.484375q-1.125 0.46875 -1.828125 1.25q-0.6875 0.765625 -1.078125 1.6875q-0.65625 1.59375 -0.65625 3.453125q0 2.296875 0.78125 3.84375q0.796875 1.546875 2.3125 2.296875q1.515625 0.75 3.203125 0.75q1.484375 0 2.890625 -0.5625q1.40625 -0.5625 2.125 -1.21875l0 -3.1875l-5.046875 0zm10.636719 6.734375l0 -17.1875l6.46875 0q1.71875 0 2.625 0.171875q1.265625 0.203125 2.109375 0.796875q0.859375 0.59375 1.375 1.671875q0.53125 1.0625 0.53125 2.328125q0 2.203125 -1.40625 3.71875q-1.390625 1.515625 -5.03125 1.515625l-4.40625 0l0 6.984375l-2.265625 0zm2.265625 -9.015625l4.4375 0q2.203125 0 3.125 -0.8125q0.9375 -0.828125 0.9375 -2.3125q0 -1.078125 -0.546875 -1.84375q-0.546875 -0.765625 -1.4375 -1.015625q-0.578125 -0.15625 -2.125 -0.15625l-4.390625 0l0 6.140625z" fill-rule="nonzero"/><path fill="#eeeeee" d="m32.474857 416.90625l0 0c-1.2824478 -6.5651855 2.9280815 -13.064331 10.844902 -16.739594c7.9168205 -3.6752625 18.151493 -3.88208 26.361073 -0.53271484l0 0c2.908081 -3.8172913 8.2307205 -6.4528503 14.357925 -7.109497c6.127205 -0.6566467 12.33931 0.74276733 16.75727 3.7749023l0 0c2.4773102 -3.4609985 7.3415604 -5.786316 12.866653 -6.150879c5.525093 -0.36453247 10.9291 1.2833252 14.294388 4.358795l0 0c4.475624 -3.6686401 11.596474 -5.2132874 18.281288 -3.9655457c6.6848145 1.2477112 11.732971 5.06369 12.960083 9.796753l0 0c5.4833984 1.0419006 10.050964 3.6905518 12.522568 7.2616577c2.4716034 3.571106 2.6047974 7.714325 0.36515808 11.359161l0 0c5.3995514 4.895447 6.6626434 11.418549 3.3179169 17.13501c-3.3447418 5.7164917 -10.794785 9.767487 -19.569931 10.641266c-0.061843872 5.3651123 -4.285736 10.288086 -11.04361 12.871368c-6.7578583 2.5832825 -14.994431 2.4234924 -21.53498 -0.41775513c-2.7859268 6.425659 -10.627373 11.153595 -20.13655 12.141174c-9.509171 0.9875488 -18.981369 -1.9422607 -24.32425 -7.523712c-6.5492477 2.7511292 -14.407806 3.5436096 -21.80294 2.198761c-7.39513 -1.3448792 -13.703903 -4.7138367 -17.50319 -9.346924l0 0c-6.6925125 0.54556274 -13.163248 -1.8698425 -16.200802 -6.0474854c-3.0375557 -4.177643 -1.995306 -9.228149 2.60948 -12.64502l0 0c-5.9698944 -2.4476929 -9.016094 -7.3046875 -7.550125 -12.0383c1.4659672 -4.7335815 7.11191 -8.271118 13.993689 -8.767914z" fill-rule="evenodd"/><path fill="#000000" fill-opacity="0.0" d="m25.899 437.96548l0 0c2.8172112 1.1550903 6.0717506 1.6790466 9.326643 1.5015564m4.263214 17.191406c1.399723 -0.114105225 2.771717 -0.3557434 4.0806007 -0.71865845m35.22357 7.866516c-0.9844742 -1.0284424 -1.8087311 -2.127411 -2.4587173 -3.2781982m46.92122 -1.3394775l0 0c0.5079117 -1.1714783 0.836998 -2.3771973 0.98176575 -3.597046m31.595589 -8.85611c0.06585693 -5.7120056 -4.5914154 -10.941956 -11.971359 -13.443451m28.22322 -14.332214c-1.1951599 1.9450378 -3.019699 3.6704712 -5.3305664 5.040985m-7.5560455 -23.662323l0 0c0.2036438 0.7854309 0.29788208 1.5827026 0.2814331 2.3807068m-31.522263 -8.21167l0 0c-1.1164474 0.91516113 -2.036255 1.9378052 -2.7307816 3.0361328m-24.43052 -1.2444458l0 0c-0.5949707 0.8312073 -1.0392609 1.7107849 -1.3226242 2.6184387m-29.79303 0.71621704l0 0c1.7371445 0.7087097 3.3442307 1.5617371 4.7859726 2.5403442m-41.991467 14.732056l0 0c0.176754 0.9048767 0.4560356 1.7985535 0.83522797 2.6727295" fill-rule="evenodd"/><path stroke="#595959" stroke-width="1.0" stroke-linejoin="round" stroke-linecap="butt" d="m32.474857 416.90625l0 0c-1.2824478 -6.5651855 2.9280815 -13.064331 10.844902 -16.739594c7.9168205 -3.6752625 18.151493 -3.88208 26.361073 -0.53271484l0 0c2.908081 -3.8172913 8.2307205 -6.4528503 14.357925 -7.109497c6.127205 -0.6566467 12.33931 0.74276733 16.75727 3.7749023l0 0c2.4773102 -3.4609985 7.3415604 -5.786316 12.866653 -6.150879c5.525093 -0.36453247 10.9291 1.2833252 14.294388 4.358795l0 0c4.475624 -3.6686401 11.596474 -5.2132874 18.281288 -3.9655457c6.6848145 1.2477112 11.732971 5.06369 12.960083 9.796753l0 0c5.4833984 1.0419006 10.050964 3.6905518 12.522568 7.2616577c2.4716034 3.571106 2.6047974 7.714325 0.36515808 11.359161l0 0c5.3995514 4.895447 6.6626434 11.418549 3.3179169 17.13501c-3.3447418 5.7164917 -10.794785 9.767487 -19.569931 10.641266c-0.061843872 5.3651123 -4.285736 10.288086 -11.04361 12.871368c-6.7578583 2.5832825 -14.994431 2.4234924 -21.53498 -0.41775513c-2.7859268 6.425659 -10.627373 11.153595 -20.13655 12.141174c-9.509171 0.9875488 -18.981369 -1.9422607 -24.32425 -7.523712c-6.5492477 2.7511292 -14.407806 3.5436096 -21.80294 2.198761c-7.39513 -1.3448792 -13.703903 -4.7138367 -17.50319 -9.346924l0 0c-6.6925125 0.54556274 -13.163248 -1.8698425 -16.200802 -6.0474854c-3.0375557 -4.177643 -1.995306 -9.228149 2.60948 -12.64502l0 0c-5.9698944 -2.4476929 -9.016094 -7.3046875 -7.550125 -12.0383c1.4659672 -4.7335815 7.11191 -8.271118 13.993689 -8.767914z" fill-rule="evenodd"/><path stroke="#595959" stroke-width="1.0" stroke-linejoin="round" stroke-linecap="butt" d="m25.899 437.96548l0 0c2.8172112 1.1550903 6.0717506 1.6790466 9.326643 1.5015564m4.263214 17.191406c1.399723 -0.114105225 2.771717 -0.3557434 4.0806007 -0.71865845m35.22357 7.866516c-0.9844742 -1.0284424 -1.8087311 -2.127411 -2.4587173 -3.2781982m46.92122 -1.3394775l0 0c0.5079117 -1.1714783 0.836998 -2.3771973 0.98176575 -3.597046m31.595589 -8.85611c0.06585693 -5.7120056 -4.5914154 -10.941956 -11.971359 -13.443451m28.22322 -14.332214c-1.1951599 1.9450378 -3.019699 3.6704712 -5.3305664 5.040985m-7.5560455 -23.662323l0 0c0.2036438 0.7854309 0.29788208 1.5827026 0.2814331 2.3807068m-31.522263 -8.21167l0 0c-1.1164474 0.91516113 -2.036255 1.9378052 -2.7307816 3.0361328m-24.43052 -1.2444458l0 0c-0.5949707 0.8312073 -1.0392609 1.7107849 -1.3226242 2.6184387m-29.79303 0.71621704l0 0c1.7371445 0.7087097 3.3442307 1.5617371 4.7859726 2.5403442m-41.991467 14.732056l0 0c0.176754 0.9048767 0.4560356 1.7985535 0.83522797 2.6727295" fill-rule="evenodd"/><path fill="#000000" d="m51.27183 437.18164l0 -17.1875l2.28125 0l0 17.1875l-2.28125 0zm6.0117188 0l0 -12.453125l1.90625 0l0 1.78125q1.375 -2.0625 3.953125 -2.0625q1.1250038 0 2.0625038 0.40625q0.953125 0.40625 1.421875 1.0625q0.46875 0.65625 0.65625 1.5625q0.125 0.578125 0.125 2.046875l0 7.65625l-2.109375 0l0 -7.578125q0 -1.28125 -0.25 -1.921875q-0.25 -0.640625 -0.875 -1.015625q-0.6250038 -0.390625 -1.4687538 -0.390625q-1.34375 0 -2.328125 0.859375q-0.984375 0.859375 -0.984375 3.25l0 6.796875l-2.109375 0zm17.957035 -1.890625l0.3125 1.859375q-0.890625 0.203125 -1.59375 0.203125q-1.15625 0 -1.796875 -0.359375q-0.625 -0.375 -0.890625 -0.96875q-0.25 -0.59375 -0.25 -2.484375l0 -7.171875l-1.546875 0l0 -1.640625l1.546875 0l0 -3.078125l2.09375 -1.265625l0 4.34375l2.125 0l0 1.640625l-2.125 0l0 7.28125q0 0.90625 0.109375 1.171875q0.125 0.25 0.375 0.40625q0.25 0.140625 0.71875 0.140625q0.34375 0 0.921875 -0.078125zm10.589844 -2.125l2.171875 0.28125q-0.515625 1.90625 -1.90625 2.96875q-1.390625 1.046875 -3.5625 1.046875q-2.734375 0 -4.34375 -1.671875q-1.59375 -1.6875 -1.59375 -4.734375q0 -3.140625 1.609375 -4.875q1.625 -1.734375 4.203125 -1.734375q2.5 0 4.078125 1.703125q1.59375 1.703125 1.59375 4.78125q0 0.1875 -0.015625 0.5625l-9.28125 0q0.109375 2.046875 1.15625 3.140625q1.046875 1.09375 2.609375 1.09375q1.15625 0 1.96875 -0.609375q0.828125 -0.609375 1.3125 -1.953125zm-6.9375 -3.40625l6.953125 0q-0.140625 -1.5625 -0.796875 -2.359375q-1.0 -1.21875 -2.609375 -1.21875q-1.453125 0 -2.453125 0.984375q-0.984375 0.96875 -1.09375 2.59375zm11.738281 7.421875l0 -12.453125l1.890625 0l0 1.890625q0.734375 -1.328125 1.34375 -1.75q0.625 -0.421875 1.359375 -0.421875q1.0625 0 2.171875 0.6875l-0.734375 1.953125q-0.765625 -0.453125 -1.546875 -0.453125q-0.6875 0 -1.25 0.421875q-0.546875 0.40625 -0.78125 1.140625q-0.34375 1.125 -0.34375 2.46875l0 6.515625l-2.109375 0zm8.0078125 0l0 -12.453125l1.90625 0l0 1.78125q1.375 -2.0625 3.953125 -2.0625q1.125 0 2.0625 0.40625q0.953125 0.40625 1.421875 1.0625q0.46875 0.65625 0.65625 1.5625q0.125 0.578125 0.125 2.046875l0 7.65625l-2.109375 0l0 -7.578125q0 -1.28125 -0.25 -1.921875q-0.25 -0.640625 -0.875 -1.015625q-0.625 -0.390625 -1.46875 -0.390625q-1.34375 0 -2.328125 0.859375q-0.984375 0.859375 -0.984375 3.25l0 6.796875l-2.109375 0zm21.878906 -4.015625l2.171875 0.28125q-0.515625 1.90625 -1.90625 2.96875q-1.390625 1.046875 -3.5625 1.046875q-2.734375 0 -4.34375 -1.671875q-1.59375 -1.6875 -1.59375 -4.734375q0 -3.140625 1.609375 -4.875q1.625 -1.734375 4.203125 -1.734375q2.5 0 4.078125 1.703125q1.59375 1.703125 1.59375 4.78125q0 0.1875 -0.015625 0.5625l-9.28125 0q0.109375 2.046875 1.15625 3.140625q1.046875 1.09375 2.609375 1.09375q1.15625 0 1.96875 -0.609375q0.828125 -0.609375 1.3125 -1.953125zm-6.9375 -3.40625l6.953125 0q-0.140625 -1.5625 -0.796875 -2.359375q-1.0 -1.21875 -2.609375 -1.21875q-1.453125 0 -2.453125 0.984375q-0.984375 0.96875 -1.09375 2.59375zm16.363281 5.53125l0.3125 1.859375q-0.890625 0.203125 -1.59375 0.203125q-1.15625 0 -1.796875 -0.359375q-0.625 -0.375 -0.890625 -0.96875q-0.25 -0.59375 -0.25 -2.484375l0 -7.171875l-1.546875 0l0 -1.640625l1.546875 0l0 -3.078125l2.09375 -1.265625l0 4.34375l2.125 0l0 1.640625l-2.125 0l0 7.28125q0 0.90625 0.109375 1.171875q0.125 0.25 0.375 0.40625q0.25 0.140625 0.71875 0.140625q0.34375 0 0.921875 -0.078125z" fill-rule="nonzero"/><path fill="#000000" fill-opacity="0.0" d="m97.6443 471.135c0 40.1575 47.76378 80.31494 95.52756 80.31494" fill-rule="evenodd"/><path stroke="#00c400" stroke-width="2.0" stroke-linejoin="round" stroke-linecap="butt" d="m97.6443 471.135c0 20.078735 11.9409485 40.15747 29.852364 55.216553c8.955711 7.52948 19.40403 13.804138 30.598671 18.19635c5.5973206 2.196106 11.38121 3.9216309 17.258392 5.0980835c1.469284 0.29412842 2.9444122 0.5539551 4.4239044 0.77819824c0.36990356 0.05609131 0.740036 0.10992432 1.1104279 0.16156006l0.31202698 0.04156494" fill-rule="evenodd"/><path fill="#00c400" stroke="#00c400" stroke-width="2.0" stroke-linecap="butt" d="m180.97362 553.923l9.281311 -2.673462l-8.828369 -3.9179077z" fill-rule="evenodd"/><path fill="#000000" fill-opacity="0.0" d="m593.98425 343.44095c52.503906 0 78.75592 -25.748047 105.00787 -51.496063c26.251953 -25.748047 52.503906 -51.496063 105.00787 -51.496063" fill-rule="evenodd"/><path stroke="#ff0000" stroke-width="2.0" stroke-linejoin="round" stroke-linecap="butt" d="m593.98425 343.44095c52.503906 0 78.75592 -25.748047 105.00787 -51.496063c13.125977 -12.874023 26.251953 -25.748047 42.659424 -35.403534c8.203735 -4.827774 17.227905 -8.850891 27.482544 -11.667084c5.1273804 -1.4080963 10.562317 -2.5144653 16.356201 -3.2687836c1.4485474 -0.18859863 2.9193726 -0.35517883 4.413513 -0.49897766c0.3735962 -0.035949707 0.7484741 -0.07048035 1.125 -0.10354614l0.98046875 -0.08213806" fill-rule="evenodd"/><path fill="#ff0000" stroke="#ff0000" stroke-width="2.0" stroke-linecap="butt" d="m792.1392 244.22174l8.939209 -3.6579132l-9.199097 -2.9438934z" fill-rule="evenodd"/><path fill="#000000" fill-opacity="0.0" d="m593.98425 343.44095c52.503906 0 78.75592 0.01574707 105.00787 0.03149414c26.251953 0.01574707 52.503906 0.03149414 105.00787 0.03149414" fill-rule="evenodd"/><path stroke="#ff0000" stroke-width="2.0" stroke-linejoin="round" stroke-linecap="butt" d="m593.98425 343.44095c52.503906 0 78.75592 0.01574707 105.00787 0.03149414c13.125977 0.007873535 26.251953 0.01574707 42.659424 0.021636963c8.203735 0.002960205 17.227905 0.005432129 27.482544 0.0071411133l22.865906 0.0018005371" fill-rule="evenodd"/><path fill="#ff0000" stroke="#ff0000" stroke-width="2.0" stroke-linecap="butt" d="m791.99976 346.80646l9.076416 -3.3027344l-9.075928 -3.3041687z" fill-rule="evenodd"/><path fill="#000000" fill-opacity="0.0" d="m593.98425 343.44095c52.503906 0 78.75592 26.0 105.00787 52.0c26.251953 26.0 52.503906 52.0 105.00787 52.0" fill-rule="evenodd"/><path stroke="#ff0000" stroke-width="2.0" stroke-linejoin="round" stroke-linecap="butt" d="m593.98425 343.44095c52.503906 0 78.75592 26.0 105.00787 52.0c13.125977 13.0 26.251953 26.0 42.659424 35.75c8.203735 4.875 17.227905 8.9375 27.482544 11.78125c5.1273804 1.421875 10.562317 2.539032 16.356201 3.3007812c1.4485474 0.19042969 2.9193726 0.35861206 4.413513 0.5038452c0.3735962 0.0362854 0.7484741 0.071136475 1.125 0.10458374l0.98065186 0.08291626" fill-rule="evenodd"/><path fill="#ff0000" stroke="#ff0000" stroke-width="2.0" stroke-linecap="butt" d="m791.87823 450.26517l9.200256 -2.9403381l-8.937805 -3.661377z" fill-rule="evenodd"/><path fill="#000000" fill-opacity="0.0" d="m593.98425 343.44095c52.503906 0 78.75592 52.0 105.00787 104.0c26.251953 52.0 52.503906 103.99997 105.00787 103.99997" fill-rule="evenodd"/><path stroke="#ff0000" stroke-width="2.0" stroke-linejoin="round" stroke-linecap="butt" d="m593.98425 343.44095c52.503906 0 78.75592 52.0 105.00787 104.0c13.125977 26.0 26.251953 52.0 42.659424 71.49997c8.203735 9.75 17.227905 17.875 27.482544 23.5625c5.1273804 2.84375 10.562317 5.078125 16.356201 6.6015625c1.4485474 0.38085938 2.9193726 0.7173462 4.413513 1.0076904c0.3735962 0.072631836 0.7484741 0.14239502 1.125 0.20916748c0.18823242 0.033447266 0.37677002 0.066101074 0.56573486 0.098083496l0.44293213 0.07299805" fill-rule="evenodd"/><path fill="#ff0000" stroke="#ff0000" stroke-width="2.0" stroke-linecap="butt" d="m791.77655 553.78613l9.308777 -2.5761719l-8.786865 -4.010132z" fill-rule="evenodd"/><path fill="#ffffff" d="m516.0 284.09857l0 0c0 -3.763153 3.0506592 -6.8137817 6.8137817 -6.8137817l64.35669 0c1.8071289 0 3.5402222 0.717865 4.818054 1.995697c1.277832 1.277832 1.9957275 3.0109558 1.9957275 4.8180847l0 27.254303c0 3.763153 -3.0506592 6.8137817 -6.8137817 6.8137817l-64.35669 0c-3.7631226 0 -6.8137817 -3.0506287 -6.8137817 -6.8137817z" fill-rule="evenodd"/><path stroke="#ff0000" stroke-width="1.0" stroke-linejoin="round" stroke-linecap="butt" d="m516.0 284.09857l0 0c0 -3.763153 3.0506592 -6.8137817 6.8137817 -6.8137817l64.35669 0c1.8071289 0 3.5402222 0.717865 4.818054 1.995697c1.277832 1.277832 1.9957275 3.0109558 1.9957275 4.8180847l0 27.254303c0 3.763153 -3.0506592 6.8137817 -6.8137817 6.8137817l-64.35669 0c-3.7631226 0 -6.8137817 -3.0506287 -6.8137817 -6.8137817z" fill-rule="evenodd"/><path fill="#000000" d="m547.18353 306.26572l0 -17.1875l2.109375 0l0 17.1875l-2.109375 0zm7.3320312 0l-1.953125 0l0 -17.1875l2.109375 0l0 6.140625q1.328125 -1.6875 3.40625 -1.6875q1.140625 0 2.171875 0.46875q1.03125 0.46875 1.6875 1.3125q0.65625 0.828125 1.03125 2.015625q0.375 1.171875 0.375 2.53125q0 3.1875 -1.578125 4.9375q-1.578125 1.75 -3.796875 1.75q-2.203125 0 -3.453125 -1.84375l0 1.5625zm-0.03125 -6.3125q0 2.234375 0.609375 3.234375q1.0 1.625 2.703125 1.625q1.375 0 2.375 -1.203125q1.015625 -1.203125 1.015625 -3.578125q0 -2.4375 -0.96875 -3.59375q-0.953125 -1.171875 -2.328125 -1.171875q-1.390625 0 -2.40625 1.203125q-1.0 1.203125 -1.0 3.484375z" fill-rule="nonzero"/><path fill="#000000" fill-opacity="0.0" d="m516.0 297.7257l-175.71652 62.26773" fill-rule="evenodd"/><path stroke="#ff0000" stroke-width="3.0" stroke-linejoin="round" stroke-linecap="butt" stroke-dasharray="12.0,9.0" d="m516.0 297.7257l-175.71652 62.26773" fill-rule="evenodd"/><path fill="#ffffff" d="m198.99475 346.37283l0 0c0 -3.763153 3.0506287 -6.8137817 6.8137817 -6.8137817l127.66376 0c1.8071289 0 3.5402527 0.7178955 4.8180847 1.9957275c1.277832 1.277832 1.9957275 3.0109253 1.9957275 4.818054l0 27.254333c0 3.763153 -3.0506592 6.8137817 -6.8138123 6.8137817l-127.66376 0c-3.763153 0 -6.8137817 -3.0506287 -6.8137817 -6.8137817z" fill-rule="evenodd"/><path stroke="#ff0000" stroke-width="1.0" stroke-linejoin="round" stroke-linecap="butt" d="m198.99475 346.37283l0 0c0 -3.763153 3.0506287 -6.8137817 6.8137817 -6.8137817l127.66376 0c1.8071289 0 3.5402527 0.7178955 4.8180847 1.9957275c1.277832 1.277832 1.9957275 3.0109253 1.9957275 4.818054l0 27.254333c0 3.763153 -3.0506592 6.8137817 -6.8138123 6.8137817l-127.66376 0c-3.763153 0 -6.8137817 -3.0506287 -6.8137817 -6.8137817z" fill-rule="evenodd"/><path fill="#000000" d="m219.7869 368.54l-1.953125 0l0 -17.1875l2.109375 0l0 6.140625q1.328125 -1.6875 3.40625 -1.6875q1.140625 0 2.171875 0.46875q1.03125 0.46875 1.6875 1.3125q0.65625 0.828125 1.03125 2.015625q0.375 1.171875 0.375 2.53125q0 3.1875 -1.578125 4.9375q-1.578125 1.75 -3.796875 1.75q-2.203125 0 -3.453125 -1.84375l0 1.5625zm-0.03125 -6.3125q0 2.234375 0.609375 3.234375q1.0 1.625 2.703125 1.625q1.375 0 2.375 -1.203125q1.015625 -1.203125 1.015625 -3.578125q0 -2.4375 -0.96875 -3.59375q-0.953125 -1.171875 -2.328125 -1.171875q-1.390625 0 -2.40625 1.203125q-1.0 1.203125 -1.0 3.484375zm11.050781 7.34375l2.046875 0.3125q0.125 0.9375 0.71875 1.375q0.78125 0.59375 2.140625 0.59375q1.46875 0 2.265625 -0.59375q0.796875 -0.578125 1.078125 -1.640625q0.15625 -0.640625 0.140625 -2.703125q-1.375 1.625 -3.4375 1.625q-2.5625 0 -3.96875 -1.84375q-1.40625 -1.859375 -1.40625 -4.453125q0 -1.78125 0.640625 -3.28125q0.640625 -1.515625 1.859375 -2.328125q1.234375 -0.828125 2.890625 -0.828125q2.203125 0 3.625 1.78125l0 -1.5l1.953125 0l0 10.765625q0 2.90625 -0.59375 4.109375q-0.59375 1.21875 -1.875 1.921875q-1.28125 0.703125 -3.15625 0.703125q-2.234375 0 -3.609375 -1.0q-1.359375 -1.0 -1.3125 -3.015625zm1.734375 -7.484375q0 2.453125 0.96875 3.578125q0.984375 1.125 2.453125 1.125q1.453125 0 2.4375 -1.109375q0.984375 -1.125 0.984375 -3.515625q0 -2.28125 -1.015625 -3.4375q-1.015625 -1.171875 -2.453125 -1.171875q-1.40625 0 -2.390625 1.140625q-0.984375 1.140625 -0.984375 3.390625zm11.988281 11.21875l0 -17.21875l1.921875 0l0 1.625q0.6875 -0.953125 1.53125 -1.421875q0.859375 -0.484375 2.078125 -0.484375q1.59375 0 2.8125 0.828125q1.21875 0.8125 1.84375 2.3125q0.625 1.5 0.625 3.28125q0 1.90625 -0.6875 3.4375q-0.6875 1.53125 -2.0 2.34375q-1.296875 0.8125 -2.734375 0.8125q-1.0625 0 -1.90625 -0.4375q-0.828125 -0.453125 -1.375 -1.140625l0 6.0625l-2.109375 0zm1.921875 -10.921875q0 2.40625 0.96875 3.5625q0.96875 1.140625 2.359375 1.140625q1.40625 0 2.40625 -1.1875q1.0 -1.1875 1.0 -3.6875q0 -2.375 -0.984375 -3.5625q-0.96875 -1.1875 -2.328125 -1.1875q-1.359375 0 -2.390625 1.265625q-1.03125 1.25 -1.03125 3.65625zm26.21875 4.625q-1.171875 0.984375 -2.265625 1.40625q-1.078125 0.40625 -2.3125 0.40625q-2.046875 0 -3.15625 -1.0q-1.09375 -1.0 -1.09375 -2.5625q0 -0.921875 0.40625 -1.671875q0.421875 -0.75 1.09375 -1.203125q0.671875 -0.46875 1.515625 -0.703125q0.625 -0.15625 1.875 -0.3125q2.5625 -0.3125 3.765625 -0.734375q0.015625 -0.421875 0.015625 -0.546875q0 -1.28125 -0.609375 -1.8125q-0.796875 -0.71875 -2.390625 -0.71875q-1.5 0 -2.203125 0.53125q-0.703125 0.515625 -1.046875 1.84375l-2.0625 -0.28125q0.28125 -1.328125 0.921875 -2.140625q0.640625 -0.8125 1.859375 -1.25q1.21875 -0.453125 2.828125 -0.453125q1.59375 0 2.59375 0.375q1.0 0.375 1.46875 0.953125q0.46875 0.5625 0.65625 1.4375q0.09375 0.53125 0.09375 1.9375l0 2.8125q0 2.9375 0.140625 3.71875q0.140625 0.78125 0.53125 1.5l-2.203125 0q-0.328125 -0.65625 -0.421875 -1.53125zm-0.171875 -4.71875q-1.15625 0.46875 -3.453125 0.796875q-1.296875 0.1875 -1.84375 0.421875q-0.53125 0.234375 -0.828125 0.6875q-0.28125 0.453125 -0.28125 1.0q0 0.84375 0.625 1.40625q0.640625 0.5625 1.875 0.5625q1.21875 0 2.171875 -0.53125q0.953125 -0.53125 1.390625 -1.453125q0.34375 -0.71875 0.34375 -2.109375l0 -0.78125zm5.0195312 7.28125l2.046875 0.3125q0.125 0.9375 0.71875 1.375q0.78125 0.59375 2.140625 0.59375q1.46875 0 2.265625 -0.59375q0.796875 -0.578125 1.078125 -1.640625q0.15625 -0.640625 0.140625 -2.703125q-1.375 1.625 -3.4375 1.625q-2.5625 0 -3.96875 -1.84375q-1.40625 -1.859375 -1.40625 -4.453125q0 -1.78125 0.640625 -3.28125q0.640625 -1.515625 1.859375 -2.328125q1.234375 -0.828125 2.890625 -0.828125q2.203125 0 3.625 1.78125l0 -1.5l1.953125 0l0 10.765625q0 2.90625 -0.59375 4.109375q-0.59375 1.21875 -1.875 1.921875q-1.28125 0.703125 -3.15625 0.703125q-2.234375 0 -3.609375 -1.0q-1.359375 -1.0 -1.3125 -3.015625zm1.734375 -7.484375q0 2.453125 0.96875 3.578125q0.984375 1.125 2.453125 1.125q1.453125 0 2.4375 -1.109375q0.984375 -1.125 0.984375 -3.515625q0 -2.28125 -1.015625 -3.4375q-1.015625 -1.171875 -2.453125 -1.171875q-1.40625 0 -2.390625 1.140625q-0.984375 1.140625 -0.984375 3.390625zm20.519531 2.4375l2.171875 0.28125q-0.515625 1.90625 -1.90625 2.96875q-1.390625 1.046875 -3.5625 1.046875q-2.734375 0 -4.34375 -1.671875q-1.59375 -1.6875 -1.59375 -4.734375q0 -3.140625 1.609375 -4.875q1.625 -1.734375 4.203125 -1.734375q2.5 0 4.078125 1.703125q1.59375 1.703125 1.59375 4.78125q0 0.1875 -0.015625 0.5625l-9.28125 0q0.109375 2.046875 1.15625 3.140625q1.046875 1.09375 2.609375 1.09375q1.15625 0 1.96875 -0.609375q0.828125 -0.609375 1.3125 -1.953125zm-6.9375 -3.40625l6.953125 0q-0.140625 -1.5625 -0.796875 -2.359375q-1.0 -1.21875 -2.609375 -1.21875q-1.453125 0 -2.453125 0.984375q-0.984375 0.96875 -1.09375 2.59375zm11.753906 7.421875l0 -12.453125l1.90625 0l0 1.78125q1.375 -2.0625 3.953125 -2.0625q1.125 0 2.0625 0.40625q0.953125 0.40625 1.421875 1.0625q0.46875 0.65625 0.65625 1.5625q0.125 0.578125 0.125 2.046875l0 7.65625l-2.109375 0l0 -7.578125q0 -1.28125 -0.25 -1.921875q-0.25 -0.640625 -0.875 -1.015625q-0.625 -0.390625 -1.46875 -0.390625q-1.34375 0 -2.328125 0.859375q-0.984375 0.859375 -0.984375 3.25l0 6.796875l-2.109375 0zm17.957031 -1.890625l0.3125 1.859375q-0.890625 0.203125 -1.59375 0.203125q-1.15625 0 -1.796875 -0.359375q-0.625 -0.375 -0.890625 -0.96875q-0.25 -0.59375 -0.25 -2.484375l0 -7.171875l-1.546875 0l0 -1.640625l1.546875 0l0 -3.078125l2.09375 -1.265625l0 4.34375l2.125 0l0 1.640625l-2.125 0l0 7.28125q0 0.90625 0.109375 1.171875q0.125 0.25 0.375 0.40625q0.25 0.140625 0.71875 0.140625q0.34375 0 0.921875 -0.078125z" fill-rule="nonzero"/></g></svg>